<svg width="1920" height="558" viewBox="0 0 1920 558" fill="none" xmlns="http://www.w3.org/2000/svg">
<g filter="url(#filter0_d)">
<rect y="40" width="1920" height="470" fill="#FED45D"/>
</g>
<ellipse cx="1535.5" cy="275" rx="233.5" ry="235" fill="url(#paint0_linear)"/>
<path d="M631.813 261.276C631.738 260.603 631.425 260.082 630.876 259.713C630.327 259.339 629.635 259.152 628.802 259.152C627.907 259.152 627.197 259.356 626.671 259.763C626.146 260.17 625.883 260.684 625.883 261.304C625.883 261.768 626.023 262.147 626.302 262.44C626.586 262.729 626.932 262.956 627.339 263.122C627.751 263.288 628.146 263.42 628.525 263.52L629.945 263.889C630.409 264.003 630.885 264.159 631.373 264.358C631.861 264.552 632.313 264.808 632.729 265.125C633.146 265.438 633.482 265.828 633.738 266.297C633.998 266.766 634.129 267.327 634.129 267.98C634.129 268.799 633.916 269.531 633.489 270.175C633.068 270.819 632.457 271.325 631.657 271.695C630.857 272.059 629.886 272.241 628.745 272.241C627.116 272.241 625.819 271.86 624.853 271.098C623.892 270.336 623.376 269.296 623.305 267.98H625.506C625.573 268.771 625.916 269.358 626.536 269.741C627.157 270.125 627.888 270.317 628.731 270.317C629.664 270.317 630.433 270.101 631.039 269.67C631.65 269.24 631.955 268.669 631.955 267.959C631.955 267.528 631.832 267.175 631.586 266.901C631.345 266.621 631.015 266.394 630.599 266.219C630.187 266.039 629.72 265.88 629.2 265.743L627.481 265.274C626.311 264.957 625.388 264.491 624.711 263.875C624.034 263.259 623.695 262.445 623.695 261.432C623.695 260.594 623.923 259.862 624.377 259.237C624.832 258.612 625.447 258.127 626.224 257.781C627.005 257.431 627.881 257.256 628.852 257.256C629.836 257.256 630.705 257.429 631.458 257.774C632.216 258.12 632.812 258.596 633.248 259.202C633.684 259.808 633.911 260.499 633.93 261.276H631.813ZM641.216 272.22C640.146 272.22 639.223 271.988 638.447 271.524C637.67 271.06 637.071 270.409 636.65 269.571C636.233 268.728 636.025 267.743 636.025 266.616C636.025 265.499 636.233 264.514 636.65 263.662C637.071 262.81 637.658 262.144 638.411 261.666C639.169 261.188 640.054 260.949 641.067 260.949C641.891 260.949 642.67 261.134 643.404 261.503C644.143 261.867 644.741 262.452 645.201 263.257C645.665 264.057 645.897 265.116 645.897 266.432V267.185H638.141C638.17 268.236 638.465 269.045 639.029 269.614C639.592 270.182 640.329 270.466 641.238 270.466C641.844 270.466 642.367 270.336 642.807 270.075C643.248 269.815 643.563 269.427 643.752 268.911L645.762 269.273C645.52 270.158 645 270.871 644.199 271.411C643.399 271.95 642.405 272.22 641.216 272.22ZM638.148 265.594H643.816C643.811 264.76 643.56 264.071 643.063 263.527C642.566 262.978 641.905 262.703 641.081 262.703C640.509 262.703 640.007 262.838 639.576 263.108C639.15 263.373 638.811 263.726 638.56 264.166C638.314 264.602 638.177 265.078 638.148 265.594ZM650.311 265.523V272H648.187V261.091H650.225V262.866H650.36C650.611 262.289 651.004 261.825 651.539 261.474C652.079 261.124 652.758 260.949 653.578 260.949C654.695 260.949 655.592 261.297 656.269 261.993C656.951 262.689 657.292 263.712 657.292 265.061V272H655.169V265.317C655.169 264.526 654.963 263.908 654.551 263.463C654.139 263.013 653.573 262.788 652.853 262.788C652.115 262.788 651.506 263.027 651.028 263.506C650.55 263.979 650.311 264.652 650.311 265.523ZM664.158 272.213C663.277 272.213 662.494 271.988 661.807 271.538C661.121 271.089 660.581 270.442 660.188 269.599C659.795 268.752 659.598 267.741 659.598 266.567C659.598 265.388 659.795 264.379 660.188 263.541C660.585 262.703 661.13 262.062 661.821 261.616C662.513 261.171 663.296 260.949 664.172 260.949C664.849 260.949 665.394 261.062 665.806 261.29C666.222 261.512 666.544 261.773 666.772 262.071C667.004 262.369 667.183 262.632 667.311 262.859H667.439V257.455H669.563V272H667.489V270.303H667.311C667.183 270.535 666.999 270.8 666.757 271.098C666.521 271.396 666.194 271.657 665.777 271.879C665.361 272.102 664.821 272.213 664.158 272.213ZM664.627 270.402C665.545 270.402 666.248 270.047 666.736 269.337C667.228 268.622 667.475 267.691 667.475 266.545C667.475 265.404 667.231 264.488 666.743 263.797C666.26 263.101 665.555 262.753 664.627 262.753C663.987 262.753 663.455 262.919 663.029 263.25C662.603 263.581 662.281 264.034 662.063 264.607C661.85 265.175 661.743 265.821 661.743 266.545C661.743 267.275 661.852 267.93 662.07 268.513C662.288 269.095 662.61 269.557 663.036 269.898C663.467 270.234 663.997 270.402 664.627 270.402ZM679.097 276.062C678.78 276.062 678.491 276.039 678.23 275.991C677.97 275.944 677.776 275.89 677.648 275.828L678.159 274.088C678.742 274.249 679.23 274.261 679.622 274.124C680.02 273.991 680.354 273.572 680.624 272.866L680.887 272.142L676.895 261.091H679.168L681.931 269.557H682.044L684.807 261.091L687.101 261.112L682.591 273.456C682.279 274.299 681.836 274.943 681.263 275.388C680.695 275.838 679.973 276.062 679.097 276.062ZM693.241 272.22C692.218 272.22 691.326 271.986 690.563 271.517C689.801 271.048 689.209 270.393 688.788 269.55C688.366 268.702 688.156 267.717 688.156 266.595C688.156 265.464 688.366 264.474 688.788 263.626C689.209 262.779 689.801 262.121 690.563 261.652C691.326 261.183 692.218 260.949 693.241 260.949C694.268 260.949 695.161 261.183 695.918 261.652C696.681 262.121 697.273 262.779 697.694 263.626C698.115 264.474 698.326 265.464 698.326 266.595C698.326 267.717 698.115 268.702 697.694 269.55C697.273 270.393 696.681 271.048 695.918 271.517C695.161 271.986 694.268 272.22 693.241 272.22ZM693.248 270.438C693.916 270.438 694.465 270.262 694.896 269.912C695.331 269.562 695.653 269.095 695.862 268.513C696.075 267.926 696.181 267.284 696.181 266.588C696.181 265.892 696.075 265.25 695.862 264.663C695.653 264.076 695.331 263.607 694.896 263.257C694.465 262.902 693.916 262.724 693.248 262.724C692.58 262.724 692.029 262.902 691.593 263.257C691.157 263.607 690.833 264.076 690.62 264.663C690.407 265.25 690.3 265.892 690.3 266.588C690.3 267.284 690.407 267.926 690.62 268.513C690.833 269.095 691.157 269.562 691.593 269.912C692.029 270.262 692.58 270.438 693.248 270.438ZM707.541 267.476V261.091H709.672V272H707.584V270.111H707.47C707.219 270.693 706.816 271.179 706.263 271.567C705.713 271.95 705.029 272.142 704.21 272.142C703.164 272.142 702.304 271.796 701.632 271.105C700.964 270.409 700.63 269.384 700.63 268.03V261.091H702.754V267.774C702.754 268.518 702.96 269.109 703.372 269.55C703.784 269.99 704.319 270.21 704.977 270.21C705.375 270.21 705.77 270.111 706.163 269.912C706.561 269.713 706.89 269.412 707.15 269.01C707.415 268.603 707.546 268.091 707.541 267.476ZM712.459 272V261.091H714.512V262.824H714.625C714.824 262.237 715.174 261.775 715.676 261.439C716.183 261.098 716.756 260.928 717.395 260.928C717.532 260.928 717.691 260.932 717.871 260.942C718.051 260.951 718.193 260.963 718.297 260.977V263.009C718.212 262.985 718.06 262.959 717.842 262.93C717.629 262.897 717.412 262.881 717.189 262.881C716.436 262.881 715.814 263.113 715.321 263.577C714.829 264.036 714.583 264.623 714.583 265.338V272H712.459ZM725.466 272V257.455H727.59V262.859H727.718C727.845 262.632 728.023 262.369 728.25 262.071C728.482 261.773 728.804 261.512 729.216 261.29C729.633 261.062 730.177 260.949 730.85 260.949C731.73 260.949 732.514 261.171 733.201 261.616C733.892 262.062 734.436 262.703 734.834 263.541C735.232 264.379 735.431 265.388 735.431 266.567C735.431 267.741 735.234 268.752 734.841 269.599C734.448 270.442 733.908 271.089 733.222 271.538C732.535 271.988 731.752 272.213 730.871 272.213C730.208 272.213 729.668 272.102 729.252 271.879C728.835 271.657 728.506 271.396 728.264 271.098C728.028 270.8 727.845 270.535 727.718 270.303H727.54V272H725.466ZM727.547 266.545C727.547 267.691 727.793 268.622 728.286 269.337C728.778 270.047 729.481 270.402 730.395 270.402C731.03 270.402 731.56 270.234 731.986 269.898C732.417 269.557 732.741 269.095 732.959 268.513C733.177 267.93 733.286 267.275 733.286 266.545C733.286 265.821 733.177 265.175 732.959 264.607C732.746 264.034 732.426 263.581 732 263.25C731.574 262.919 731.039 262.753 730.395 262.753C729.467 262.753 728.759 263.101 728.272 263.797C727.789 264.488 727.547 265.404 727.547 266.545ZM737.749 272V261.091H739.802V262.824H739.915C740.114 262.237 740.465 261.775 740.967 261.439C741.473 261.098 742.046 260.928 742.685 260.928C742.823 260.928 742.981 260.932 743.161 260.942C743.341 260.951 743.483 260.963 743.587 260.977V263.009C743.502 262.985 743.351 262.959 743.133 262.93C742.92 262.897 742.702 262.881 742.479 262.881C741.727 262.881 741.104 263.113 740.611 263.577C740.119 264.036 739.873 264.623 739.873 265.338V272H737.749ZM745.359 272V261.091H747.483V272H745.359ZM746.431 259.408C746.062 259.408 745.745 259.285 745.48 259.038C745.219 258.787 745.089 258.489 745.089 258.143C745.089 257.793 745.219 257.495 745.48 257.249C745.745 256.998 746.062 256.872 746.431 256.872C746.796 256.872 747.111 256.998 747.376 257.249C747.641 257.495 747.774 257.793 747.774 258.143C747.774 258.489 747.641 258.787 747.376 259.038C747.111 259.285 746.796 259.408 746.431 259.408ZM754.975 272.22C753.905 272.22 752.982 271.988 752.205 271.524C751.429 271.06 750.83 270.409 750.408 269.571C749.992 268.728 749.783 267.743 749.783 266.616C749.783 265.499 749.992 264.514 750.408 263.662C750.83 262.81 751.417 262.144 752.17 261.666C752.927 261.188 753.813 260.949 754.826 260.949C755.65 260.949 756.429 261.134 757.163 261.503C757.901 261.867 758.5 262.452 758.96 263.257C759.424 264.057 759.656 265.116 759.656 266.432V267.185H751.9C751.928 268.236 752.224 269.045 752.788 269.614C753.351 270.182 754.087 270.466 754.996 270.466C755.603 270.466 756.126 270.336 756.566 270.075C757.006 269.815 757.321 269.427 757.511 268.911L759.521 269.273C759.279 270.158 758.758 270.871 757.958 271.411C757.158 271.95 756.164 272.22 754.975 272.22ZM751.907 265.594H757.575C757.57 264.76 757.319 264.071 756.822 263.527C756.325 262.978 755.664 262.703 754.84 262.703C754.267 262.703 753.765 262.838 753.335 263.108C752.908 263.373 752.57 263.726 752.319 264.166C752.073 264.602 751.935 265.078 751.907 265.594ZM767.138 261.091V262.795H764.787V272H762.656V262.795H760.973V261.091H762.656V259.827C762.656 259.145 762.805 258.579 763.103 258.129C763.406 257.675 763.804 257.336 764.297 257.114C764.789 256.886 765.322 256.773 765.895 256.773C766.325 256.773 766.692 256.808 766.995 256.879C767.299 256.946 767.523 257.007 767.67 257.064L767.173 258.783C767.074 258.75 766.946 258.714 766.79 258.676C766.633 258.638 766.444 258.619 766.221 258.619C765.705 258.619 765.336 258.747 765.113 259.003C764.896 259.259 764.787 259.628 764.787 260.111V261.091H767.138ZM777.664 272.241C776.973 272.241 776.348 272.114 775.789 271.858C775.235 271.602 774.795 271.228 774.468 270.736C774.142 270.239 773.978 269.633 773.978 268.918C773.978 268.297 774.097 267.788 774.333 267.391C774.575 266.993 774.894 266.678 775.292 266.446C775.695 266.214 776.144 266.041 776.642 265.928C777.139 265.809 777.645 265.719 778.161 265.658C778.815 265.582 779.343 265.52 779.745 265.473C780.152 265.421 780.448 265.338 780.633 265.224C780.822 265.111 780.917 264.926 780.917 264.67V264.621C780.917 264 780.742 263.52 780.392 263.179C780.046 262.838 779.53 262.668 778.843 262.668C778.128 262.668 777.565 262.824 777.153 263.136C776.746 263.449 776.464 263.799 776.308 264.188L774.312 263.733C774.667 262.739 775.259 262.026 776.088 261.595C776.921 261.164 777.83 260.949 778.815 260.949C779.25 260.949 779.712 261.001 780.2 261.105C780.687 261.205 781.147 261.392 781.578 261.666C782.013 261.936 782.366 262.32 782.636 262.817C782.91 263.314 783.048 263.96 783.048 264.756V272H780.974V270.509H780.889C780.685 270.916 780.323 271.306 779.802 271.68C779.281 272.054 778.569 272.241 777.664 272.241ZM778.126 270.537C778.718 270.537 779.222 270.421 779.639 270.189C780.055 269.957 780.373 269.654 780.59 269.28C780.813 268.901 780.924 268.496 780.924 268.065V266.659C780.825 266.759 780.607 266.846 780.271 266.922C779.935 266.998 779.58 267.062 779.205 267.114C778.831 267.166 778.528 267.208 778.296 267.241C777.681 267.322 777.153 267.485 776.713 267.732C776.277 267.973 776.059 268.378 776.059 268.946C776.059 269.472 776.253 269.869 776.642 270.139C777.03 270.404 777.525 270.537 778.126 270.537ZM787.934 265.523V272H785.81V261.091H787.849V262.866H787.984C788.235 262.289 788.627 261.825 789.163 261.474C789.702 261.124 790.382 260.949 791.201 260.949C792.318 260.949 793.216 261.297 793.893 261.993C794.574 262.689 794.915 263.712 794.915 265.061V272H792.792V265.317C792.792 264.526 792.586 263.908 792.174 263.463C791.762 263.013 791.196 262.788 790.476 262.788C789.738 262.788 789.129 263.027 788.651 263.506C788.173 263.979 787.934 264.652 787.934 265.523ZM801.781 272.213C800.901 272.213 800.117 271.988 799.43 271.538C798.744 271.089 798.204 270.442 797.811 269.599C797.418 268.752 797.222 267.741 797.222 266.567C797.222 265.388 797.418 264.379 797.811 263.541C798.209 262.703 798.753 262.062 799.445 261.616C800.136 261.171 800.919 260.949 801.795 260.949C802.472 260.949 803.017 261.062 803.429 261.29C803.846 261.512 804.168 261.773 804.395 262.071C804.627 262.369 804.807 262.632 804.935 262.859H805.062V257.455H807.186V272H805.112V270.303H804.935C804.807 270.535 804.622 270.8 804.381 271.098C804.144 271.396 803.817 271.657 803.401 271.879C802.984 272.102 802.444 272.213 801.781 272.213ZM802.25 270.402C803.168 270.402 803.872 270.047 804.359 269.337C804.852 268.622 805.098 267.691 805.098 266.545C805.098 265.404 804.854 264.488 804.366 263.797C803.883 263.101 803.178 262.753 802.25 262.753C801.611 262.753 801.078 262.919 800.652 263.25C800.226 263.581 799.904 264.034 799.686 264.607C799.473 265.175 799.366 265.821 799.366 266.545C799.366 267.275 799.475 267.93 799.693 268.513C799.911 269.095 800.233 269.557 800.659 269.898C801.09 270.234 801.62 270.402 802.25 270.402ZM820.47 261.091V262.795H818.233V268.797C818.233 269.412 818.363 269.81 818.624 269.99C818.889 270.165 819.194 270.253 819.54 270.253C819.71 270.253 819.859 270.241 819.987 270.217C820.115 270.194 820.215 270.175 820.286 270.161L820.669 271.915C820.546 271.962 820.368 272.009 820.136 272.057C819.909 272.109 819.627 272.137 819.291 272.142C818.733 272.152 818.209 272.052 817.722 271.844C817.239 271.635 816.848 271.313 816.55 270.878C816.256 270.442 816.109 269.895 816.109 269.237V262.795H814.511V261.091H816.109V258.477H818.233V261.091H820.47ZM827.338 272.22C826.268 272.22 825.344 271.988 824.568 271.524C823.791 271.06 823.192 270.409 822.771 269.571C822.354 268.728 822.146 267.743 822.146 266.616C822.146 265.499 822.354 264.514 822.771 263.662C823.192 262.81 823.78 262.144 824.532 261.666C825.29 261.188 826.175 260.949 827.189 260.949C828.013 260.949 828.791 261.134 829.525 261.503C830.264 261.867 830.863 262.452 831.322 263.257C831.786 264.057 832.018 265.116 832.018 266.432V267.185H824.263C824.291 268.236 824.587 269.045 825.15 269.614C825.714 270.182 826.45 270.466 827.359 270.466C827.965 270.466 828.488 270.336 828.929 270.075C829.369 269.815 829.684 269.427 829.873 268.911L831.883 269.273C831.642 270.158 831.121 270.871 830.321 271.411C829.521 271.95 828.526 272.22 827.338 272.22ZM824.27 265.594H829.937C829.933 264.76 829.682 264.071 829.184 263.527C828.687 262.978 828.027 262.703 827.203 262.703C826.63 262.703 826.128 262.838 825.697 263.108C825.271 263.373 824.933 263.726 824.682 264.166C824.435 264.602 824.298 265.078 824.27 265.594ZM836.432 257.455V272H834.308V257.455H836.432ZM841.346 257.455V272H839.223V257.455H841.346ZM850.707 276.062C850.389 276.062 850.101 276.039 849.84 275.991C849.58 275.944 849.386 275.89 849.258 275.828L849.769 274.088C850.352 274.249 850.839 274.261 851.232 274.124C851.63 273.991 851.964 273.572 852.234 272.866L852.496 272.142L848.505 261.091H850.778L853.54 269.557H853.654L856.417 261.091L858.711 261.112L854.201 273.456C853.888 274.299 853.446 274.943 852.873 275.388C852.305 275.838 851.583 276.062 850.707 276.062ZM864.85 272.22C863.828 272.22 862.935 271.986 862.173 271.517C861.411 271.048 860.819 270.393 860.397 269.55C859.976 268.702 859.765 267.717 859.765 266.595C859.765 265.464 859.976 264.474 860.397 263.626C860.819 262.779 861.411 262.121 862.173 261.652C862.935 261.183 863.828 260.949 864.85 260.949C865.878 260.949 866.77 261.183 867.528 261.652C868.29 262.121 868.882 262.779 869.304 263.626C869.725 264.474 869.936 265.464 869.936 266.595C869.936 267.717 869.725 268.702 869.304 269.55C868.882 270.393 868.29 271.048 867.528 271.517C866.77 271.986 865.878 272.22 864.85 272.22ZM864.858 270.438C865.525 270.438 866.074 270.262 866.505 269.912C866.941 269.562 867.263 269.095 867.471 268.513C867.684 267.926 867.791 267.284 867.791 266.588C867.791 265.892 867.684 265.25 867.471 264.663C867.263 264.076 866.941 263.607 866.505 263.257C866.074 262.902 865.525 262.724 864.858 262.724C864.19 262.724 863.638 262.902 863.203 263.257C862.767 263.607 862.443 264.076 862.23 264.663C862.017 265.25 861.91 265.892 861.91 266.588C861.91 267.284 862.017 267.926 862.23 268.513C862.443 269.095 862.767 269.562 863.203 269.912C863.638 270.262 864.19 270.438 864.858 270.438ZM879.151 267.476V261.091H881.281V272H879.193V270.111H879.08C878.829 270.693 878.426 271.179 877.872 271.567C877.323 271.95 876.639 272.142 875.82 272.142C874.773 272.142 873.914 271.796 873.242 271.105C872.574 270.409 872.24 269.384 872.24 268.03V261.091H874.364V267.774C874.364 268.518 874.57 269.109 874.982 269.55C875.394 269.99 875.929 270.21 876.587 270.21C876.984 270.21 877.38 270.111 877.773 269.912C878.171 269.713 878.5 269.412 878.76 269.01C879.025 268.603 879.155 268.091 879.151 267.476ZM884.069 272V261.091H886.121V262.824H886.235C886.434 262.237 886.784 261.775 887.286 261.439C887.793 261.098 888.366 260.928 889.005 260.928C889.142 260.928 889.301 260.932 889.481 260.942C889.66 260.951 889.803 260.963 889.907 260.977V263.009C889.821 262.985 889.67 262.959 889.452 262.93C889.239 262.897 889.021 262.881 888.799 262.881C888.046 262.881 887.423 263.113 886.931 263.577C886.438 264.036 886.192 264.623 886.192 265.338V272H884.069ZM896.905 276.091V261.091H898.979V262.859H899.157C899.285 262.632 899.462 262.369 899.689 262.071C899.921 261.773 900.243 261.512 900.655 261.29C901.072 261.062 901.617 260.949 902.289 260.949C903.17 260.949 903.953 261.171 904.64 261.616C905.331 262.062 905.876 262.703 906.273 263.541C906.671 264.379 906.87 265.388 906.87 266.567C906.87 267.741 906.673 268.752 906.28 269.599C905.887 270.442 905.348 271.089 904.661 271.538C903.974 271.988 903.191 272.213 902.31 272.213C901.647 272.213 901.108 272.102 900.691 271.879C900.274 271.657 899.945 271.396 899.704 271.098C899.467 270.8 899.285 270.535 899.157 270.303H899.029V276.091H896.905ZM898.986 266.545C898.986 267.691 899.233 268.622 899.725 269.337C900.217 270.047 900.921 270.402 901.834 270.402C902.469 270.402 902.999 270.234 903.425 269.898C903.856 269.557 904.18 269.095 904.398 268.513C904.616 267.93 904.725 267.275 904.725 266.545C904.725 265.821 904.616 265.175 904.398 264.607C904.185 264.034 903.866 263.581 903.439 263.25C903.013 262.919 902.478 262.753 901.834 262.753C900.906 262.753 900.198 263.101 899.711 263.797C899.228 264.488 898.986 265.404 898.986 266.545ZM909.183 272V261.091H911.236V262.824H911.349C911.548 262.237 911.899 261.775 912.4 261.439C912.907 261.098 913.48 260.928 914.119 260.928C914.257 260.928 914.415 260.932 914.595 260.942C914.775 260.951 914.917 260.963 915.021 260.977V263.009C914.936 262.985 914.784 262.959 914.567 262.93C914.354 262.897 914.136 262.881 913.913 262.881C913.16 262.881 912.538 263.113 912.045 263.577C911.553 264.036 911.307 264.623 911.307 265.338V272H909.183ZM920.997 272.22C919.975 272.22 919.082 271.986 918.32 271.517C917.558 271.048 916.966 270.393 916.544 269.55C916.123 268.702 915.912 267.717 915.912 266.595C915.912 265.464 916.123 264.474 916.544 263.626C916.966 262.779 917.558 262.121 918.32 261.652C919.082 261.183 919.975 260.949 920.997 260.949C922.025 260.949 922.917 261.183 923.675 261.652C924.437 262.121 925.029 262.779 925.451 263.626C925.872 264.474 926.083 265.464 926.083 266.595C926.083 267.717 925.872 268.702 925.451 269.55C925.029 270.393 924.437 271.048 923.675 271.517C922.917 271.986 922.025 272.22 920.997 272.22ZM921.005 270.438C921.672 270.438 922.221 270.262 922.652 269.912C923.088 269.562 923.41 269.095 923.618 268.513C923.831 267.926 923.938 267.284 923.938 266.588C923.938 265.892 923.831 265.25 923.618 264.663C923.41 264.076 923.088 263.607 922.652 263.257C922.221 262.902 921.672 262.724 921.005 262.724C920.337 262.724 919.785 262.902 919.35 263.257C918.914 263.607 918.59 264.076 918.377 264.663C918.164 265.25 918.057 265.892 918.057 266.588C918.057 267.284 918.164 267.926 918.377 268.513C918.59 269.095 918.914 269.562 919.35 269.912C919.785 270.262 920.337 270.438 921.005 270.438ZM928.387 261.091H930.511V272.696C930.511 273.79 930.215 274.63 929.623 275.217C929.036 275.804 928.172 276.091 927.031 276.077H926.619V274.244C926.685 274.249 926.744 274.251 926.796 274.251C926.843 274.251 926.898 274.251 926.96 274.251C927.466 274.251 927.831 274.116 928.053 273.847C928.276 273.577 928.387 273.188 928.387 272.682V261.091ZM929.438 259.408C929.069 259.408 928.752 259.285 928.486 259.038C928.226 258.787 928.096 258.489 928.096 258.143C928.096 257.793 928.226 257.495 928.486 257.249C928.752 256.998 929.069 256.872 929.438 256.872C929.803 256.872 930.118 256.998 930.383 257.249C930.648 257.495 930.781 257.793 930.781 258.143C930.781 258.489 930.648 258.787 930.383 259.038C930.118 259.285 929.803 259.408 929.438 259.408ZM938.003 272.22C936.933 272.22 936.01 271.988 935.233 271.524C934.457 271.06 933.858 270.409 933.436 269.571C933.02 268.728 932.811 267.743 932.811 266.616C932.811 265.499 933.02 264.514 933.436 263.662C933.858 262.81 934.445 262.144 935.198 261.666C935.955 261.188 936.841 260.949 937.854 260.949C938.678 260.949 939.457 261.134 940.191 261.503C940.929 261.867 941.528 262.452 941.988 263.257C942.452 264.057 942.684 265.116 942.684 266.432V267.185H934.928C934.956 268.236 935.252 269.045 935.816 269.614C936.379 270.182 937.115 270.466 938.025 270.466C938.631 270.466 939.154 270.336 939.594 270.075C940.035 269.815 940.349 269.427 940.539 268.911L942.549 269.273C942.307 270.158 941.786 270.871 940.986 271.411C940.186 271.95 939.192 272.22 938.003 272.22ZM934.935 265.594H940.603C940.598 264.76 940.347 264.071 939.85 263.527C939.353 262.978 938.692 262.703 937.868 262.703C937.295 262.703 936.794 262.838 936.363 263.108C935.936 263.373 935.598 263.726 935.347 264.166C935.101 264.602 934.963 265.078 934.935 265.594ZM949.569 272.22C948.513 272.22 947.604 271.981 946.842 271.503C946.084 271.02 945.502 270.355 945.095 269.507C944.687 268.66 944.484 267.689 944.484 266.595C944.484 265.482 944.692 264.502 945.109 263.655C945.525 262.807 946.113 262.144 946.87 261.666C947.632 261.188 948.525 260.949 949.548 260.949C950.376 260.949 951.115 261.103 951.764 261.411C952.412 261.714 952.935 262.14 953.333 262.689C953.736 263.238 953.975 263.88 954.051 264.614H951.984C951.87 264.102 951.61 263.662 951.203 263.293C950.8 262.923 950.26 262.739 949.583 262.739C948.698 262.739 947.983 263.082 947.438 263.768C946.899 264.45 946.629 265.376 946.629 266.545C946.629 267.734 946.896 268.679 947.431 269.379C947.966 270.075 948.684 270.423 949.583 270.423C950.189 270.423 950.708 270.258 951.139 269.926C951.569 269.595 951.851 269.135 951.984 268.548H954.051C953.975 269.254 953.745 269.884 953.362 270.438C952.978 270.991 952.464 271.427 951.82 271.744C951.181 272.062 950.431 272.22 949.569 272.22ZM961.348 261.091V262.795H959.111V268.797C959.111 269.412 959.241 269.81 959.501 269.99C959.766 270.165 960.072 270.253 960.417 270.253C960.588 270.253 960.737 270.241 960.865 270.217C960.993 270.194 961.092 270.175 961.163 270.161L961.547 271.915C961.424 271.962 961.246 272.009 961.014 272.057C960.787 272.109 960.505 272.137 960.169 272.142C959.61 272.152 959.087 272.052 958.599 271.844C958.116 271.635 957.726 271.313 957.427 270.878C957.134 270.442 956.987 269.895 956.987 269.237V262.795H955.389V261.091H956.987V258.477H959.111V261.091H961.348ZM973.95 261.091V262.795H971.713V268.797C971.713 269.412 971.843 269.81 972.104 269.99C972.369 270.165 972.674 270.253 973.02 270.253C973.19 270.253 973.339 270.241 973.467 270.217C973.595 270.194 973.695 270.175 973.766 270.161L974.149 271.915C974.026 271.962 973.848 272.009 973.616 272.057C973.389 272.109 973.107 272.137 972.771 272.142C972.212 272.152 971.689 272.052 971.202 271.844C970.719 271.635 970.328 271.313 970.03 270.878C969.736 270.442 969.589 269.895 969.589 269.237V262.795H967.991V261.091H969.589V258.477H971.713V261.091H973.95ZM980.711 272.22C979.689 272.22 978.796 271.986 978.034 271.517C977.271 271.048 976.68 270.393 976.258 269.55C975.837 268.702 975.626 267.717 975.626 266.595C975.626 265.464 975.837 264.474 976.258 263.626C976.68 262.779 977.271 262.121 978.034 261.652C978.796 261.183 979.689 260.949 980.711 260.949C981.739 260.949 982.631 261.183 983.389 261.652C984.151 262.121 984.743 262.779 985.164 263.626C985.586 264.474 985.796 265.464 985.796 266.595C985.796 267.717 985.586 268.702 985.164 269.55C984.743 270.393 984.151 271.048 983.389 271.517C982.631 271.986 981.739 272.22 980.711 272.22ZM980.718 270.438C981.386 270.438 981.935 270.262 982.366 269.912C982.802 269.562 983.124 269.095 983.332 268.513C983.545 267.926 983.652 267.284 983.652 266.588C983.652 265.892 983.545 265.25 983.332 264.663C983.124 264.076 982.802 263.607 982.366 263.257C981.935 262.902 981.386 262.724 980.718 262.724C980.051 262.724 979.499 262.902 979.064 263.257C978.628 263.607 978.304 264.076 978.09 264.663C977.877 265.25 977.771 265.892 977.771 266.588C977.771 267.284 977.877 267.926 978.09 268.513C978.304 269.095 978.628 269.562 979.064 269.912C979.499 270.262 980.051 270.438 980.718 270.438ZM992.696 272.22C991.673 272.22 990.781 271.986 990.018 271.517C989.256 271.048 988.664 270.393 988.243 269.55C987.821 268.702 987.611 267.717 987.611 266.595C987.611 265.464 987.821 264.474 988.243 263.626C988.664 262.779 989.256 262.121 990.018 261.652C990.781 261.183 991.673 260.949 992.696 260.949C993.723 260.949 994.616 261.183 995.374 261.652C996.136 262.121 996.728 262.779 997.149 263.626C997.571 264.474 997.781 265.464 997.781 266.595C997.781 267.717 997.571 268.702 997.149 269.55C996.728 270.393 996.136 271.048 995.374 271.517C994.616 271.986 993.723 272.22 992.696 272.22ZM992.703 270.438C993.371 270.438 993.92 270.262 994.351 269.912C994.786 269.562 995.108 269.095 995.317 268.513C995.53 267.926 995.636 267.284 995.636 266.588C995.636 265.892 995.53 265.25 995.317 264.663C995.108 264.076 994.786 263.607 994.351 263.257C993.92 262.902 993.371 262.724 992.703 262.724C992.035 262.724 991.484 262.902 991.048 263.257C990.613 263.607 990.288 264.076 990.075 264.663C989.862 265.25 989.756 265.892 989.756 266.588C989.756 267.284 989.862 267.926 990.075 268.513C990.288 269.095 990.613 269.562 991.048 269.912C991.484 270.262 992.035 270.438 992.703 270.438ZM1001.48 272.135C1001.1 272.135 1000.76 271.998 1000.48 271.723C1000.2 271.444 1000.06 271.107 1000.06 270.714C1000.06 270.326 1000.2 269.995 1000.48 269.72C1000.76 269.441 1001.1 269.301 1001.48 269.301C1001.87 269.301 1002.21 269.441 1002.49 269.72C1002.77 269.995 1002.91 270.326 1002.91 270.714C1002.91 271.107 1002.77 271.444 1002.49 271.723C1002.21 271.998 1001.87 272.135 1001.48 272.135ZM1013.04 257.455V272H1010.85V257.455H1013.04ZM1024.4 272.241C1023.71 272.241 1023.09 272.114 1022.53 271.858C1021.97 271.602 1021.53 271.228 1021.21 270.736C1020.88 270.239 1020.72 269.633 1020.72 268.918C1020.72 268.297 1020.83 267.788 1021.07 267.391C1021.31 266.993 1021.63 266.678 1022.03 266.446C1022.43 266.214 1022.88 266.041 1023.38 265.928C1023.88 265.809 1024.38 265.719 1024.9 265.658C1025.55 265.582 1026.08 265.52 1026.48 265.473C1026.89 265.421 1027.19 265.338 1027.37 265.224C1027.56 265.111 1027.66 264.926 1027.66 264.67V264.621C1027.66 264 1027.48 263.52 1027.13 263.179C1026.78 262.838 1026.27 262.668 1025.58 262.668C1024.87 262.668 1024.3 262.824 1023.89 263.136C1023.48 263.449 1023.2 263.799 1023.05 264.188L1021.05 263.733C1021.41 262.739 1022 262.026 1022.83 261.595C1023.66 261.164 1024.57 260.949 1025.55 260.949C1025.99 260.949 1026.45 261.001 1026.94 261.105C1027.43 261.205 1027.89 261.392 1028.32 261.666C1028.75 261.936 1029.1 262.32 1029.37 262.817C1029.65 263.314 1029.79 263.96 1029.79 264.756V272H1027.71V270.509H1027.63C1027.42 270.916 1027.06 271.306 1026.54 271.68C1026.02 272.054 1025.31 272.241 1024.4 272.241ZM1024.86 270.537C1025.46 270.537 1025.96 270.421 1026.38 270.189C1026.79 269.957 1027.11 269.654 1027.33 269.28C1027.55 268.901 1027.66 268.496 1027.66 268.065V266.659C1027.56 266.759 1027.35 266.846 1027.01 266.922C1026.67 266.998 1026.32 267.062 1025.94 267.114C1025.57 267.166 1025.27 267.208 1025.03 267.241C1024.42 267.322 1023.89 267.485 1023.45 267.732C1023.02 267.973 1022.8 268.378 1022.8 268.946C1022.8 269.472 1022.99 269.869 1023.38 270.139C1023.77 270.404 1024.26 270.537 1024.86 270.537ZM1032.55 272V261.091H1034.59V262.866H1034.72C1034.95 262.265 1035.32 261.796 1035.84 261.46C1036.35 261.119 1036.97 260.949 1037.69 260.949C1038.42 260.949 1039.03 261.119 1039.52 261.46C1040.02 261.801 1040.39 262.27 1040.62 262.866H1040.74C1041 262.284 1041.42 261.82 1041.98 261.474C1042.55 261.124 1043.23 260.949 1044.01 260.949C1045 260.949 1045.81 261.261 1046.43 261.886C1047.06 262.507 1047.38 263.439 1047.38 264.685V272H1045.25V264.884C1045.25 264.145 1045.05 263.61 1044.65 263.278C1044.25 262.947 1043.77 262.781 1043.21 262.781C1042.52 262.781 1041.98 262.994 1041.6 263.42C1041.21 263.847 1041.02 264.389 1041.02 265.047V272H1038.91V264.749C1038.91 264.157 1038.72 263.681 1038.35 263.321C1037.98 262.961 1037.5 262.781 1036.91 262.781C1036.31 262.781 1035.78 263.013 1035.34 263.477C1034.89 263.941 1034.67 264.54 1034.67 265.274V272H1032.55ZM1055.39 272V261.091H1057.44V262.824H1057.55C1057.75 262.237 1058.1 261.775 1058.6 261.439C1059.11 261.098 1059.68 260.928 1060.32 260.928C1060.46 260.928 1060.62 260.932 1060.8 260.942C1060.98 260.951 1061.12 260.963 1061.22 260.977V263.009C1061.14 262.985 1060.99 262.959 1060.77 262.93C1060.56 262.897 1060.34 262.881 1060.12 262.881C1059.36 262.881 1058.74 263.113 1058.25 263.577C1057.76 264.036 1057.51 264.623 1057.51 265.338V272H1055.39ZM1067.31 272.22C1066.24 272.22 1065.31 271.988 1064.54 271.524C1063.76 271.06 1063.16 270.409 1062.74 269.571C1062.32 268.728 1062.11 267.743 1062.11 266.616C1062.11 265.499 1062.32 264.514 1062.74 263.662C1063.16 262.81 1063.75 262.144 1064.5 261.666C1065.26 261.188 1066.14 260.949 1067.16 260.949C1067.98 260.949 1068.76 261.134 1069.49 261.503C1070.23 261.867 1070.83 262.452 1071.29 263.257C1071.75 264.057 1071.99 265.116 1071.99 266.432V267.185H1064.23C1064.26 268.236 1064.56 269.045 1065.12 269.614C1065.68 270.182 1066.42 270.466 1067.33 270.466C1067.93 270.466 1068.46 270.336 1068.9 270.075C1069.34 269.815 1069.65 269.427 1069.84 268.911L1071.85 269.273C1071.61 270.158 1071.09 270.871 1070.29 271.411C1069.49 271.95 1068.49 272.22 1067.31 272.22ZM1064.24 265.594H1069.91C1069.9 264.76 1069.65 264.071 1069.15 263.527C1068.66 262.978 1068 262.703 1067.17 262.703C1066.6 262.703 1066.1 262.838 1065.67 263.108C1065.24 263.373 1064.9 263.726 1064.65 264.166C1064.4 264.602 1064.27 265.078 1064.24 265.594ZM1077.45 272.241C1076.76 272.241 1076.14 272.114 1075.58 271.858C1075.02 271.602 1074.58 271.228 1074.26 270.736C1073.93 270.239 1073.77 269.633 1073.77 268.918C1073.77 268.297 1073.88 267.788 1074.12 267.391C1074.36 266.993 1074.68 266.678 1075.08 266.446C1075.48 266.214 1075.93 266.041 1076.43 265.928C1076.93 265.809 1077.43 265.719 1077.95 265.658C1078.6 265.582 1079.13 265.52 1079.53 265.473C1079.94 265.421 1080.24 265.338 1080.42 265.224C1080.61 265.111 1080.7 264.926 1080.7 264.67V264.621C1080.7 264 1080.53 263.52 1080.18 263.179C1079.83 262.838 1079.32 262.668 1078.63 262.668C1077.92 262.668 1077.35 262.824 1076.94 263.136C1076.53 263.449 1076.25 263.799 1076.09 264.188L1074.1 263.733C1074.45 262.739 1075.05 262.026 1075.87 261.595C1076.71 261.164 1077.62 260.949 1078.6 260.949C1079.04 260.949 1079.5 261.001 1079.99 261.105C1080.47 261.205 1080.93 261.392 1081.36 261.666C1081.8 261.936 1082.15 262.32 1082.42 262.817C1082.7 263.314 1082.84 263.96 1082.84 264.756V272H1080.76V270.509H1080.68C1080.47 270.916 1080.11 271.306 1079.59 271.68C1079.07 272.054 1078.36 272.241 1077.45 272.241ZM1077.91 270.537C1078.51 270.537 1079.01 270.421 1079.43 270.189C1079.84 269.957 1080.16 269.654 1080.38 269.28C1080.6 268.901 1080.71 268.496 1080.71 268.065V266.659C1080.61 266.759 1080.39 266.846 1080.06 266.922C1079.72 266.998 1079.37 267.062 1078.99 267.114C1078.62 267.166 1078.32 267.208 1078.08 267.241C1077.47 267.322 1076.94 267.485 1076.5 267.732C1076.06 267.973 1075.85 268.378 1075.85 268.946C1075.85 269.472 1076.04 269.869 1076.43 270.139C1076.82 270.404 1077.31 270.537 1077.91 270.537ZM1089.68 272.213C1088.8 272.213 1088.02 271.988 1087.33 271.538C1086.64 271.089 1086.1 270.442 1085.71 269.599C1085.32 268.752 1085.12 267.741 1085.12 266.567C1085.12 265.388 1085.32 264.379 1085.71 263.541C1086.11 262.703 1086.65 262.062 1087.34 261.616C1088.04 261.171 1088.82 260.949 1089.7 260.949C1090.37 260.949 1090.92 261.062 1091.33 261.29C1091.75 261.512 1092.07 261.773 1092.29 262.071C1092.53 262.369 1092.71 262.632 1092.83 262.859H1092.96V257.455H1095.09V272H1093.01V270.303H1092.83C1092.71 270.535 1092.52 270.8 1092.28 271.098C1092.04 271.396 1091.72 271.657 1091.3 271.879C1090.88 272.102 1090.34 272.213 1089.68 272.213ZM1090.15 270.402C1091.07 270.402 1091.77 270.047 1092.26 269.337C1092.75 268.622 1093 267.691 1093 266.545C1093 265.404 1092.75 264.488 1092.27 263.797C1091.78 263.101 1091.08 262.753 1090.15 262.753C1089.51 262.753 1088.98 262.919 1088.55 263.25C1088.13 263.581 1087.8 264.034 1087.59 264.607C1087.37 265.175 1087.27 265.821 1087.27 266.545C1087.27 267.275 1087.38 267.93 1087.59 268.513C1087.81 269.095 1088.13 269.557 1088.56 269.898C1088.99 270.234 1089.52 270.402 1090.15 270.402ZM1099.39 276.062C1099.08 276.062 1098.79 276.039 1098.53 275.991C1098.27 275.944 1098.07 275.89 1097.94 275.828L1098.46 274.088C1099.04 274.249 1099.53 274.261 1099.92 274.124C1100.32 273.991 1100.65 273.572 1100.92 272.866L1101.18 272.142L1097.19 261.091H1099.46L1102.23 269.557H1102.34L1105.1 261.091L1107.4 261.112L1102.89 273.456C1102.58 274.299 1102.13 274.943 1101.56 275.388C1100.99 275.838 1100.27 276.062 1099.39 276.062ZM1119.65 261.091V262.795H1117.41V268.797C1117.41 269.412 1117.54 269.81 1117.81 269.99C1118.07 270.165 1118.38 270.253 1118.72 270.253C1118.89 270.253 1119.04 270.241 1119.17 270.217C1119.3 270.194 1119.4 270.175 1119.47 270.161L1119.85 271.915C1119.73 271.962 1119.55 272.009 1119.32 272.057C1119.09 272.109 1118.81 272.137 1118.47 272.142C1117.91 272.152 1117.39 272.052 1116.9 271.844C1116.42 271.635 1116.03 271.313 1115.73 270.878C1115.44 270.442 1115.29 269.895 1115.29 269.237V262.795H1113.69V261.091H1115.29V258.477H1117.41V261.091H1119.65ZM1126.41 272.22C1125.39 272.22 1124.5 271.986 1123.74 271.517C1122.97 271.048 1122.38 270.393 1121.96 269.55C1121.54 268.702 1121.33 267.717 1121.33 266.595C1121.33 265.464 1121.54 264.474 1121.96 263.626C1122.38 262.779 1122.97 262.121 1123.74 261.652C1124.5 261.183 1125.39 260.949 1126.41 260.949C1127.44 260.949 1128.33 261.183 1129.09 261.652C1129.85 262.121 1130.44 262.779 1130.87 263.626C1131.29 264.474 1131.5 265.464 1131.5 266.595C1131.5 267.717 1131.29 268.702 1130.87 269.55C1130.44 270.393 1129.85 271.048 1129.09 271.517C1128.33 271.986 1127.44 272.22 1126.41 272.22ZM1126.42 270.438C1127.09 270.438 1127.64 270.262 1128.07 269.912C1128.5 269.562 1128.83 269.095 1129.03 268.513C1129.25 267.926 1129.35 267.284 1129.35 266.588C1129.35 265.892 1129.25 265.25 1129.03 264.663C1128.83 264.076 1128.5 263.607 1128.07 263.257C1127.64 262.902 1127.09 262.724 1126.42 262.724C1125.75 262.724 1125.2 262.902 1124.77 263.257C1124.33 263.607 1124.01 264.076 1123.79 264.663C1123.58 265.25 1123.47 265.892 1123.47 266.588C1123.47 267.284 1123.58 267.926 1123.79 268.513C1124.01 269.095 1124.33 269.562 1124.77 269.912C1125.2 270.262 1125.75 270.438 1126.42 270.438ZM1141.15 265.523V272H1139.03V257.455H1141.12V262.866H1141.26C1141.52 262.275 1141.91 261.808 1142.43 261.467C1142.96 261.122 1143.64 260.949 1144.49 260.949C1145.61 260.949 1146.52 261.295 1147.2 261.986C1147.88 262.677 1148.23 263.702 1148.23 265.061V272H1146.1V265.317C1146.1 264.517 1145.9 263.896 1145.49 263.456C1145.07 263.011 1144.5 262.788 1143.77 262.788C1143.01 262.788 1142.38 263.027 1141.89 263.506C1141.4 263.979 1141.15 264.652 1141.15 265.523ZM1155.7 272.22C1154.63 272.22 1153.7 271.988 1152.93 271.524C1152.15 271.06 1151.55 270.409 1151.13 269.571C1150.71 268.728 1150.5 267.743 1150.5 266.616C1150.5 265.499 1150.71 264.514 1151.13 263.662C1151.55 262.81 1152.14 262.144 1152.89 261.666C1153.65 261.188 1154.53 260.949 1155.55 260.949C1156.37 260.949 1157.15 261.134 1157.88 261.503C1158.62 261.867 1159.22 262.452 1159.68 263.257C1160.14 264.057 1160.38 265.116 1160.38 266.432V267.185H1152.62C1152.65 268.236 1152.95 269.045 1153.51 269.614C1154.07 270.182 1154.81 270.466 1155.72 270.466C1156.32 270.466 1156.85 270.336 1157.29 270.075C1157.73 269.815 1158.04 269.427 1158.23 268.911L1160.24 269.273C1160 270.158 1159.48 270.871 1158.68 271.411C1157.88 271.95 1156.89 272.22 1155.7 272.22ZM1152.63 265.594H1158.3C1158.29 264.76 1158.04 264.071 1157.54 263.527C1157.05 262.978 1156.39 262.703 1155.56 262.703C1154.99 262.703 1154.49 262.838 1154.06 263.108C1153.63 263.373 1153.29 263.726 1153.04 264.166C1152.79 264.602 1152.66 265.078 1152.63 265.594ZM1164.79 257.455V272H1162.67V257.455H1164.79ZM1167.58 276.091V261.091H1169.66V262.859H1169.83C1169.96 262.632 1170.14 262.369 1170.37 262.071C1170.6 261.773 1170.92 261.512 1171.33 261.29C1171.75 261.062 1172.29 260.949 1172.97 260.949C1173.85 260.949 1174.63 261.171 1175.32 261.616C1176.01 262.062 1176.55 262.703 1176.95 263.541C1177.35 264.379 1177.55 265.388 1177.55 266.567C1177.55 267.741 1177.35 268.752 1176.96 269.599C1176.56 270.442 1176.02 271.089 1175.34 271.538C1174.65 271.988 1173.87 272.213 1172.99 272.213C1172.32 272.213 1171.78 272.102 1171.37 271.879C1170.95 271.657 1170.62 271.396 1170.38 271.098C1170.14 270.8 1169.96 270.535 1169.83 270.303H1169.71V276.091H1167.58ZM1169.66 266.545C1169.66 267.691 1169.91 268.622 1170.4 269.337C1170.89 270.047 1171.6 270.402 1172.51 270.402C1173.15 270.402 1173.68 270.234 1174.1 269.898C1174.53 269.557 1174.86 269.095 1175.07 268.513C1175.29 267.93 1175.4 267.275 1175.4 266.545C1175.4 265.821 1175.29 265.175 1175.07 264.607C1174.86 264.034 1174.54 263.581 1174.12 263.25C1173.69 262.919 1173.15 262.753 1172.51 262.753C1171.58 262.753 1170.87 263.101 1170.39 263.797C1169.9 264.488 1169.66 265.404 1169.66 266.545ZM1188.26 272.241C1187.57 272.241 1186.94 272.114 1186.39 271.858C1185.83 271.602 1185.39 271.228 1185.07 270.736C1184.74 270.239 1184.58 269.633 1184.58 268.918C1184.58 268.297 1184.69 267.788 1184.93 267.391C1185.17 266.993 1185.49 266.678 1185.89 266.446C1186.29 266.214 1186.74 266.041 1187.24 265.928C1187.74 265.809 1188.24 265.719 1188.76 265.658C1189.41 265.582 1189.94 265.52 1190.34 265.473C1190.75 265.421 1191.05 265.338 1191.23 265.224C1191.42 265.111 1191.51 264.926 1191.51 264.67V264.621C1191.51 264 1191.34 263.52 1190.99 263.179C1190.64 262.838 1190.13 262.668 1189.44 262.668C1188.73 262.668 1188.16 262.824 1187.75 263.136C1187.34 263.449 1187.06 263.799 1186.9 264.188L1184.91 263.733C1185.26 262.739 1185.86 262.026 1186.68 261.595C1187.52 261.164 1188.43 260.949 1189.41 260.949C1189.85 260.949 1190.31 261.001 1190.8 261.105C1191.28 261.205 1191.74 261.392 1192.17 261.666C1192.61 261.936 1192.96 262.32 1193.23 262.817C1193.51 263.314 1193.64 263.96 1193.64 264.756V272H1191.57V270.509H1191.49C1191.28 270.916 1190.92 271.306 1190.4 271.68C1189.88 272.054 1189.17 272.241 1188.26 272.241ZM1188.72 270.537C1189.31 270.537 1189.82 270.421 1190.24 270.189C1190.65 269.957 1190.97 269.654 1191.19 269.28C1191.41 268.901 1191.52 268.496 1191.52 268.065V266.659C1191.42 266.759 1191.2 266.846 1190.87 266.922C1190.53 266.998 1190.18 267.062 1189.8 267.114C1189.43 267.166 1189.13 267.208 1188.89 267.241C1188.28 267.322 1187.75 267.485 1187.31 267.732C1186.87 267.973 1186.66 268.378 1186.66 268.946C1186.66 269.472 1186.85 269.869 1187.24 270.139C1187.63 270.404 1188.12 270.537 1188.72 270.537ZM1198.53 257.455V272H1196.41V257.455H1198.53ZM1203.45 257.455V272H1201.32V257.455H1203.45ZM1212.81 276.062C1212.49 276.062 1212.2 276.039 1211.94 275.991C1211.68 275.944 1211.48 275.89 1211.36 275.828L1211.87 274.088C1212.45 274.249 1212.94 274.261 1213.33 274.124C1213.73 273.991 1214.06 273.572 1214.33 272.866L1214.6 272.142L1210.6 261.091H1212.88L1215.64 269.557H1215.75L1218.52 261.091L1220.81 261.112L1216.3 273.456C1215.99 274.299 1215.54 274.943 1214.97 275.388C1214.4 275.838 1213.68 276.062 1212.81 276.062ZM1226.95 272.22C1225.93 272.22 1225.03 271.986 1224.27 271.517C1223.51 271.048 1222.92 270.393 1222.5 269.55C1222.07 268.702 1221.86 267.717 1221.86 266.595C1221.86 265.464 1222.07 264.474 1222.5 263.626C1222.92 262.779 1223.51 262.121 1224.27 261.652C1225.03 261.183 1225.93 260.949 1226.95 260.949C1227.98 260.949 1228.87 261.183 1229.63 261.652C1230.39 262.121 1230.98 262.779 1231.4 263.626C1231.82 264.474 1232.03 265.464 1232.03 266.595C1232.03 267.717 1231.82 268.702 1231.4 269.55C1230.98 270.393 1230.39 271.048 1229.63 271.517C1228.87 271.986 1227.98 272.22 1226.95 272.22ZM1226.96 270.438C1227.62 270.438 1228.17 270.262 1228.6 269.912C1229.04 269.562 1229.36 269.095 1229.57 268.513C1229.78 267.926 1229.89 267.284 1229.89 266.588C1229.89 265.892 1229.78 265.25 1229.57 264.663C1229.36 264.076 1229.04 263.607 1228.6 263.257C1228.17 262.902 1227.62 262.724 1226.96 262.724C1226.29 262.724 1225.74 262.902 1225.3 263.257C1224.87 263.607 1224.54 264.076 1224.33 264.663C1224.12 265.25 1224.01 265.892 1224.01 266.588C1224.01 267.284 1224.12 267.926 1224.33 268.513C1224.54 269.095 1224.87 269.562 1225.3 269.912C1225.74 270.262 1226.29 270.438 1226.96 270.438ZM1241.25 267.476V261.091H1243.38V272H1241.29V270.111H1241.18C1240.93 270.693 1240.52 271.179 1239.97 271.567C1239.42 271.95 1238.74 272.142 1237.92 272.142C1236.87 272.142 1236.01 271.796 1235.34 271.105C1234.67 270.409 1234.34 269.384 1234.34 268.03V261.091H1236.46V267.774C1236.46 268.518 1236.67 269.109 1237.08 269.55C1237.49 269.99 1238.03 270.21 1238.69 270.21C1239.08 270.21 1239.48 270.111 1239.87 269.912C1240.27 269.713 1240.6 269.412 1240.86 269.01C1241.12 268.603 1241.25 268.091 1241.25 267.476ZM1253.52 265.523V272H1251.39V261.091H1253.43V262.866H1253.57C1253.82 262.289 1254.21 261.825 1254.75 261.474C1255.29 261.124 1255.97 260.949 1256.78 260.949C1257.9 260.949 1258.8 261.297 1259.48 261.993C1260.16 262.689 1260.5 263.712 1260.5 265.061V272H1258.38V265.317C1258.38 264.526 1258.17 263.908 1257.76 263.463C1257.35 263.013 1256.78 262.788 1256.06 262.788C1255.32 262.788 1254.71 263.027 1254.24 263.506C1253.76 263.979 1253.52 264.652 1253.52 265.523ZM1267.98 272.22C1266.91 272.22 1265.99 271.988 1265.21 271.524C1264.44 271.06 1263.84 270.409 1263.42 269.571C1263 268.728 1262.79 267.743 1262.79 266.616C1262.79 265.499 1263 264.514 1263.42 263.662C1263.84 262.81 1264.42 262.144 1265.18 261.666C1265.94 261.188 1266.82 260.949 1267.83 260.949C1268.66 260.949 1269.44 261.134 1270.17 261.503C1270.91 261.867 1271.51 262.452 1271.97 263.257C1272.43 264.057 1272.66 265.116 1272.66 266.432V267.185H1264.91C1264.94 268.236 1265.23 269.045 1265.8 269.614C1266.36 270.182 1267.1 270.466 1268 270.466C1268.61 270.466 1269.13 270.336 1269.57 270.075C1270.01 269.815 1270.33 269.427 1270.52 268.911L1272.53 269.273C1272.29 270.158 1271.77 270.871 1270.97 271.411C1270.17 271.95 1269.17 272.22 1267.98 272.22ZM1264.91 265.594H1270.58C1270.58 264.76 1270.33 264.071 1269.83 263.527C1269.33 262.978 1268.67 262.703 1267.85 262.703C1267.28 262.703 1266.77 262.838 1266.34 263.108C1265.92 263.373 1265.58 263.726 1265.33 264.166C1265.08 264.602 1264.94 265.078 1264.91 265.594ZM1279.66 272.22C1278.59 272.22 1277.66 271.988 1276.89 271.524C1276.11 271.06 1275.51 270.409 1275.09 269.571C1274.67 268.728 1274.46 267.743 1274.46 266.616C1274.46 265.499 1274.67 264.514 1275.09 263.662C1275.51 262.81 1276.1 262.144 1276.85 261.666C1277.61 261.188 1278.49 260.949 1279.51 260.949C1280.33 260.949 1281.11 261.134 1281.84 261.503C1282.58 261.867 1283.18 262.452 1283.64 263.257C1284.1 264.057 1284.34 265.116 1284.34 266.432V267.185H1276.58C1276.61 268.236 1276.9 269.045 1277.47 269.614C1278.03 270.182 1278.77 270.466 1279.68 270.466C1280.28 270.466 1280.81 270.336 1281.25 270.075C1281.69 269.815 1282 269.427 1282.19 268.911L1284.2 269.273C1283.96 270.158 1283.44 270.871 1282.64 271.411C1281.84 271.95 1280.84 272.22 1279.66 272.22ZM1276.59 265.594H1282.25C1282.25 264.76 1282 264.071 1281.5 263.527C1281 262.978 1280.34 262.703 1279.52 262.703C1278.95 262.703 1278.45 262.838 1278.01 263.108C1277.59 263.373 1277.25 263.726 1277 264.166C1276.75 264.602 1276.62 265.078 1276.59 265.594ZM1290.71 272.213C1289.83 272.213 1289.05 271.988 1288.36 271.538C1287.67 271.089 1287.13 270.442 1286.74 269.599C1286.35 268.752 1286.15 267.741 1286.15 266.567C1286.15 265.388 1286.35 264.379 1286.74 263.541C1287.14 262.703 1287.68 262.062 1288.37 261.616C1289.06 261.171 1289.85 260.949 1290.72 260.949C1291.4 260.949 1291.95 261.062 1292.36 261.29C1292.77 261.512 1293.1 261.773 1293.32 262.071C1293.56 262.369 1293.74 262.632 1293.86 262.859H1293.99V257.455H1296.11V272H1294.04V270.303H1293.86C1293.74 270.535 1293.55 270.8 1293.31 271.098C1293.07 271.396 1292.75 271.657 1292.33 271.879C1291.91 272.102 1291.37 272.213 1290.71 272.213ZM1291.18 270.402C1292.1 270.402 1292.8 270.047 1293.29 269.337C1293.78 268.622 1294.03 267.691 1294.03 266.545C1294.03 265.404 1293.78 264.488 1293.3 263.797C1292.81 263.101 1292.11 262.753 1291.18 262.753C1290.54 262.753 1290.01 262.919 1289.58 263.25C1289.15 263.581 1288.83 264.034 1288.61 264.607C1288.4 265.175 1288.3 265.821 1288.3 266.545C1288.3 267.275 1288.4 267.93 1288.62 268.513C1288.84 269.095 1289.16 269.557 1289.59 269.898C1290.02 270.234 1290.55 270.402 1291.18 270.402Z" fill="#0B0B0C"/>
<path d="M675.558 148.545V174H670.176V148.545H675.558ZM692.955 174.36C691.132 174.36 689.62 173.884 688.418 172.931C687.217 171.978 686.616 170.557 686.616 168.668C686.616 167.243 686.952 166.124 687.623 165.312C688.294 164.5 689.172 163.908 690.258 163.535C691.351 163.154 692.528 162.905 693.788 162.789C695.445 162.623 696.63 162.449 697.342 162.267C698.055 162.085 698.411 161.687 698.411 161.074V160.999C698.411 160.212 698.163 159.603 697.665 159.172C697.177 158.741 696.48 158.526 695.577 158.526C694.624 158.526 693.866 158.733 693.303 159.147C692.739 159.562 692.367 160.088 692.184 160.726L687.287 160.328C687.652 158.588 688.555 157.208 689.997 156.189C691.447 155.17 693.315 154.661 695.602 154.661C697.019 154.661 698.345 154.884 699.579 155.332C700.814 155.779 701.808 156.479 702.562 157.432C703.325 158.377 703.706 159.607 703.706 161.124V174H698.685V171.353H698.535C698.071 172.239 697.375 172.964 696.447 173.528C695.528 174.083 694.363 174.36 692.955 174.36ZM694.471 170.706C695.631 170.706 696.584 170.371 697.33 169.7C698.076 169.02 698.448 168.179 698.448 167.176V165.151C698.241 165.291 697.918 165.416 697.479 165.523C697.048 165.631 696.584 165.726 696.087 165.809C695.598 165.884 695.159 165.95 694.769 166.008C693.841 166.141 693.092 166.402 692.52 166.791C691.956 167.181 691.675 167.748 691.675 168.494C691.675 169.223 691.936 169.774 692.458 170.147C692.988 170.52 693.659 170.706 694.471 170.706ZM707.576 174V154.909H712.622V158.277H712.846C713.243 157.15 713.906 156.268 714.834 155.63C715.77 154.984 716.881 154.661 718.165 154.661C719.474 154.661 720.589 154.988 721.509 155.642C722.428 156.289 723.041 157.167 723.348 158.277H723.547C723.936 157.184 724.641 156.309 725.66 155.655C726.687 154.992 727.901 154.661 729.302 154.661C731.083 154.661 732.529 155.228 733.639 156.363C734.758 157.49 735.317 159.089 735.317 161.161V174H730.035V162.205C730.035 161.144 729.753 160.349 729.19 159.819C728.626 159.288 727.922 159.023 727.077 159.023C726.116 159.023 725.366 159.33 724.827 159.943C724.288 160.556 724.019 161.356 724.019 162.342V174H718.886V162.093C718.886 161.157 718.617 160.411 718.078 159.856C717.548 159.301 716.848 159.023 715.978 159.023C715.099 159.023 714.362 159.346 713.765 159.993C713.169 160.631 712.87 161.48 712.87 162.54V174H707.576ZM747.223 174V148.545H757.266C760.158 148.545 762.399 149.299 763.99 150.808C765.589 152.316 766.389 154.333 766.389 156.86C766.389 158.6 766 160.088 765.221 161.322C764.45 162.557 763.34 163.485 761.89 164.107L767.296 174H761.355L756.533 164.977H752.605V174H747.223ZM752.605 160.651H756.259C759.317 160.651 760.846 159.388 760.846 156.86C760.846 154.25 759.309 152.945 756.235 152.945H752.605V160.651ZM778.247 174.373C776.292 174.373 774.606 173.975 773.189 173.18C771.772 172.376 770.682 171.241 769.92 169.774C769.158 168.299 768.777 166.555 768.777 164.542C768.777 162.578 769.158 160.854 769.92 159.371C770.682 157.888 771.755 156.732 773.139 155.903C774.531 155.075 776.164 154.661 778.036 154.661C779.718 154.661 781.235 155.017 782.585 155.729C783.944 156.442 785.021 157.519 785.817 158.961C786.612 160.394 787.01 162.192 787.01 164.355V165.809H774.009V165.822C774.009 167.247 774.399 168.37 775.178 169.19C775.956 170.01 777.009 170.42 778.334 170.42C779.221 170.42 779.988 170.234 780.634 169.861C781.28 169.488 781.736 168.937 782.001 168.208L786.898 168.531C786.525 170.304 785.581 171.721 784.064 172.782C782.548 173.843 780.609 174.373 778.247 174.373ZM774.009 162.528H782.026C782.018 161.393 781.653 160.457 780.932 159.719C780.211 158.982 779.275 158.613 778.123 158.613C776.947 158.613 775.981 158.994 775.227 159.756C774.473 160.519 774.067 161.443 774.009 162.528ZM795.671 174.36C793.848 174.36 792.336 173.884 791.134 172.931C789.933 171.978 789.332 170.557 789.332 168.668C789.332 167.243 789.668 166.124 790.339 165.312C791.01 164.5 791.889 163.908 792.974 163.535C794.068 163.154 795.244 162.905 796.504 162.789C798.161 162.623 799.346 162.449 800.058 162.267C800.771 162.085 801.127 161.687 801.127 161.074V160.999C801.127 160.212 800.879 159.603 800.382 159.172C799.893 158.741 799.197 158.526 798.294 158.526C797.341 158.526 796.583 158.733 796.019 159.147C795.456 159.562 795.083 160.088 794.9 160.726L790.003 160.328C790.368 158.588 791.271 157.208 792.713 156.189C794.163 155.17 796.032 154.661 798.318 154.661C799.735 154.661 801.061 154.884 802.296 155.332C803.53 155.779 804.525 156.479 805.279 157.432C806.041 158.377 806.422 159.607 806.422 161.124V174H801.401V171.353H801.252C800.788 172.239 800.092 172.964 799.164 173.528C798.244 174.083 797.08 174.36 795.671 174.36ZM797.187 170.706C798.347 170.706 799.3 170.371 800.046 169.7C800.792 169.02 801.165 168.179 801.165 167.176V165.151C800.958 165.291 800.634 165.416 800.195 165.523C799.764 165.631 799.3 165.726 798.803 165.809C798.314 165.884 797.875 165.95 797.486 166.008C796.558 166.141 795.808 166.402 795.236 166.791C794.673 167.181 794.391 167.748 794.391 168.494C794.391 169.223 794.652 169.774 795.174 170.147C795.704 170.52 796.375 170.706 797.187 170.706ZM817.327 174.311C815.877 174.311 814.567 173.938 813.399 173.192C812.231 172.438 811.303 171.332 810.615 169.874C809.927 168.407 809.583 166.609 809.583 164.479C809.583 162.292 809.936 160.473 810.64 159.023C811.353 157.565 812.293 156.475 813.461 155.754C814.638 155.025 815.922 154.661 817.314 154.661C818.383 154.661 819.274 154.843 819.986 155.207C820.707 155.564 821.287 156.007 821.727 156.537C822.174 157.068 822.514 157.594 822.746 158.116H822.907V148.545H828.19V174H822.969V170.942H822.746C822.505 171.473 822.157 171.999 821.702 172.521C821.246 173.035 820.658 173.461 819.937 173.801C819.224 174.141 818.354 174.311 817.327 174.311ZM819.005 170.097C820.281 170.097 821.267 169.584 821.963 168.556C822.667 167.52 823.019 166.153 823.019 164.455C823.019 162.748 822.671 161.393 821.975 160.39C821.279 159.379 820.289 158.874 819.005 158.874C817.695 158.874 816.697 159.392 816.009 160.428C815.33 161.455 814.99 162.797 814.99 164.455C814.99 166.12 815.334 167.479 816.022 168.531C816.709 169.575 817.704 170.097 819.005 170.097ZM835.574 181.122C834.903 181.122 834.273 181.072 833.684 180.973C833.104 180.873 832.624 180.745 832.243 180.587L833.436 176.623C834.372 176.913 835.159 176.987 835.797 176.846C836.444 176.714 836.953 176.217 837.326 175.355L837.637 174.547L830.789 154.909H836.357L840.309 168.929H840.508L844.498 154.909L850.103 154.934L842.683 176.063C842.153 177.588 841.328 178.81 840.21 179.73C839.091 180.658 837.546 181.122 835.574 181.122ZM870.704 154.909V158.886H866.913V174H861.618V158.886H858.921V154.909H861.618V153.529C861.618 151.45 862.21 149.9 863.395 148.881C864.589 147.862 866.084 147.352 867.882 147.352C868.694 147.352 869.436 147.414 870.107 147.539C870.786 147.663 871.292 147.775 871.623 147.874L870.691 151.852C870.484 151.785 870.227 151.723 869.921 151.665C869.614 151.607 869.303 151.578 868.988 151.578C868.21 151.578 867.667 151.76 867.36 152.125C867.062 152.481 866.913 152.983 866.913 153.629V154.909H870.704ZM881.642 174.373C879.712 174.373 878.042 173.963 876.633 173.142C875.233 172.314 874.152 171.162 873.39 169.687C872.627 168.204 872.246 166.485 872.246 164.529C872.246 162.557 872.627 160.834 873.39 159.359C874.152 157.875 875.233 156.724 876.633 155.903C878.042 155.075 879.712 154.661 881.642 154.661C883.573 154.661 885.238 155.075 886.639 155.903C888.047 156.724 889.133 157.875 889.895 159.359C890.658 160.834 891.039 162.557 891.039 164.529C891.039 166.485 890.658 168.204 889.895 169.687C889.133 171.162 888.047 172.314 886.639 173.142C885.238 173.963 883.573 174.373 881.642 174.373ZM881.667 170.271C882.976 170.271 883.967 169.724 884.638 168.631C885.317 167.537 885.657 166.157 885.657 164.492C885.657 162.826 885.317 161.447 884.638 160.353C883.967 159.251 882.976 158.7 881.667 158.7C880.333 158.7 879.326 159.251 878.647 160.353C877.968 161.447 877.628 162.826 877.628 164.492C877.628 166.157 877.968 167.537 878.647 168.631C879.326 169.724 880.333 170.271 881.667 170.271ZM894.244 174V154.909H899.377V158.24H899.576C899.924 157.055 900.508 156.16 901.328 155.555C902.148 154.942 903.093 154.636 904.162 154.636C904.75 154.636 905.305 154.698 905.827 154.822V159.52C905.579 159.437 905.235 159.371 904.796 159.321C904.357 159.263 903.955 159.234 903.59 159.234C902.422 159.234 901.452 159.603 900.682 160.341C899.919 161.07 899.538 162.023 899.538 163.199V174H894.244ZM921.633 174.36C919.81 174.36 918.298 173.884 917.097 172.931C915.895 171.978 915.294 170.557 915.294 168.668C915.294 167.243 915.63 166.124 916.301 165.312C916.972 164.5 917.851 163.908 918.936 163.535C920.03 163.154 921.207 162.905 922.466 162.789C924.123 162.623 925.308 162.449 926.021 162.267C926.733 162.085 927.09 161.687 927.09 161.074V160.999C927.09 160.212 926.841 159.603 926.344 159.172C925.855 158.741 925.159 158.526 924.256 158.526C923.303 158.526 922.545 158.733 921.981 159.147C921.418 159.562 921.045 160.088 920.863 160.726L915.966 160.328C916.33 158.588 917.233 157.208 918.675 156.189C920.125 155.17 921.994 154.661 924.281 154.661C925.698 154.661 927.023 154.884 928.258 155.332C929.493 155.779 930.487 156.479 931.241 157.432C932.003 158.377 932.384 159.607 932.384 161.124V174H927.363V171.353H927.214C926.75 172.239 926.054 172.964 925.126 173.528C924.206 174.083 923.042 174.36 921.633 174.36ZM923.15 170.706C924.31 170.706 925.263 170.371 926.008 169.7C926.754 169.02 927.127 168.179 927.127 167.176V165.151C926.92 165.291 926.597 165.416 926.157 165.523C925.727 165.631 925.263 165.726 924.765 165.809C924.276 165.884 923.837 165.95 923.448 166.008C922.52 166.141 921.77 166.402 921.198 166.791C920.635 167.181 920.353 167.748 920.353 168.494C920.353 169.223 920.614 169.774 921.136 170.147C921.666 170.52 922.338 170.706 923.15 170.706ZM966.675 157.457H961.231C961.024 156.057 960.428 154.959 959.442 154.163C958.456 153.36 957.225 152.958 955.75 152.958C953.778 152.958 952.196 153.683 951.002 155.133C949.817 156.575 949.225 158.621 949.225 161.273C949.225 163.991 949.822 166.058 951.015 167.475C952.216 168.883 953.782 169.588 955.713 169.588C957.146 169.588 958.36 169.215 959.355 168.469C960.349 167.715 960.975 166.659 961.231 165.3L966.675 165.325C966.485 166.882 965.93 168.349 965.01 169.724C964.09 171.1 962.839 172.214 961.256 173.068C959.682 173.921 957.805 174.348 955.626 174.348C953.356 174.348 951.326 173.834 949.536 172.807C947.754 171.779 946.346 170.292 945.31 168.345C944.282 166.398 943.769 164.04 943.769 161.273C943.769 158.497 944.291 156.135 945.335 154.188C946.379 152.241 947.796 150.758 949.585 149.739C951.375 148.711 953.389 148.197 955.626 148.197C957.59 148.197 959.359 148.562 960.933 149.291C962.516 150.012 963.808 151.064 964.811 152.448C965.822 153.824 966.443 155.493 966.675 157.457ZM975.492 162.963V174H970.197V148.545H975.343V158.277H975.566C976.006 157.15 976.702 156.268 977.654 155.63C978.616 154.984 979.821 154.661 981.271 154.661C983.26 154.661 984.859 155.299 986.069 156.575C987.279 157.851 987.879 159.607 987.871 161.844V174H982.576V162.789C982.585 161.612 982.286 160.697 981.681 160.042C981.085 159.388 980.248 159.06 979.171 159.06C978.094 159.06 977.211 159.404 976.523 160.092C975.844 160.771 975.5 161.728 975.492 162.963ZM997.244 174.36C995.421 174.36 993.909 173.884 992.707 172.931C991.506 171.978 990.905 170.557 990.905 168.668C990.905 167.243 991.241 166.124 991.912 165.312C992.583 164.5 993.461 163.908 994.547 163.535C995.64 163.154 996.817 162.905 998.077 162.789C999.734 162.623 1000.92 162.449 1001.63 162.267C1002.34 162.085 1002.7 161.687 1002.7 161.074V160.999C1002.7 160.212 1002.45 159.603 1001.95 159.172C1001.47 158.741 1000.77 158.526 999.866 158.526C998.913 158.526 998.155 158.733 997.592 159.147C997.028 159.562 996.655 160.088 996.473 160.726L991.576 160.328C991.941 158.588 992.844 157.208 994.286 156.189C995.736 155.17 997.604 154.661 999.891 154.661C1001.31 154.661 1002.63 154.884 1003.87 155.332C1005.1 155.779 1006.1 156.479 1006.85 157.432C1007.61 158.377 1007.99 159.607 1007.99 161.124V174H1002.97V171.353H1002.82C1002.36 172.239 1001.66 172.964 1000.74 173.528C999.817 174.083 998.652 174.36 997.244 174.36ZM998.76 170.706C999.92 170.706 1000.87 170.371 1001.62 169.7C1002.36 169.02 1002.74 168.179 1002.74 167.176V165.151C1002.53 165.291 1002.21 165.416 1001.77 165.523C1001.34 165.631 1000.87 165.726 1000.38 165.809C999.887 165.884 999.448 165.95 999.058 166.008C998.13 166.141 997.38 166.402 996.809 166.791C996.245 167.181 995.964 167.748 995.964 168.494C995.964 169.223 996.225 169.774 996.747 170.147C997.277 170.52 997.948 170.706 998.76 170.706ZM1017.16 148.545V174H1011.86V148.545H1017.16ZM1026.46 148.545V174H1021.16V148.545H1026.46ZM1039.16 174.373C1037.21 174.373 1035.52 173.975 1034.1 173.18C1032.69 172.376 1031.6 171.241 1030.83 169.774C1030.07 168.299 1029.69 166.555 1029.69 164.542C1029.69 162.578 1030.07 160.854 1030.83 159.371C1031.6 157.888 1032.67 156.732 1034.05 155.903C1035.44 155.075 1037.08 154.661 1038.95 154.661C1040.63 154.661 1042.15 155.017 1043.5 155.729C1044.86 156.442 1045.93 157.519 1046.73 158.961C1047.53 160.394 1047.92 162.192 1047.92 164.355V165.809H1034.92V165.822C1034.92 167.247 1035.31 168.37 1036.09 169.19C1036.87 170.01 1037.92 170.42 1039.25 170.42C1040.13 170.42 1040.9 170.234 1041.55 169.861C1042.19 169.488 1042.65 168.937 1042.91 168.208L1047.81 168.531C1047.44 170.304 1046.49 171.721 1044.98 172.782C1043.46 173.843 1041.52 174.373 1039.16 174.373ZM1034.92 162.528H1042.94C1042.93 161.393 1042.57 160.457 1041.85 159.719C1041.12 158.982 1040.19 158.613 1039.04 158.613C1037.86 158.613 1036.89 158.994 1036.14 159.756C1035.39 160.519 1034.98 161.443 1034.92 162.528ZM1056.44 162.963V174H1051.14V154.909H1056.19V158.277H1056.41C1056.84 157.167 1057.55 156.289 1058.54 155.642C1059.53 154.988 1060.74 154.661 1062.15 154.661C1064.14 154.661 1065.74 155.303 1066.94 156.587C1068.14 157.863 1068.74 159.616 1068.74 161.844V174H1063.45V162.789C1063.45 161.621 1063.16 160.709 1062.55 160.055C1061.95 159.392 1061.11 159.06 1060.05 159.06C1058.98 159.06 1058.11 159.404 1057.44 160.092C1056.78 160.771 1056.44 161.728 1056.44 162.963ZM1081.28 181.433C1078.71 181.433 1076.69 180.927 1075.22 179.916C1073.76 178.905 1072.87 177.679 1072.55 176.237L1077.45 175.578C1077.66 176.092 1078.08 176.56 1078.7 176.983C1079.33 177.414 1080.23 177.629 1081.4 177.629C1082.55 177.629 1083.5 177.356 1084.25 176.809C1085 176.262 1085.38 175.363 1085.38 174.112V170.619H1085.15C1084.81 171.406 1084.19 172.123 1083.31 172.77C1082.44 173.408 1081.23 173.727 1079.71 173.727C1078.28 173.727 1076.97 173.391 1075.79 172.72C1074.63 172.049 1073.69 171.025 1073 169.65C1072.31 168.274 1071.97 166.53 1071.97 164.417C1071.97 162.246 1072.32 160.44 1073.02 158.998C1073.74 157.556 1074.68 156.475 1075.84 155.754C1077.02 155.025 1078.31 154.661 1079.7 154.661C1080.77 154.661 1081.66 154.843 1082.38 155.207C1083.1 155.564 1083.69 156.007 1084.13 156.537C1084.58 157.068 1084.92 157.594 1085.15 158.116H1085.35V154.909H1090.61V174.186C1090.61 175.769 1090.21 177.099 1089.4 178.176C1088.61 179.253 1087.51 180.065 1086.11 180.612C1084.71 181.159 1083.1 181.433 1081.28 181.433ZM1081.39 169.749C1082.66 169.749 1083.65 169.277 1084.35 168.332C1085.05 167.388 1085.4 166.074 1085.4 164.392C1085.4 162.719 1085.05 161.38 1084.36 160.378C1083.66 159.375 1082.67 158.874 1081.39 158.874C1080.08 158.874 1079.08 159.388 1078.39 160.415C1077.71 161.443 1077.37 162.768 1077.37 164.392C1077.37 166.041 1077.72 167.346 1078.41 168.308C1079.09 169.269 1080.09 169.749 1081.39 169.749ZM1094.59 174V154.909H1099.88V174H1094.59ZM1097.25 152.448C1096.47 152.448 1095.8 152.187 1095.23 151.665C1094.67 151.135 1094.39 150.501 1094.39 149.763C1094.39 149.026 1094.67 148.396 1095.23 147.874C1095.8 147.352 1096.47 147.091 1097.25 147.091C1098.03 147.091 1098.71 147.352 1099.27 147.874C1099.83 148.396 1100.12 149.026 1100.12 149.763C1100.12 150.501 1099.83 151.135 1099.27 151.665C1098.71 152.187 1098.03 152.448 1097.25 152.448ZM1112.48 181.433C1109.92 181.433 1107.9 180.927 1106.43 179.916C1104.97 178.905 1104.07 177.679 1103.76 176.237L1108.66 175.578C1108.87 176.092 1109.29 176.56 1109.91 176.983C1110.54 177.414 1111.44 177.629 1112.61 177.629C1113.76 177.629 1114.71 177.356 1115.46 176.809C1116.21 176.262 1116.59 175.363 1116.59 174.112V170.619H1116.36C1116.01 171.406 1115.4 172.123 1114.52 172.77C1113.64 173.408 1112.44 173.727 1110.92 173.727C1109.49 173.727 1108.18 173.391 1107 172.72C1105.84 172.049 1104.9 171.025 1104.21 169.65C1103.52 168.274 1103.18 166.53 1103.18 164.417C1103.18 162.246 1103.53 160.44 1104.23 158.998C1104.94 157.556 1105.88 156.475 1107.05 155.754C1108.23 155.025 1109.51 154.661 1110.91 154.661C1111.98 154.661 1112.87 154.843 1113.59 155.207C1114.31 155.564 1114.9 156.007 1115.34 156.537C1115.79 157.068 1116.13 157.594 1116.36 158.116H1116.56V154.909H1121.82V174.186C1121.82 175.769 1121.42 177.099 1120.61 178.176C1119.82 179.253 1118.72 180.065 1117.32 180.612C1115.92 181.159 1114.31 181.433 1112.48 181.433ZM1112.6 169.749C1113.87 169.749 1114.86 169.277 1115.55 168.332C1116.26 167.388 1116.61 166.074 1116.61 164.392C1116.61 162.719 1116.26 161.38 1115.57 160.378C1114.87 159.375 1113.88 158.874 1112.6 158.874C1111.29 158.874 1110.29 159.388 1109.6 160.415C1108.92 161.443 1108.58 162.768 1108.58 164.392C1108.58 166.041 1108.93 167.346 1109.61 168.308C1110.3 169.269 1111.3 169.749 1112.6 169.749ZM1133.76 174V148.545H1143.8C1145.73 148.545 1147.37 148.914 1148.73 149.652C1150.09 150.381 1151.13 151.396 1151.84 152.697C1152.56 153.989 1152.92 155.481 1152.92 157.171C1152.92 158.862 1152.56 160.353 1151.83 161.646C1151.1 162.93 1150.04 163.937 1148.66 164.666C1147.28 165.387 1145.62 165.747 1143.66 165.747H1139.14V174H1133.76ZM1139.14 161.434H1142.79C1144.33 161.434 1145.48 161.041 1146.24 160.254C1147 159.458 1147.38 158.431 1147.38 157.171C1147.38 155.903 1147 154.884 1146.24 154.114C1145.48 153.335 1144.33 152.945 1142.77 152.945H1139.14V161.434ZM1156.08 174V154.909H1161.21V158.24H1161.41C1161.76 157.055 1162.34 156.16 1163.16 155.555C1163.98 154.942 1164.93 154.636 1166 154.636C1166.59 154.636 1167.14 154.698 1167.66 154.822V159.52C1167.42 159.437 1167.07 159.371 1166.63 159.321C1166.19 159.263 1165.79 159.234 1165.43 159.234C1164.26 159.234 1163.29 159.603 1162.52 160.341C1161.76 161.07 1161.37 162.023 1161.37 163.199V174H1156.08ZM1177.9 174.373C1175.97 174.373 1174.3 173.963 1172.89 173.142C1171.49 172.314 1170.41 171.162 1169.65 169.687C1168.89 168.204 1168.5 166.485 1168.5 164.529C1168.5 162.557 1168.89 160.834 1169.65 159.359C1170.41 157.875 1171.49 156.724 1172.89 155.903C1174.3 155.075 1175.97 154.661 1177.9 154.661C1179.83 154.661 1181.5 155.075 1182.9 155.903C1184.31 156.724 1185.39 157.875 1186.15 159.359C1186.92 160.834 1187.3 162.557 1187.3 164.529C1187.3 166.485 1186.92 168.204 1186.15 169.687C1185.39 171.162 1184.31 172.314 1182.9 173.142C1181.5 173.963 1179.83 174.373 1177.9 174.373ZM1177.93 170.271C1179.23 170.271 1180.22 169.724 1180.9 168.631C1181.58 167.537 1181.91 166.157 1181.91 164.492C1181.91 162.826 1181.58 161.447 1180.9 160.353C1180.22 159.251 1179.23 158.7 1177.93 158.7C1176.59 158.7 1175.58 159.251 1174.9 160.353C1174.23 161.447 1173.89 162.826 1173.89 164.492C1173.89 166.157 1174.23 167.537 1174.9 168.631C1175.58 169.724 1176.59 170.271 1177.93 170.271ZM1190.5 154.909H1195.8V174.882C1195.8 177.095 1195.15 178.698 1193.86 179.692C1192.56 180.687 1190.77 181.155 1188.48 181.097C1188.33 181.097 1188.19 181.093 1188.04 181.085C1187.88 181.085 1187.7 181.08 1187.49 181.072V176.933C1187.63 176.942 1187.76 176.946 1187.87 176.946C1187.97 176.954 1188.08 176.958 1188.19 176.958C1189.04 176.958 1189.64 176.776 1189.98 176.411C1190.33 176.055 1190.5 175.516 1190.5 174.795V154.909ZM1193.14 152.448C1192.36 152.448 1191.69 152.187 1191.12 151.665C1190.56 151.135 1190.28 150.501 1190.28 149.763C1190.28 149.026 1190.56 148.396 1191.12 147.874C1191.69 147.352 1192.36 147.091 1193.14 147.091C1193.92 147.091 1194.6 147.352 1195.16 147.874C1195.73 148.396 1196.01 149.026 1196.01 149.763C1196.01 150.501 1195.73 151.135 1195.16 151.665C1194.6 152.187 1193.92 152.448 1193.14 152.448ZM1208.5 174.373C1206.54 174.373 1204.86 173.975 1203.44 173.18C1202.02 172.376 1200.93 171.241 1200.17 169.774C1199.41 168.299 1199.03 166.555 1199.03 164.542C1199.03 162.578 1199.41 160.854 1200.17 159.371C1200.93 157.888 1202.01 156.732 1203.39 155.903C1204.78 155.075 1206.42 154.661 1208.29 154.661C1209.97 154.661 1211.49 155.017 1212.84 155.729C1214.2 156.442 1215.27 157.519 1216.07 158.961C1216.86 160.394 1217.26 162.192 1217.26 164.355V165.809H1204.26V165.822C1204.26 167.247 1204.65 168.37 1205.43 169.19C1206.21 170.01 1207.26 170.42 1208.59 170.42C1209.47 170.42 1210.24 170.234 1210.89 169.861C1211.53 169.488 1211.99 168.937 1212.25 168.208L1217.15 168.531C1216.78 170.304 1215.83 171.721 1214.32 172.782C1212.8 173.843 1210.86 174.373 1208.5 174.373ZM1204.26 162.528H1212.28C1212.27 161.393 1211.91 160.457 1211.18 159.719C1210.46 158.982 1209.53 158.613 1208.38 158.613C1207.2 158.613 1206.23 158.994 1205.48 159.756C1204.73 160.519 1204.32 161.443 1204.26 162.528ZM1229.11 174.373C1227.15 174.373 1225.47 173.959 1224.06 173.13C1222.66 172.293 1221.58 171.133 1220.83 169.65C1220.08 168.167 1219.71 166.46 1219.71 164.529C1219.71 162.574 1220.09 160.858 1220.84 159.384C1221.6 157.9 1222.68 156.744 1224.08 155.916C1225.48 155.079 1227.15 154.661 1229.08 154.661C1230.75 154.661 1232.2 154.963 1233.46 155.568C1234.71 156.173 1235.71 157.022 1236.43 158.116C1237.16 159.21 1237.56 160.494 1237.63 161.969H1232.64C1232.49 161.016 1232.12 160.249 1231.52 159.669C1230.92 159.081 1230.14 158.787 1229.17 158.787C1227.94 158.787 1226.96 159.28 1226.21 160.266C1225.46 161.252 1225.09 162.648 1225.09 164.455C1225.09 166.277 1225.46 167.69 1226.2 168.693C1226.94 169.687 1227.93 170.184 1229.17 170.184C1230.08 170.184 1230.85 169.911 1231.47 169.364C1232.09 168.809 1232.48 168.022 1232.64 167.002H1237.63C1237.55 168.461 1237.15 169.745 1236.44 170.855C1235.73 171.966 1234.76 172.832 1233.52 173.453C1232.27 174.066 1230.8 174.373 1229.11 174.373ZM1250.94 154.909V158.886H1247.35V168.134C1247.35 168.863 1247.51 169.356 1247.84 169.613C1248.17 169.869 1248.61 169.998 1249.14 169.998C1249.38 169.998 1249.63 169.977 1249.88 169.936C1250.13 169.886 1250.32 169.849 1250.45 169.824L1251.29 173.764C1251.02 173.847 1250.65 173.942 1250.17 174.05C1249.69 174.166 1249.1 174.236 1248.41 174.261C1246.49 174.344 1244.95 173.93 1243.78 173.018C1242.62 172.098 1242.04 170.702 1242.05 168.83V158.886H1239.44V154.909H1242.05V150.335H1247.35V154.909H1250.94Z" fill="#0B0B0C"/>
<rect x="850.5" y="340.5" width="219" height="69" rx="9.5" fill="#FED45D"/>
<path d="M896.64 380V369.091H898.286V378.583H903.229V380H896.64ZM904.927 380V369.091H911.766V370.508H906.573V373.832H911.409V375.243H906.573V378.583H911.83V380H904.927ZM913.247 370.508V369.091H921.69V370.508H918.286V380H916.645V370.508H913.247ZM924.616 369.091V370.114C924.616 370.565 924.494 371.044 924.249 371.552C924.004 372.06 923.675 372.479 923.264 372.809L922.475 372.244C922.685 371.939 922.866 371.614 923.018 371.27C923.175 370.922 923.253 370.542 923.253 370.13V369.091H924.616ZM932.134 371.957C932.077 371.452 931.842 371.062 931.43 370.785C931.019 370.504 930.5 370.364 929.875 370.364C929.204 370.364 928.671 370.517 928.277 370.822C927.883 371.127 927.686 371.513 927.686 371.978C927.686 372.326 927.791 372.61 928 372.83C928.213 373.047 928.472 373.217 928.778 373.342C929.087 373.466 929.383 373.565 929.667 373.64L930.733 373.917C931.081 374.002 931.438 374.119 931.803 374.268C932.169 374.414 932.508 374.606 932.821 374.844C933.133 375.078 933.385 375.371 933.577 375.723C933.772 376.074 933.87 376.495 933.87 376.985C933.87 377.599 933.71 378.148 933.391 378.631C933.075 379.114 932.617 379.494 932.016 379.771C931.416 380.044 930.688 380.181 929.832 380.181C928.611 380.181 927.638 379.895 926.913 379.324C926.193 378.752 925.805 377.972 925.752 376.985H927.403C927.453 377.578 927.711 378.018 928.176 378.306C928.641 378.594 929.19 378.738 929.822 378.738C930.521 378.738 931.098 378.576 931.553 378.253C932.011 377.93 932.24 377.502 932.24 376.969C932.24 376.646 932.148 376.381 931.963 376.175C931.782 375.966 931.535 375.795 931.223 375.664C930.914 375.529 930.564 375.41 930.173 375.307L928.884 374.956C928.007 374.718 927.315 374.368 926.807 373.906C926.299 373.445 926.045 372.834 926.045 372.074C926.045 371.445 926.216 370.897 926.557 370.428C926.897 369.959 927.359 369.595 927.941 369.336C928.527 369.073 929.184 368.942 929.912 368.942C930.651 368.942 931.303 369.071 931.867 369.331C932.435 369.59 932.883 369.947 933.21 370.401C933.536 370.856 933.707 371.374 933.721 371.957H932.134ZM942.978 380H939.447V369.091H943.09C944.163 369.091 945.081 369.309 945.844 369.746C946.611 370.179 947.199 370.803 947.607 371.616C948.019 372.425 948.225 373.397 948.225 374.529C948.225 375.666 948.019 376.642 947.607 377.459C947.195 378.276 946.597 378.904 945.812 379.345C945.031 379.782 944.086 380 942.978 380ZM941.093 378.562H942.888C944.131 378.562 945.061 378.214 945.679 377.518C946.297 376.818 946.606 375.822 946.606 374.529C946.606 373.244 946.3 372.257 945.69 371.568C945.082 370.875 944.182 370.529 942.989 370.529H941.093V378.562ZM951.738 369.091V380H950.092V369.091H951.738ZM959.905 371.957C959.848 371.452 959.614 371.062 959.202 370.785C958.79 370.504 958.271 370.364 957.646 370.364C956.975 370.364 956.442 370.517 956.048 370.822C955.654 371.127 955.457 371.513 955.457 371.978C955.457 372.326 955.562 372.61 955.771 372.83C955.984 373.047 956.244 373.217 956.549 373.342C956.858 373.466 957.154 373.565 957.439 373.64L958.504 373.917C958.852 374.002 959.209 374.119 959.575 374.268C959.94 374.414 960.279 374.606 960.592 374.844C960.904 375.078 961.157 375.371 961.348 375.723C961.544 376.074 961.641 376.495 961.641 376.985C961.641 377.599 961.481 378.148 961.162 378.631C960.846 379.114 960.388 379.494 959.788 379.771C959.187 380.044 958.459 380.181 957.604 380.181C956.382 380.181 955.409 379.895 954.685 379.324C953.964 378.752 953.577 377.972 953.523 376.985H955.175C955.224 377.578 955.482 378.018 955.947 378.306C956.412 378.594 956.961 378.738 957.593 378.738C958.293 378.738 958.87 378.576 959.324 378.253C959.782 377.93 960.011 377.502 960.011 376.969C960.011 376.646 959.919 376.381 959.734 376.175C959.553 375.966 959.306 375.795 958.994 375.664C958.685 375.529 958.335 375.41 957.945 375.307L956.655 374.956C955.778 374.718 955.086 374.368 954.578 373.906C954.07 373.445 953.816 372.834 953.816 372.074C953.816 371.445 953.987 370.897 954.328 370.428C954.669 369.959 955.13 369.595 955.713 369.336C956.299 369.073 956.956 368.942 957.684 368.942C958.422 368.942 959.074 369.071 959.638 369.331C960.207 369.59 960.654 369.947 960.981 370.401C961.307 370.856 961.478 371.374 961.492 371.957H959.905ZM972.489 372.638H970.827C970.692 371.932 970.36 371.39 969.831 371.014C969.305 370.634 968.695 370.444 967.998 370.444C967.373 370.444 966.812 370.602 966.315 370.918C965.818 371.234 965.426 371.697 965.138 372.308C964.854 372.915 964.712 373.661 964.712 374.545C964.712 375.433 964.856 376.183 965.143 376.793C965.431 377.404 965.822 377.866 966.315 378.178C966.812 378.491 967.372 378.647 967.993 378.647C968.682 378.647 969.291 378.461 969.82 378.088C970.349 377.715 970.685 377.18 970.827 376.484L972.489 376.49C972.372 377.207 972.109 377.841 971.701 378.391C971.292 378.942 970.77 379.373 970.134 379.686C969.499 379.995 968.782 380.149 967.983 380.149C967.038 380.149 966.196 379.925 965.458 379.478C964.719 379.027 964.137 378.382 963.71 377.544C963.288 376.706 963.077 375.707 963.077 374.545C963.077 373.381 963.29 372.381 963.716 371.547C964.142 370.708 964.724 370.066 965.463 369.618C966.202 369.167 967.041 368.942 967.983 368.942C968.753 368.942 969.454 369.087 970.087 369.379C970.722 369.67 971.25 370.092 971.669 370.646C972.091 371.197 972.365 371.861 972.489 372.638ZM981.294 369.091H982.945V376.266C982.945 377.029 982.766 377.706 982.407 378.295C982.048 378.885 981.544 379.347 980.894 379.68C980.244 380.014 979.483 380.181 978.609 380.181C977.739 380.181 976.979 380.014 976.329 379.68C975.679 379.347 975.175 378.885 974.816 378.295C974.458 377.706 974.278 377.029 974.278 376.266V369.091H975.924V376.133C975.924 376.871 976.164 377.48 976.644 377.96C977.126 378.439 977.782 378.679 978.609 378.679C979.44 378.679 980.095 378.439 980.575 377.96C981.054 377.48 981.294 376.871 981.294 376.133V369.091ZM991.108 371.957C991.051 371.452 990.817 371.062 990.405 370.785C989.993 370.504 989.474 370.364 988.849 370.364C988.178 370.364 987.646 370.517 987.251 370.822C986.857 371.127 986.66 371.513 986.66 371.978C986.66 372.326 986.765 372.61 986.974 372.83C987.187 373.047 987.447 373.217 987.752 373.342C988.061 373.466 988.358 373.565 988.642 373.64L989.707 373.917C990.055 374.002 990.412 374.119 990.778 374.268C991.143 374.414 991.483 374.606 991.795 374.844C992.108 375.078 992.36 375.371 992.551 375.723C992.747 376.074 992.844 376.495 992.844 376.985C992.844 377.599 992.685 378.148 992.365 378.631C992.049 379.114 991.591 379.494 990.991 379.771C990.391 380.044 989.663 380.181 988.807 380.181C987.585 380.181 986.612 379.895 985.888 379.324C985.167 378.752 984.78 377.972 984.727 376.985H986.378C986.428 377.578 986.685 378.018 987.15 378.306C987.615 378.594 988.164 378.738 988.796 378.738C989.496 378.738 990.073 378.576 990.527 378.253C990.985 377.93 991.214 377.502 991.214 376.969C991.214 376.646 991.122 376.381 990.937 376.175C990.756 375.966 990.51 375.795 990.197 375.664C989.888 375.529 989.538 375.41 989.148 375.307L987.859 374.956C986.982 374.718 986.289 374.368 985.781 373.906C985.273 373.445 985.02 372.834 985.02 372.074C985.02 371.445 985.19 370.897 985.531 370.428C985.872 369.959 986.333 369.595 986.916 369.336C987.502 369.073 988.159 368.942 988.887 368.942C989.625 368.942 990.277 369.071 990.842 369.331C991.41 369.59 991.857 369.947 992.184 370.401C992.511 370.856 992.681 371.374 992.695 371.957H991.108ZM1000.58 371.957C1000.52 371.452 1000.29 371.062 999.878 370.785C999.466 370.504 998.948 370.364 998.323 370.364C997.652 370.364 997.119 370.517 996.725 370.822C996.331 371.127 996.133 371.513 996.133 371.978C996.133 372.326 996.238 372.61 996.448 372.83C996.661 373.047 996.92 373.217 997.225 373.342C997.534 373.466 997.831 373.565 998.115 373.64L999.18 373.917C999.528 374.002 999.885 374.119 1000.25 374.268C1000.62 374.414 1000.96 374.606 1001.27 374.844C1001.58 375.078 1001.83 375.371 1002.02 375.723C1002.22 376.074 1002.32 376.495 1002.32 376.985C1002.32 377.599 1002.16 378.148 1001.84 378.631C1001.52 379.114 1001.06 379.494 1000.46 379.771C999.864 380.044 999.136 380.181 998.28 380.181C997.059 380.181 996.086 379.895 995.361 379.324C994.64 378.752 994.253 377.972 994.2 376.985H995.851C995.901 377.578 996.158 378.018 996.624 378.306C997.089 378.594 997.637 378.738 998.269 378.738C998.969 378.738 999.546 378.576 1000 378.253C1000.46 377.93 1000.69 377.502 1000.69 376.969C1000.69 376.646 1000.6 376.381 1000.41 376.175C1000.23 375.966 999.983 375.795 999.67 375.664C999.361 375.529 999.012 375.41 998.621 375.307L997.332 374.956C996.455 374.718 995.762 374.368 995.255 373.906C994.747 373.445 994.493 372.834 994.493 372.074C994.493 371.445 994.663 370.897 995.004 370.428C995.345 369.959 995.807 369.595 996.389 369.336C996.975 369.073 997.632 368.942 998.36 368.942C999.099 368.942 999.75 369.071 1000.31 369.331C1000.88 369.59 1001.33 369.947 1001.66 370.401C1001.98 370.856 1002.15 371.374 1002.17 371.957H1000.58ZM1009.54 369.091V380H1007.89V369.091H1009.54ZM1011.22 370.508V369.091H1019.66V370.508H1016.26V380H1014.62V370.508H1011.22ZM1023.23 369.091L1023.09 376.863H1021.61L1021.48 369.091H1023.23ZM1022.35 380.101C1022.06 380.101 1021.81 379.998 1021.6 379.792C1021.39 379.583 1021.28 379.331 1021.28 379.036C1021.28 378.745 1021.39 378.496 1021.6 378.29C1021.81 378.081 1022.06 377.976 1022.35 377.976C1022.64 377.976 1022.89 378.081 1023.1 378.29C1023.31 378.496 1023.41 378.745 1023.41 379.036C1023.41 379.331 1023.31 379.583 1023.1 379.792C1022.89 379.998 1022.64 380.101 1022.35 380.101Z" fill="#0B0B0C"/>
<rect x="850.5" y="340.5" width="219" height="69" rx="9.5" stroke="#0B0B0C"/>
<defs>
<filter id="filter0_d" x="-43" y="0" width="2008" height="558" filterUnits="userSpaceOnUse" color-interpolation-filters="sRGB">
<feFlood flood-opacity="0" result="BackgroundImageFix"/>
<feColorMatrix in="SourceAlpha" type="matrix" values="0 0 0 0 0 0 0 0 0 0 0 0 0 0 0 0 0 0 127 0"/>
<feOffset dx="1" dy="4"/>
<feGaussianBlur stdDeviation="22"/>
<feColorMatrix type="matrix" values="0 0 0 0 0 0 0 0 0 0 0 0 0 0 0 0 0 0 0.03 0"/>
<feBlend mode="normal" in2="BackgroundImageFix" result="effect1_dropShadow"/>
<feBlend mode="normal" in="SourceGraphic" in2="effect1_dropShadow" result="shape"/>
</filter>
<linearGradient id="paint0_linear" x1="1899.76" y1="-41.2823" x2="1532.49" y2="343.981" gradientUnits="userSpaceOnUse">
<stop stop-color="#FED45D"/>
<stop offset="1" stop-color="white" stop-opacity="0"/>
</linearGradient>
</defs>
</svg>
