<svg xmlns="http://www.w3.org/2000/svg" width="18" height="18" viewBox="0 0 18 18" fill="none"><path d="M18 10.9448V17.5995H14.142V11.3904C14.142 9.83069 13.584 8.76622 12.1875 8.76622C11.1215 8.76622 10.4871 9.48359 10.208 10.1775C10.1063 10.4256 10.0801 10.7709 10.0801 11.1182V17.5995H6.22078C6.22078 17.5995 6.27276 7.08342 6.22078 5.99388H10.0797V7.63893C10.0719 7.65123 10.0617 7.6645 10.0543 7.67642H10.0797V7.63893C10.5924 6.84928 11.508 5.72124 13.5574 5.72124C16.0965 5.72119 18 7.37997 18 10.9448ZM2.18381 0.399414C0.863556 0.399414 0 1.2654 0 2.40419C0 3.51817 0.838572 4.41044 2.13259 4.41044H2.15837C3.50419 4.41044 4.34117 3.51834 4.34117 2.40419C4.31581 1.2654 3.50419 0.399414 2.18381 0.399414ZM0.229207 17.5995H4.08702V5.99388H0.229207V17.5995Z" fill="#0FAFE9"></path></svg>