<svg xmlns="http://www.w3.org/2000/svg" width="204" height="61" viewBox="0 0 204 61" fill="none"><path d="M14.6853 10.1768C14.6024 9.2653 14.2337 8.55685 13.5791 8.0514C12.9328 7.53767 12.0089 7.28081 10.8075 7.28081C9.61428 7.28081 8.71939 7.50867 8.1228 7.9644C7.52621 8.41184 7.22377 8.98358 7.21549 9.6796C7.19063 10.4336 7.51793 11.0261 8.19738 11.4569C8.87683 11.8795 9.79243 12.2151 10.9442 12.4637L13.1317 12.9608C15.6423 13.516 17.5647 14.4233 18.8987 15.6828C20.2411 16.9423 20.9164 18.587 20.9247 20.6171C20.9164 23.0366 20.0215 24.9258 18.24 26.2847C16.4585 27.6436 13.981 28.3231 10.8075 28.3231C7.60907 28.3231 5.0487 27.6022 3.12635 26.1604C1.21229 24.7104 0.234545 22.498 0.193115 19.5233H6.08445C6.15074 20.7497 6.60232 21.6777 7.43921 22.3074C8.27609 22.9289 9.37399 23.2396 10.7329 23.2396C11.9675 23.2396 12.9328 22.9952 13.6288 22.5063C14.3249 22.0174 14.677 21.3836 14.6853 20.6047C14.677 19.8921 14.3456 19.3245 13.691 18.9019C13.0364 18.471 12.0089 18.094 10.6086 17.7709L7.9488 17.1494C5.75301 16.644 4.0171 15.8278 2.74106 14.7009C1.4733 13.5657 0.843565 12.0328 0.851851 10.1022C0.843565 8.51956 1.26615 7.1358 2.11961 5.9509C2.97306 4.76601 4.14967 3.84627 5.64944 3.19167C7.15749 2.52879 8.88097 2.19735 10.8199 2.19735C12.792 2.19735 14.503 2.53294 15.9531 3.2041C17.4114 3.86698 18.5424 4.79916 19.3462 6.00062C20.1499 7.1938 20.5601 8.58585 20.5766 10.1768H14.6853Z" fill="#F3F3F4"></path><path d="M29.1756 28.3231C27.3527 28.3231 25.8488 27.859 24.6639 26.931C23.4873 26.003 22.899 24.5944 22.899 22.7052C22.899 21.2966 23.2222 20.1779 23.8685 19.3493C24.5148 18.5125 25.3765 17.8952 26.4537 17.4974C27.5309 17.0914 28.7116 16.8345 29.996 16.7268C31.6283 16.586 32.7883 16.412 33.4761 16.2048C34.1721 15.9977 34.5201 15.6041 34.5201 15.0241V14.9619C34.5201 14.3239 34.3005 13.8309 33.8614 13.4829C33.4222 13.1349 32.8298 12.9608 32.084 12.9608C31.2803 12.9608 30.634 13.1349 30.1451 13.4829C29.6562 13.8309 29.3455 14.3115 29.2129 14.9246L23.6075 14.7258C23.8478 12.9857 24.6846 11.5398 26.1181 10.3881C27.5599 9.2363 29.5651 8.66042 32.1337 8.66042C33.7578 8.66042 35.2037 8.91315 36.4715 9.41859C37.7475 9.91575 38.7501 10.6366 39.4793 11.5812C40.2167 12.5258 40.5854 13.6734 40.5854 15.0241V27.9999H34.8681V25.3401H34.719C33.6584 27.3287 31.8106 28.3231 29.1756 28.3231ZM31.0524 24.3458C32.0219 24.3458 32.8463 24.0558 33.5258 23.4758C34.2135 22.8957 34.5574 22.1417 34.5574 21.2137V19.3991C34.2177 19.5814 33.7371 19.7346 33.1156 19.8589C32.5025 19.9832 31.9142 20.0868 31.3507 20.1697C29.5527 20.4431 28.6536 21.1888 28.6536 22.4069C28.6536 23.0366 28.8773 23.5172 29.3248 23.8486C29.7722 24.1801 30.3481 24.3458 31.0524 24.3458Z" fill="#F3F3F4"></path><path d="M44.0637 27.9999V2.54537H50.1415V12.1778H50.2658C50.6303 11.2995 51.2435 10.4958 52.1053 9.7666C52.9753 9.02915 54.1643 8.66042 55.6724 8.66042C57.0064 8.66042 58.2493 9.01258 59.4011 9.71689C60.5528 10.4129 61.485 11.4859 62.1976 12.936C62.9102 14.3778 63.2665 16.2214 63.2665 18.4669C63.2665 20.6378 62.9226 22.4483 62.2349 23.8983C61.5554 25.3484 60.6357 26.4421 59.4756 27.1796C58.3239 27.9088 57.0437 28.2733 55.6351 28.2733C54.1933 28.2733 53.0333 27.9336 52.155 27.2542C51.2849 26.5664 50.6552 25.7834 50.2658 24.9051H50.0793V27.9999H44.0637ZM50.0172 18.4545C50.0172 20.0039 50.3238 21.2385 50.9369 22.1583C51.5584 23.078 52.4243 23.5379 53.5346 23.5379C54.6615 23.5379 55.5232 23.078 56.1198 22.1583C56.7247 21.2303 57.0271 19.9957 57.0271 18.4545C57.0271 16.9216 56.7247 15.6994 56.1198 14.7879C55.5232 13.8682 54.6615 13.4083 53.5346 13.4083C52.4243 13.4083 51.5584 13.8599 50.9369 14.7631C50.3238 15.6662 50.0172 16.8967 50.0172 18.4545Z" fill="#F3F3F4"></path><path d="M66.2134 27.9999V8.909H72.1172V12.3891H72.316C72.664 11.1296 73.2316 10.1933 74.0188 9.58017C74.806 8.95872 75.7216 8.64799 76.7656 8.64799C77.3456 8.64799 77.9132 8.72257 78.4684 8.87172V14.154C78.1784 14.0546 77.7972 13.9759 77.3249 13.9179C76.8609 13.8599 76.4466 13.8309 76.082 13.8309C74.9965 13.8309 74.0934 14.183 73.3725 14.8873C72.6516 15.5834 72.2912 16.499 72.2912 17.6341V27.9999H66.2134Z" fill="#F3F3F4"></path><path d="M80.7068 27.9999V8.909H86.7846V27.9999H80.7068ZM83.7519 6.68422C82.8985 6.68422 82.1652 6.40249 81.552 5.83904C80.9388 5.26731 80.6323 4.57958 80.6323 3.77584C80.6323 2.9721 80.9388 2.2885 81.552 1.72505C82.1652 1.16161 82.8985 0.879883 83.7519 0.879883C84.6137 0.879883 85.347 1.16161 85.9519 1.72505C86.565 2.2885 86.8716 2.9721 86.8716 3.77584C86.8716 4.57958 86.565 5.26731 85.9519 5.83904C85.347 6.40249 84.6137 6.68422 83.7519 6.68422Z" fill="#F3F3F4"></path><path d="M97.6967 27.9999V2.54537H103.849V12.762H113.879V2.54537H120.019V27.9999H113.879V17.7709H103.849V27.9999H97.6967Z" fill="#F3F3F4"></path><path d="M129.022 28.3231C127.199 28.3231 125.695 27.859 124.51 26.931C123.334 26.003 122.745 24.5944 122.745 22.7052C122.745 21.2966 123.069 20.1779 123.715 19.3493C124.361 18.5125 125.223 17.8952 126.3 17.4974C127.377 17.0914 128.558 16.8345 129.842 16.7268C131.475 16.586 132.635 16.412 133.322 16.2048C134.019 15.9977 134.367 15.6041 134.367 15.0241V14.9619C134.367 14.3239 134.147 13.8309 133.708 13.4829C133.269 13.1349 132.676 12.9608 131.93 12.9608C131.127 12.9608 130.48 13.1349 129.992 13.4829C129.503 13.8309 129.192 14.3115 129.059 14.9246L123.454 14.7258C123.694 12.9857 124.531 11.5398 125.965 10.3881C127.406 9.2363 129.412 8.66042 131.98 8.66042C133.604 8.66042 135.05 8.91315 136.318 9.41859C137.594 9.91575 138.597 10.6366 139.326 11.5812C140.063 12.5258 140.432 13.6734 140.432 15.0241V27.9999H134.715V25.3401H134.565C133.505 27.3287 131.657 28.3231 129.022 28.3231ZM130.899 24.3458C131.868 24.3458 132.693 24.0558 133.372 23.4758C134.06 22.8957 134.404 22.1417 134.404 21.2137V19.3991C134.064 19.5814 133.584 19.7346 132.962 19.8589C132.349 19.9832 131.761 20.0868 131.197 20.1697C129.399 20.4431 128.5 21.1888 128.5 22.4069C128.5 23.0366 128.724 23.5172 129.171 23.8486C129.619 24.1801 130.195 24.3458 130.899 24.3458Z" fill="#F3F3F4"></path><path d="M143.91 27.9999V2.54537H149.988V15.7449H150.261L155.631 8.909H162.516L155.743 17.224L162.79 27.9999H155.767L151.218 20.7787L149.988 22.2702V27.9999H143.91Z" fill="#F3F3F4"></path><path d="M176.77 19.7595V8.909H182.836V27.9999H177.044V24.4452H176.845C176.422 25.6135 175.702 26.5416 174.682 27.2293C173.672 27.9088 172.449 28.2485 171.016 28.2485C169.707 28.2485 168.559 27.9502 167.573 27.3536C166.595 26.757 165.833 25.9201 165.286 24.843C164.739 23.7658 164.462 22.5104 164.453 21.077V8.909H170.531V19.8838C170.539 20.9195 170.813 21.7357 171.351 22.3323C171.89 22.9289 172.623 23.2272 173.551 23.2272C174.455 23.2272 175.217 22.9289 175.838 22.3323C176.46 21.7274 176.77 20.8698 176.77 19.7595Z" fill="#F3F3F4"></path><path d="M192.544 2.54537V27.9999H186.466V2.54537H192.544Z" fill="#F3F3F4"></path><path d="M196.175 27.9999V8.909H202.252V27.9999H196.175ZM199.22 6.68422C198.366 6.68422 197.633 6.40249 197.02 5.83904C196.407 5.26731 196.1 4.57958 196.1 3.77584C196.1 2.9721 196.407 2.2885 197.02 1.72505C197.633 1.16161 198.366 0.879883 199.22 0.879883C200.081 0.879883 200.815 1.16161 201.42 1.72505C202.033 2.2885 202.339 2.9721 202.339 3.77584C202.339 4.57958 202.033 5.26731 201.42 5.83904C200.815 6.40249 200.081 6.68422 199.22 6.68422Z" fill="#F3F3F4"></path><path d="M9.95184 41.4545H12.1535V51.0212C12.1535 52.0392 11.9144 52.9412 11.4362 53.7272C10.958 54.5132 10.2856 55.1287 9.41917 55.5738C8.55269 56.0189 7.53707 56.2414 6.37229 56.2414C5.21225 56.2414 4.199 56.0189 3.33252 55.5738C2.46604 55.1287 1.79369 54.5132 1.31547 53.7272C0.837254 52.9412 0.598145 52.0392 0.598145 51.0212V41.4545H2.79275V50.8437C2.79275 51.8285 3.11235 52.6405 3.75155 53.2797C4.39549 53.9189 5.26907 54.2385 6.37229 54.2385C7.48025 54.2385 8.35383 53.9189 8.99303 53.2797C9.63224 52.6405 9.95184 51.8285 9.95184 50.8437V41.4545Z" fill="#515579"></path><path d="M20.3728 41.4545V55.9999H18.1782V41.4545H20.3728Z" fill="#515579"></path><path d="M38.5923 56.2059C37.617 56.2059 36.7765 56.0307 36.071 55.6803C35.3703 55.3252 34.8305 54.8399 34.4517 54.2243C34.0729 53.6088 33.8835 52.9128 33.8835 52.1363C33.8835 51.2698 34.1416 50.5383 34.6577 49.9417C35.1738 49.3403 35.8461 48.7532 36.6747 48.1803C36.2154 47.6216 35.8343 47.07 35.5312 46.5255C35.2282 45.981 35.0767 45.3844 35.0767 44.7357C35.0767 44.0634 35.2282 43.4691 35.5312 42.953C35.839 42.4369 36.2675 42.0321 36.8168 41.7385C37.366 41.445 38.0099 41.2982 38.7486 41.2982C39.4967 41.2982 40.1383 41.445 40.6733 41.7385C41.2131 42.0274 41.6274 42.4133 41.9162 42.8962C42.2098 43.3744 42.3565 43.8976 42.3565 44.4658C42.3565 45.1571 42.1861 45.7679 41.8452 46.2982C41.5043 46.8238 41.0308 47.3067 40.4247 47.7471L39.4304 48.4786L42.3423 51.9587C42.5317 51.5941 42.6785 51.1988 42.7827 50.7726C42.8916 50.3418 42.946 49.8825 42.946 49.3948H44.8636C44.8636 50.4033 44.7382 51.2414 44.4872 51.909C44.241 52.5766 43.964 53.1164 43.6563 53.5283L45.723 55.9999H43.3224L42.3423 54.8493C41.8499 55.3086 41.2652 55.6495 40.5881 55.8721C39.911 56.0946 39.2457 56.2059 38.5923 56.2059ZM41.1492 53.4431L37.8892 49.615L37.5057 49.8991C36.9375 50.3157 36.5421 50.7277 36.3196 51.1349C36.1018 51.5421 35.9929 51.8569 35.9929 52.0795C35.9929 52.7092 36.2296 53.2561 36.7031 53.7201C37.1813 54.1794 37.8134 54.409 38.5994 54.409C39.5227 54.409 40.3726 54.087 41.1492 53.4431ZM38.2585 47.0653L39.1534 46.4331C39.5464 46.1727 39.8542 45.8981 40.0767 45.6093C40.304 45.3157 40.4176 44.9535 40.4176 44.5226C40.4176 44.1817 40.2708 43.855 39.9773 43.5425C39.6837 43.23 39.2907 43.0738 38.7983 43.0738C38.2869 43.0738 37.8726 43.2513 37.5554 43.6064C37.2382 43.9616 37.0795 44.3498 37.0795 44.7712C37.0795 45.1405 37.1932 45.5146 37.4205 45.8934C37.6477 46.2674 37.9271 46.6581 38.2585 47.0653Z" fill="#515579"></path><path d="M67.8718 41.4545H70.0735V51.0212C70.0735 52.0392 69.8344 52.9412 69.3562 53.7272C68.878 54.5132 68.2056 55.1287 67.3392 55.5738C66.4727 56.0189 65.4571 56.2414 64.2923 56.2414C63.1323 56.2414 62.119 56.0189 61.2525 55.5738C60.386 55.1287 59.7137 54.5132 59.2355 53.7272C58.7573 52.9412 58.5181 52.0392 58.5181 51.0212V41.4545H60.7127V50.8437C60.7127 51.8285 61.0324 52.6405 61.6716 53.2797C62.3155 53.9189 63.1891 54.2385 64.2923 54.2385C65.4002 54.2385 66.2738 53.9189 66.913 53.2797C67.5522 52.6405 67.8718 51.8285 67.8718 50.8437V41.4545Z" fill="#515579"></path><path d="M77.6252 41.4545L81.1053 47.1434H81.219L84.6991 41.4545H87.2417L82.7104 48.7272L87.2701 55.9999H84.7133L81.219 50.3891H81.1053L77.611 55.9999H75.0542L79.692 48.7272L75.0826 41.4545H77.6252Z" fill="#515579"></path><path d="M105.088 55.9999H100.38V41.4545H105.237C106.667 41.4545 107.891 41.7456 108.909 42.328C109.932 42.9057 110.716 43.7367 111.26 44.8209C111.809 45.9005 112.084 47.1955 112.084 48.7059C112.084 50.221 111.809 51.5231 111.26 52.6121C110.711 53.7011 109.913 54.5392 108.867 55.1263C107.825 55.7087 106.566 55.9999 105.088 55.9999ZM102.574 54.0823H104.968C106.625 54.0823 107.865 53.6183 108.689 52.6903C109.513 51.7575 109.925 50.4294 109.925 48.7059C109.925 46.9919 109.518 45.6756 108.703 44.757C107.894 43.8337 106.693 43.3721 105.103 43.3721H102.574V54.0823Z" fill="#515579"></path><path d="M122.178 56.2201C121.108 56.2201 120.185 55.9881 119.408 55.5241C118.632 55.06 118.033 54.409 117.612 53.5709C117.195 52.7281 116.987 51.7433 116.987 50.6164C116.987 49.499 117.195 48.5141 117.612 47.6618C118.033 46.8096 118.62 46.1443 119.373 45.6661C120.131 45.1879 121.016 44.9488 122.029 44.9488C122.853 44.9488 123.632 45.1334 124.366 45.5028C125.105 45.8673 125.703 46.4521 126.163 47.257C126.627 48.0572 126.859 49.1154 126.859 50.4317V51.1846H119.103C119.131 52.2357 119.427 53.0454 119.991 53.6135C120.554 54.1817 121.291 54.4658 122.2 54.4658C122.806 54.4658 123.329 54.3356 123.769 54.0752C124.21 53.8148 124.524 53.4265 124.714 52.9104L126.724 53.2726C126.482 54.1581 125.962 54.8706 125.161 55.4104C124.361 55.9502 123.367 56.2201 122.178 56.2201ZM119.11 49.5937H124.778C124.773 48.7603 124.522 48.0714 124.025 47.5269C123.528 46.9777 122.867 46.703 122.043 46.703C121.471 46.703 120.969 46.838 120.538 47.1079C120.112 47.373 119.773 47.7258 119.522 48.1661C119.276 48.6017 119.139 49.0776 119.11 49.5937Z" fill="#515579"></path><path d="M140.224 47.7542L138.299 48.0951C138.176 47.7305 137.946 47.3967 137.61 47.0937C137.279 46.7859 136.781 46.632 136.119 46.632C135.517 46.632 135.013 46.767 134.606 47.0368C134.203 47.302 134.004 47.6453 134.009 48.0667C134.004 48.436 134.137 48.7319 134.407 48.9545C134.682 49.1723 135.119 49.3522 135.721 49.4942L137.454 49.892C139.442 50.3512 140.437 51.3361 140.437 52.8465C140.437 53.5046 140.247 54.087 139.869 54.5937C139.494 55.1003 138.971 55.498 138.299 55.7868C137.631 56.0757 136.857 56.2201 135.977 56.2201C134.75 56.2201 133.753 55.9597 132.986 55.4388C132.219 54.9133 131.746 54.1675 131.566 53.2016L133.619 52.8891C133.874 53.9687 134.655 54.5084 135.962 54.5084C136.658 54.5084 137.215 54.364 137.631 54.0752C138.048 53.7816 138.256 53.4242 138.256 53.0028C138.256 52.3067 137.743 51.8451 136.715 51.6178L134.869 51.213C133.846 50.9857 133.093 50.6164 132.61 50.105C132.127 49.5937 131.886 48.9521 131.886 48.1803C131.886 47.5364 132.066 46.9729 132.425 46.49C132.785 46.0023 133.282 45.6235 133.917 45.3536C134.551 45.0837 135.278 44.9488 136.097 44.9488C137.276 44.9488 138.204 45.2045 138.881 45.7158C139.558 46.2272 140.006 46.9066 140.224 47.7542Z" fill="#515579"></path><path d="M145.606 55.9999V45.0908H147.729V55.9999H145.606ZM146.678 43.4076C146.309 43.4076 145.991 43.2845 145.726 43.0383C145.466 42.7873 145.336 42.489 145.336 42.1434C145.336 41.793 145.466 41.4947 145.726 41.2485C145.991 40.9975 146.309 40.8721 146.678 40.8721C147.043 40.8721 147.357 40.9975 147.623 41.2485C147.888 41.4947 148.02 41.793 148.02 42.1434C148.02 42.489 147.888 42.7873 147.623 43.0383C147.357 43.2845 147.043 43.4076 146.678 43.4076Z" fill="#515579"></path><path d="M157.994 60.2968C156.692 60.2968 155.664 60.0529 154.912 59.5653C154.163 59.0776 153.645 58.5046 153.356 57.8465L155.181 57.0937C155.309 57.2925 155.48 57.508 155.693 57.74C155.911 57.972 156.204 58.1708 156.573 58.3366C156.948 58.5023 157.428 58.5851 158.015 58.5851C158.82 58.5851 159.485 58.391 160.011 58.0028C160.537 57.6145 160.799 56.999 160.799 56.1562V54.0113H160.664C160.537 54.2433 160.354 54.5013 160.118 54.7854C159.881 55.0695 159.552 55.3157 159.13 55.5241C158.714 55.7324 158.171 55.8366 157.504 55.8366C156.647 55.8366 155.873 55.6353 155.181 55.2329C154.495 54.8257 153.95 54.2267 153.548 53.436C153.145 52.6405 152.944 51.6628 152.944 50.5028C152.944 49.3427 153.141 48.3484 153.534 47.5198C153.931 46.6912 154.476 46.0567 155.167 45.6164C155.859 45.1713 156.642 44.9488 157.518 44.9488C158.195 44.9488 158.742 45.0624 159.159 45.2897C159.58 45.5122 159.907 45.7726 160.139 46.0709C160.376 46.3692 160.555 46.632 160.679 46.8593H160.835V45.0908H162.916V56.2414C162.916 57.1694 162.698 57.9317 162.262 58.5283C161.827 59.1296 161.237 59.5747 160.494 59.8635C159.755 60.1524 158.922 60.2968 157.994 60.2968ZM157.973 54.0752C158.891 54.0752 159.594 53.758 160.082 53.1235C160.574 52.4843 160.821 51.6012 160.821 50.4743C160.821 49.3711 160.577 48.4762 160.089 47.7897C159.606 47.0984 158.901 46.7528 157.973 46.7528C157.333 46.7528 156.801 46.9185 156.375 47.2499C155.948 47.5766 155.627 48.0217 155.409 48.5851C155.196 49.1439 155.089 49.7736 155.089 50.4743C155.089 51.5444 155.333 52.4133 155.821 53.0809C156.308 53.7438 157.026 54.0752 157.973 54.0752Z" fill="#515579"></path><path d="M170.721 49.5226V55.9999H168.598V45.0908H170.636V46.8664H170.771C171.022 46.2887 171.415 45.8247 171.95 45.4743C172.49 45.124 173.169 44.9488 173.988 44.9488C175.106 44.9488 176.003 45.2968 176.68 45.9928C177.362 46.6888 177.703 47.7116 177.703 49.061V55.9999H175.579V49.3167C175.579 48.526 175.373 47.9081 174.961 47.463C174.55 47.0132 173.984 46.7883 173.264 46.7883C172.525 46.7883 171.917 47.0274 171.439 47.5056C170.961 47.9791 170.721 48.6514 170.721 49.5226Z" fill="#515579"></path><path d="M188.087 56.2201C187.017 56.2201 186.093 55.9881 185.317 55.5241C184.54 55.06 183.941 54.409 183.52 53.5709C183.103 52.7281 182.895 51.7433 182.895 50.6164C182.895 49.499 183.103 48.5141 183.52 47.6618C183.941 46.8096 184.528 46.1443 185.281 45.6661C186.039 45.1879 186.924 44.9488 187.938 44.9488C188.761 44.9488 189.54 45.1334 190.274 45.5028C191.013 45.8673 191.612 46.4521 192.071 47.257C192.535 48.0572 192.767 49.1154 192.767 50.4317V51.1846H185.011C185.04 52.2357 185.336 53.0454 185.899 53.6135C186.463 54.1817 187.199 54.4658 188.108 54.4658C188.714 54.4658 189.237 54.3356 189.678 54.0752C190.118 53.8148 190.433 53.4265 190.622 52.9104L192.632 53.2726C192.391 54.1581 191.87 54.8706 191.07 55.4104C190.269 55.9502 189.275 56.2201 188.087 56.2201ZM185.018 49.5937H190.686C190.681 48.7603 190.43 48.0714 189.933 47.5269C189.436 46.9777 188.776 46.703 187.952 46.703C187.379 46.703 186.877 46.838 186.446 47.1079C186.02 47.373 185.681 47.7258 185.43 48.1661C185.184 48.6017 185.047 49.0776 185.018 49.5937Z" fill="#515579"></path><path d="M197.957 55.9999V45.0908H200.01V46.8238H200.123C200.322 46.2367 200.673 45.775 201.175 45.4388C201.681 45.0979 202.254 44.9275 202.893 44.9275C203.031 44.9275 203.189 44.9322 203.369 44.9417C203.549 44.9511 203.691 44.963 203.795 44.9772V47.0084C203.71 46.9848 203.559 46.9587 203.341 46.9303C203.128 46.8972 202.91 46.8806 202.687 46.8806C201.934 46.8806 201.312 47.1126 200.819 47.5766C200.327 48.0359 200.081 48.623 200.081 49.338V55.9999H197.957Z" fill="#515579"></path></svg>