<svg xmlns="http://www.w3.org/2000/svg" width="51" height="16" viewBox="0 0 51 16" fill="none"><path d="M3.8095 2.49475C3.78882 2.2673 3.69681 2.09051 3.53346 1.96439C3.37218 1.83619 3.14163 1.77209 2.84182 1.77209C2.54407 1.77209 2.32076 1.82895 2.17189 1.94268C2.02302 2.05433 1.94755 2.197 1.94548 2.37069C1.93927 2.55885 2.02095 2.70668 2.1905 2.8142C2.36005 2.91966 2.58853 3.0034 2.87594 3.06543L3.4218 3.18949C4.04831 3.32802 4.52802 3.55443 4.86091 3.86872C5.19588 4.18301 5.36439 4.59345 5.36646 5.10003C5.36439 5.70379 5.14108 6.17523 4.69653 6.51433C4.25198 6.85343 3.63374 7.02298 2.84182 7.02298C2.04369 7.02298 1.40478 6.84309 0.925076 6.48331C0.44744 6.12147 0.203454 5.56939 0.193115 4.8271H1.66324C1.67978 5.13311 1.79247 5.36469 2.00131 5.52184C2.21014 5.67691 2.48411 5.75445 2.82321 5.75445C3.1313 5.75445 3.37218 5.69346 3.54587 5.57146C3.71955 5.44947 3.80743 5.29129 3.8095 5.09693C3.80743 4.91911 3.72472 4.77747 3.56137 4.67202C3.39803 4.5645 3.14163 4.47042 2.79219 4.38978L2.12847 4.2347C1.58053 4.10857 1.14735 3.90491 0.828928 3.6237C0.512573 3.34043 0.355428 2.95791 0.357496 2.47614C0.355428 2.08121 0.46088 1.73591 0.673852 1.44023C0.886823 1.14455 1.18043 0.915036 1.55469 0.751689C1.931 0.586274 2.36108 0.503567 2.84492 0.503567C3.33703 0.503567 3.76401 0.587308 4.12585 0.75479C4.48976 0.920205 4.772 1.15282 4.97257 1.45263C5.17313 1.75038 5.27548 2.09775 5.27962 2.49475H3.8095Z" fill="#F3F3F4"></path><path d="M7.42541 7.02298C6.97052 7.02298 6.59524 6.90719 6.29956 6.6756C6.00595 6.44402 5.85914 6.09252 5.85914 5.62109C5.85914 5.26958 5.93978 4.99044 6.10106 4.78367C6.26234 4.57484 6.47738 4.4208 6.74618 4.32155C7.01498 4.22023 7.30962 4.15613 7.63012 4.12925C8.03745 4.0941 8.32693 4.05068 8.49854 3.99899C8.67223 3.9473 8.75907 3.84908 8.75907 3.70434V3.68883C8.75907 3.52962 8.70428 3.4066 8.59469 3.31975C8.4851 3.23291 8.33726 3.18949 8.15117 3.18949C7.95061 3.18949 7.78933 3.23291 7.66733 3.31975C7.54534 3.4066 7.4678 3.52652 7.43472 3.67953L6.03593 3.62991C6.09589 3.19569 6.30473 2.83488 6.66244 2.54747C7.02222 2.26006 7.5226 2.11636 8.16358 2.11636C8.56884 2.11636 8.92966 2.17943 9.24601 2.30555C9.56443 2.42962 9.81462 2.6095 9.99658 2.84522C10.1806 3.08094 10.2726 3.36731 10.2726 3.70434V6.94234H8.84591V6.27861H8.8087C8.54403 6.77485 8.08294 7.02298 7.42541 7.02298ZM7.89375 6.03049C8.13566 6.03049 8.3414 5.95812 8.51095 5.81338C8.68257 5.66864 8.76838 5.48048 8.76838 5.2489V4.79608C8.6836 4.84157 8.56368 4.87982 8.4086 4.91084C8.25559 4.94185 8.10878 4.9677 7.96818 4.98837C7.51949 5.05661 7.29515 5.2427 7.29515 5.54665C7.29515 5.70379 7.35098 5.82372 7.46263 5.90643C7.57429 5.98913 7.71799 6.03049 7.89375 6.03049Z" fill="#F3F3F4"></path><path d="M11.1406 6.94234V0.590409H12.6572V2.99409H12.6882C12.7792 2.77492 12.9322 2.57435 13.1473 2.3924C13.3644 2.20837 13.6611 2.11636 14.0374 2.11636C14.3703 2.11636 14.6805 2.20424 14.9679 2.37999C15.2553 2.55368 15.4879 2.82144 15.6657 3.18329C15.8435 3.54306 15.9324 4.00312 15.9324 4.56347C15.9324 5.1052 15.8466 5.55699 15.675 5.91883C15.5055 6.28068 15.276 6.55361 14.9865 6.73764C14.6991 6.91959 14.3796 7.01057 14.0281 7.01057C13.6683 7.01057 13.3789 6.92579 13.1597 6.75624C12.9426 6.58463 12.7854 6.38923 12.6882 6.17006H12.6417V6.94234H11.1406ZM12.6262 4.56036C12.6262 4.94702 12.7027 5.25511 12.8557 5.48462C13.0108 5.71413 13.2269 5.82889 13.5039 5.82889C13.7852 5.82889 14.0002 5.71413 14.1491 5.48462C14.3 5.25304 14.3755 4.94495 14.3755 4.56036C14.3755 4.17784 14.3 3.87286 14.1491 3.64541C14.0002 3.4159 13.7852 3.30114 13.5039 3.30114C13.2269 3.30114 13.0108 3.41383 12.8557 3.63921C12.7027 3.86459 12.6262 4.17164 12.6262 4.56036Z" fill="#F3F3F4"></path><path d="M16.6678 6.94234V2.17839H18.141V3.04682H18.1907C18.2775 2.73253 18.4191 2.49888 18.6156 2.34587C18.812 2.1908 19.0405 2.11326 19.301 2.11326C19.4458 2.11326 19.5874 2.13187 19.7259 2.16909V3.48724C19.6536 3.46242 19.5584 3.44278 19.4406 3.42831C19.3248 3.41383 19.2214 3.4066 19.1304 3.4066C18.8596 3.4066 18.6342 3.49447 18.4543 3.67023C18.2744 3.84391 18.1845 4.07239 18.1845 4.35566V6.94234H16.6678Z" fill="#F3F3F4"></path><path d="M20.2845 6.94234V2.17839H21.8012V6.94234H20.2845ZM21.0444 1.62322C20.8314 1.62322 20.6484 1.55292 20.4954 1.41231C20.3424 1.26964 20.2659 1.09803 20.2659 0.897461C20.2659 0.696895 20.3424 0.526311 20.4954 0.385709C20.6484 0.245106 20.8314 0.174805 21.0444 0.174805C21.2594 0.174805 21.4424 0.245106 21.5934 0.385709C21.7464 0.526311 21.8229 0.696895 21.8229 0.897461C21.8229 1.09803 21.7464 1.26964 21.5934 1.41231C21.4424 1.55292 21.2594 1.62322 21.0444 1.62322Z" fill="#F3F3F4"></path><path d="M24.5242 6.94234V0.590409H26.0594V3.13986H28.5623V0.590409H30.0945V6.94234H28.5623V4.38978H26.0594V6.94234H24.5242Z" fill="#F3F3F4"></path><path d="M32.3411 7.02298C31.8862 7.02298 31.5109 6.90719 31.2152 6.6756C30.9216 6.44402 30.7748 6.09252 30.7748 5.62109C30.7748 5.26958 30.8555 4.99044 31.0167 4.78367C31.178 4.57484 31.3931 4.4208 31.6619 4.32155C31.9307 4.22023 32.2253 4.15613 32.5458 4.12925C32.9531 4.0941 33.2426 4.05068 33.4142 3.99899C33.5879 3.9473 33.6747 3.84908 33.6747 3.70434V3.68883C33.6747 3.52962 33.62 3.4066 33.5104 3.31975C33.4008 3.23291 33.2529 3.18949 33.0668 3.18949C32.8663 3.18949 32.705 3.23291 32.583 3.31975C32.461 3.4066 32.3835 3.52652 32.3504 3.67953L30.9516 3.62991C31.0116 3.19569 31.2204 2.83488 31.5781 2.54747C31.9379 2.26006 32.4383 2.11636 33.0793 2.11636C33.4845 2.11636 33.8453 2.17943 34.1617 2.30555C34.4801 2.42962 34.7303 2.6095 34.9123 2.84522C35.0963 3.08094 35.1883 3.36731 35.1883 3.70434V6.94234H33.7616V6.27861H33.7244C33.4597 6.77485 32.9986 7.02298 32.3411 7.02298ZM32.8094 6.03049C33.0513 6.03049 33.2571 5.95812 33.4266 5.81338C33.5982 5.66864 33.6841 5.48048 33.6841 5.2489V4.79608C33.5993 4.84157 33.4794 4.87982 33.3243 4.91084C33.1713 4.94185 33.0245 4.9677 32.8839 4.98837C32.4352 5.05661 32.2108 5.2427 32.2108 5.54665C32.2108 5.70379 32.2667 5.82372 32.3783 5.90643C32.49 5.98913 32.6337 6.03049 32.8094 6.03049Z" fill="#F3F3F4"></path><path d="M36.0563 6.94234V0.590409H37.5729V3.88423H37.6411L38.981 2.17839H40.6992L39.0089 4.25331L40.7675 6.94234H39.0151L37.88 5.14035L37.5729 5.51253V6.94234H36.0563Z" fill="#F3F3F4"></path><path d="M44.2562 4.88602V2.17839H45.7698V6.94234H44.3245V6.0553H44.2748C44.1694 6.34684 43.9895 6.57842 43.7352 6.75004C43.4829 6.91959 43.1779 7.00437 42.8202 7.00437C42.4935 7.00437 42.2072 6.92993 41.9611 6.78106C41.7171 6.63218 41.5269 6.42335 41.3904 6.15455C41.254 5.88575 41.1847 5.5725 41.1826 5.21479V2.17839H42.6993V4.91704C42.7013 5.1755 42.7696 5.37917 42.904 5.52804C43.0384 5.67691 43.2214 5.75135 43.4529 5.75135C43.6783 5.75135 43.8685 5.67691 44.0236 5.52804C44.1787 5.3771 44.2562 5.16309 44.2562 4.88602Z" fill="#F3F3F4"></path><path d="M48.1924 0.590409V6.94234H46.6757V0.590409H48.1924Z" fill="#F3F3F4"></path><path d="M49.0983 6.94234V2.17839H50.615V6.94234H49.0983ZM49.8582 1.62322C49.6452 1.62322 49.4623 1.55292 49.3093 1.41231C49.1562 1.26964 49.0797 1.09803 49.0797 0.897461C49.0797 0.696895 49.1562 0.526311 49.3093 0.385709C49.4623 0.245106 49.6452 0.174805 49.8582 0.174805C50.0733 0.174805 50.2563 0.245106 50.4072 0.385709C50.5602 0.526311 50.6367 0.696895 50.6367 0.897461C50.6367 1.09803 50.5602 1.26964 50.4072 1.41231C50.2563 1.55292 50.0733 1.62322 49.8582 1.62322Z" fill="#F3F3F4"></path><path d="M2.62831 10.2996H3.17772V12.6869C3.17772 12.9409 3.11806 13.166 2.99872 13.3622C2.87939 13.5583 2.71161 13.7119 2.49539 13.823C2.27917 13.934 2.02573 13.9896 1.73507 13.9896C1.44559 13.9896 1.19275 13.934 0.976525 13.823C0.760305 13.7119 0.592527 13.5583 0.473192 13.3622C0.353857 13.166 0.294189 12.9409 0.294189 12.6869V10.2996H0.841831V12.6426C0.841831 12.8884 0.921584 13.091 1.08109 13.2505C1.24178 13.41 1.45977 13.4898 1.73507 13.4898C2.01155 13.4898 2.22954 13.41 2.38905 13.2505C2.54856 13.091 2.62831 12.8884 2.62831 12.6426V10.2996Z" fill="#515579"></path><path d="M5.22877 10.2996V13.9293H4.68113V10.2996H5.22877Z" fill="#515579"></path><path d="M9.77526 13.9807C9.53186 13.9807 9.32214 13.937 9.14609 13.8495C8.97123 13.7609 8.83653 13.6398 8.74201 13.4862C8.64748 13.3326 8.60022 13.1589 8.60022 12.9652C8.60022 12.7489 8.66462 12.5664 8.7934 12.4175C8.92219 12.2675 9.08997 12.121 9.29674 11.978C9.18213 11.8386 9.08701 11.7009 9.0114 11.565C8.93578 11.4292 8.89797 11.2803 8.89797 11.1184C8.89797 10.9507 8.93578 10.8024 9.0114 10.6736C9.0882 10.5448 9.19513 10.4438 9.33218 10.3705C9.46924 10.2973 9.62993 10.2606 9.81425 10.2606C10.0009 10.2606 10.161 10.2973 10.2945 10.3705C10.4292 10.4426 10.5326 10.5389 10.6047 10.6594C10.678 10.7787 10.7146 10.9093 10.7146 11.0511C10.7146 11.2236 10.672 11.376 10.587 11.5083C10.5019 11.6395 10.3837 11.76 10.2325 11.8699L9.98439 12.0524L10.711 12.9209C10.7583 12.8299 10.7949 12.7312 10.8209 12.6249C10.8481 12.5174 10.8617 12.4028 10.8617 12.2811H11.3402C11.3402 12.5327 11.3089 12.7419 11.2463 12.9085C11.1848 13.075 11.1157 13.2097 11.0389 13.3125L11.5546 13.9293H10.9556L10.711 13.6422C10.5882 13.7568 10.4422 13.8419 10.2733 13.8974C10.1043 13.9529 9.93831 13.9807 9.77526 13.9807ZM10.4133 13.2913L9.5998 12.336L9.5041 12.4069C9.36231 12.5109 9.26365 12.6137 9.20812 12.7153C9.15377 12.8169 9.1266 12.8955 9.1266 12.951C9.1266 13.1081 9.18567 13.2446 9.30383 13.3604C9.42316 13.475 9.5809 13.5323 9.77703 13.5323C10.0074 13.5323 10.2195 13.452 10.4133 13.2913ZM9.69196 11.6997L9.91527 11.542C10.0133 11.477 10.0901 11.4085 10.1457 11.3364C10.2024 11.2632 10.2307 11.1728 10.2307 11.0653C10.2307 10.9802 10.1941 10.8987 10.1209 10.8207C10.0476 10.7427 9.94954 10.7037 9.82666 10.7037C9.69905 10.7037 9.59567 10.748 9.5165 10.8366C9.43734 10.9252 9.39776 11.0221 9.39776 11.1273C9.39776 11.2194 9.42612 11.3128 9.48283 11.4073C9.53954 11.5007 9.60925 11.5981 9.69196 11.6997Z" fill="#515579"></path><path d="M17.0817 10.2996H17.6311V12.6869C17.6311 12.9409 17.5714 13.166 17.4521 13.3622C17.3327 13.5583 17.165 13.7119 16.9487 13.823C16.7325 13.934 16.4791 13.9896 16.1884 13.9896C15.899 13.9896 15.6461 13.934 15.4299 13.823C15.2137 13.7119 15.0459 13.5583 14.9265 13.3622C14.8072 13.166 14.7475 12.9409 14.7475 12.6869V10.2996H15.2952V12.6426C15.2952 12.8884 15.3749 13.091 15.5344 13.2505C15.6951 13.41 15.9131 13.4898 16.1884 13.4898C16.4649 13.4898 16.6829 13.41 16.8424 13.2505C17.0019 13.091 17.0817 12.8884 17.0817 12.6426V10.2996Z" fill="#515579"></path><path d="M19.5155 10.2996L20.384 11.7192H20.4123L21.2807 10.2996H21.9152L20.7845 12.1145L21.9223 13.9293H21.2843L20.4123 12.5292H20.384L19.512 13.9293H18.874L20.0313 12.1145L18.881 10.2996H19.5155Z" fill="#515579"></path><path d="M26.3687 13.9293H25.1936V10.2996H26.4059C26.7627 10.2996 27.0681 10.3723 27.3222 10.5176C27.5774 10.6618 27.7729 10.8691 27.9088 11.1397C28.0459 11.4091 28.1144 11.7322 28.1144 12.1091C28.1144 12.4872 28.0459 12.8122 27.9088 13.0839C27.7717 13.3557 27.5727 13.5648 27.3115 13.7113C27.0516 13.8566 26.7373 13.9293 26.3687 13.9293ZM25.7413 13.4508H26.3385C26.7521 13.4508 27.0616 13.335 27.2672 13.1034C27.4728 12.8706 27.5756 12.5392 27.5756 12.1091C27.5756 11.6814 27.474 11.353 27.2708 11.1237C27.0687 10.8933 26.7692 10.7781 26.3722 10.7781H25.7413V13.4508Z" fill="#515579"></path><path d="M30.6333 13.9842C30.3663 13.9842 30.1359 13.9263 29.9421 13.8106C29.7483 13.6948 29.5989 13.5323 29.4937 13.3232C29.3898 13.1129 29.3378 12.8671 29.3378 12.5859C29.3378 12.3071 29.3898 12.0613 29.4937 11.8486C29.5989 11.6359 29.7454 11.4699 29.9333 11.3506C30.1223 11.2313 30.3433 11.1716 30.5961 11.1716C30.8017 11.1716 30.996 11.2177 31.1792 11.3098C31.3635 11.4008 31.513 11.5467 31.6276 11.7476C31.7434 11.9473 31.8013 12.2113 31.8013 12.5398V12.7277H29.8659C29.873 12.99 29.9468 13.192 30.0874 13.3338C30.2281 13.4756 30.4118 13.5465 30.6386 13.5465C30.7899 13.5465 30.9204 13.514 31.0303 13.449C31.1402 13.384 31.2188 13.2871 31.266 13.1583L31.7676 13.2487C31.7073 13.4697 31.5774 13.6475 31.3777 13.7822C31.178 13.9169 30.9299 13.9842 30.6333 13.9842ZM29.8677 12.3307H31.282C31.2808 12.1227 31.2182 11.9508 31.0941 11.8149C30.9701 11.6779 30.8052 11.6094 30.5996 11.6094C30.4567 11.6094 30.3314 11.643 30.2239 11.7104C30.1176 11.7765 30.0331 11.8646 29.9705 11.9745C29.909 12.0832 29.8748 12.2019 29.8677 12.3307Z" fill="#515579"></path><path d="M35.1363 11.8717L34.656 11.9567C34.6253 11.8657 34.568 11.7825 34.4841 11.7068C34.4014 11.63 34.2774 11.5916 34.112 11.5916C33.9619 11.5916 33.8361 11.6253 33.7344 11.6927C33.634 11.7588 33.5844 11.8445 33.5856 11.9496C33.5844 12.0418 33.6175 12.1156 33.6848 12.1712C33.7534 12.2255 33.8626 12.2704 34.0127 12.3059L34.4451 12.4051C34.9414 12.5197 35.1895 12.7655 35.1895 13.1424C35.1895 13.3066 35.1422 13.452 35.0477 13.5784C34.9544 13.7048 34.8238 13.8041 34.656 13.8761C34.4894 13.9482 34.2963 13.9842 34.0765 13.9842C33.7705 13.9842 33.5218 13.9193 33.3304 13.7893C33.139 13.6581 33.0208 13.472 32.9759 13.231L33.4881 13.153C33.5519 13.4224 33.7469 13.5571 34.073 13.5571C34.2466 13.5571 34.3855 13.5211 34.4895 13.449C34.5934 13.3757 34.6454 13.2865 34.6454 13.1814C34.6454 13.0077 34.5172 12.8925 34.2608 12.8358L33.8 12.7348C33.5448 12.6781 33.3569 12.5859 33.2364 12.4583C33.1159 12.3307 33.0557 12.1706 33.0557 11.978C33.0557 11.8173 33.1006 11.6767 33.1904 11.5562C33.2801 11.4345 33.4042 11.34 33.5625 11.2726C33.7209 11.2053 33.9022 11.1716 34.1066 11.1716C34.4008 11.1716 34.6324 11.2354 34.8014 11.363C34.9703 11.4906 35.082 11.6602 35.1363 11.8717Z" fill="#515579"></path><path d="M36.4793 13.9293V11.207H37.0093V13.9293H36.4793ZM36.747 10.787C36.6548 10.787 36.5756 10.7563 36.5095 10.6948C36.4445 10.6322 36.412 10.5578 36.412 10.4715C36.412 10.3841 36.4445 10.3097 36.5095 10.2482C36.5756 10.1856 36.6548 10.1543 36.747 10.1543C36.8379 10.1543 36.9165 10.1856 36.9827 10.2482C37.0488 10.3097 37.0819 10.3841 37.0819 10.4715C37.0819 10.5578 37.0488 10.6322 36.9827 10.6948C36.9165 10.7563 36.8379 10.787 36.747 10.787Z" fill="#515579"></path><path d="M39.5707 15.0015C39.2458 15.0015 38.9894 14.9407 38.8016 14.819C38.6149 14.6973 38.4855 14.5543 38.4134 14.3901L38.8689 14.2022C38.9008 14.2519 38.9433 14.3056 38.9965 14.3635C39.0509 14.4214 39.1241 14.471 39.2163 14.5124C39.3096 14.5537 39.4295 14.5744 39.576 14.5744C39.7769 14.5744 39.9429 14.526 40.0741 14.4291C40.2052 14.3322 40.2708 14.1786 40.2708 13.9683V13.4331H40.2371C40.2052 13.4909 40.1597 13.5553 40.1007 13.6262C40.0416 13.6971 39.9595 13.7586 39.8543 13.8106C39.7503 13.8625 39.615 13.8885 39.4484 13.8885C39.2346 13.8885 39.0414 13.8383 38.8689 13.7379C38.6976 13.6363 38.5617 13.4868 38.4613 13.2895C38.3608 13.091 38.3106 12.847 38.3106 12.5575C38.3106 12.2681 38.3597 12.0199 38.4577 11.8132C38.557 11.6064 38.6929 11.4481 38.8654 11.3382C39.0379 11.2271 39.2334 11.1716 39.452 11.1716C39.621 11.1716 39.7574 11.2 39.8614 11.2567C39.9665 11.3122 40.0481 11.3772 40.106 11.4516C40.165 11.5261 40.2099 11.5916 40.2407 11.6483H40.2797V11.207H40.7989V13.9896C40.7989 14.2211 40.7446 14.4114 40.6359 14.5602C40.5272 14.7103 40.3801 14.8214 40.1946 14.8934C40.0103 14.9655 39.8023 15.0015 39.5707 15.0015ZM39.5654 13.449C39.7946 13.449 39.9701 13.3698 40.0918 13.2115C40.2147 13.052 40.2761 12.8317 40.2761 12.5504C40.2761 12.2752 40.2153 12.0518 40.0936 11.8805C39.973 11.708 39.797 11.6218 39.5654 11.6218C39.4059 11.6218 39.273 11.6631 39.1666 11.7458C39.0603 11.8273 38.98 11.9384 38.9256 12.079C38.8724 12.2184 38.8459 12.3756 38.8459 12.5504C38.8459 12.8175 38.9067 13.0343 39.0284 13.2009C39.1501 13.3663 39.3291 13.449 39.5654 13.449Z" fill="#515579"></path><path d="M42.7467 12.313V13.9293H42.2168V11.207H42.7255V11.6501H42.7591C42.8218 11.506 42.9198 11.3902 43.0534 11.3027C43.188 11.2153 43.3576 11.1716 43.562 11.1716C43.8408 11.1716 44.0647 11.2584 44.2337 11.4321C44.4038 11.6058 44.4889 11.861 44.4889 12.1978V13.9293H43.959V12.2616C43.959 12.0642 43.9076 11.9101 43.8048 11.799C43.702 11.6867 43.5608 11.6306 43.3812 11.6306C43.1969 11.6306 43.0451 11.6903 42.9257 11.8096C42.8064 11.9278 42.7467 12.0956 42.7467 12.313Z" fill="#515579"></path><path d="M47.0801 13.9842C46.813 13.9842 46.5826 13.9263 46.3889 13.8106C46.1951 13.6948 46.0456 13.5323 45.9405 13.3232C45.8365 13.1129 45.7845 12.8671 45.7845 12.5859C45.7845 12.3071 45.8365 12.0613 45.9405 11.8486C46.0456 11.6359 46.1921 11.4699 46.38 11.3506C46.5691 11.2313 46.79 11.1716 47.0429 11.1716C47.2484 11.1716 47.4428 11.2177 47.6259 11.3098C47.8103 11.4008 47.9597 11.5467 48.0743 11.7476C48.1901 11.9473 48.248 12.2113 48.248 12.5398V12.7277H46.3127C46.3198 12.99 46.3936 13.192 46.5342 13.3338C46.6748 13.4756 46.8585 13.5465 47.0854 13.5465C47.2366 13.5465 47.3672 13.514 47.4771 13.449C47.5869 13.384 47.6655 13.2871 47.7128 13.1583L48.2143 13.2487C48.1541 13.4697 48.0241 13.6475 47.8244 13.7822C47.6248 13.9169 47.3766 13.9842 47.0801 13.9842ZM46.3144 12.3307H47.7287C47.7276 12.1227 47.6649 11.9508 47.5409 11.8149C47.4168 11.6779 47.252 11.6094 47.0464 11.6094C46.9034 11.6094 46.7782 11.643 46.6707 11.7104C46.5643 11.7765 46.4798 11.8646 46.4172 11.9745C46.3558 12.0832 46.3215 12.2019 46.3144 12.3307Z" fill="#515579"></path><path d="M49.5432 13.9293V11.207H50.0554V11.6395H50.0837C50.1333 11.493 50.2208 11.3778 50.346 11.2939C50.4724 11.2088 50.6154 11.1663 50.7749 11.1663C50.8092 11.1663 50.8488 11.1675 50.8937 11.1698C50.9386 11.1722 50.974 11.1751 51 11.1787V11.6856C50.9787 11.6797 50.9409 11.6732 50.8866 11.6661C50.8334 11.6578 50.7791 11.6537 50.7235 11.6537C50.5357 11.6537 50.3803 11.7116 50.2574 11.8273C50.1345 11.942 50.0731 12.0885 50.0731 12.2669V13.9293H49.5432Z" fill="#515579"></path></svg>