<svg xmlns="http://www.w3.org/2000/svg" width="101" height="30" viewBox="0 0 101 30" fill="none"><path d="M7.31101 4.741C7.27031 4.29333 7.08921 3.94538 6.76771 3.69713C6.45027 3.4448 5.9965 3.31864 5.40639 3.31864C4.82036 3.31864 4.38083 3.43056 4.08781 3.65439C3.79479 3.87416 3.64625 4.15497 3.64218 4.49682C3.62997 4.86716 3.79072 5.15814 4.12444 5.36977C4.45815 5.57732 4.90786 5.74215 5.47354 5.86424L6.54794 6.10842C7.78106 6.38109 8.72523 6.82672 9.38045 7.44531C10.0397 8.06391 10.3714 8.87174 10.3755 9.86882C10.3714 11.0572 9.93189 11.9851 9.05691 12.6525C8.18192 13.3199 6.96509 13.6536 5.40639 13.6536C3.83549 13.6536 2.57796 13.2996 1.63379 12.5914C0.693687 11.8792 0.213464 10.7926 0.193115 9.33162H3.08667C3.11923 9.93393 3.34102 10.3897 3.75206 10.699C4.1631 11.0043 4.70234 11.1569 5.36977 11.1569C5.97615 11.1569 6.45027 11.0368 6.79212 10.7967C7.13398 10.5566 7.30694 10.2453 7.31101 9.86271C7.30694 9.51272 7.14415 9.23394 6.82265 9.02639C6.50114 8.81477 5.9965 8.62959 5.30872 8.47088L4.00235 8.16565C2.92388 7.9174 2.07128 7.51653 1.44455 6.96305C0.821883 6.40551 0.512586 5.65261 0.516656 4.70437C0.512586 3.92706 0.720141 3.24742 1.13932 2.66546C1.5585 2.08349 2.13639 1.63175 2.87301 1.31025C3.61369 0.984674 4.46019 0.821886 5.4125 0.821886C6.38108 0.821886 7.22148 0.986709 7.93367 1.31635C8.64994 1.64193 9.20545 2.09977 9.60021 2.68988C9.99497 3.27591 10.1964 3.95962 10.2046 4.741H7.31101Z" fill="#F3F3F4"></path><path d="M14.428 13.6536C13.5327 13.6536 12.794 13.4257 12.212 12.9699C11.6342 12.5141 11.3452 11.8223 11.3452 10.8944C11.3452 10.2025 11.5039 9.65312 11.8214 9.24615C12.1388 8.83511 12.562 8.53192 13.0911 8.33658C13.6202 8.13716 14.2001 8.011 14.8309 7.95809C15.6326 7.88891 16.2024 7.80345 16.5402 7.7017C16.882 7.59996 17.0529 7.40665 17.0529 7.12177V7.09125C17.0529 6.77788 16.9451 6.53574 16.7294 6.36481C16.5137 6.19388 16.2227 6.10842 15.8565 6.10842C15.4617 6.10842 15.1443 6.19388 14.9041 6.36481C14.664 6.53574 14.5114 6.77178 14.4463 7.07294L11.6932 6.97526C11.8112 6.12063 12.2222 5.41047 12.9263 4.84478C13.6344 4.27909 14.6193 3.99625 15.8809 3.99625C16.6785 3.99625 17.3887 4.12037 18.0114 4.36863C18.6381 4.61281 19.1305 4.96687 19.4887 5.43081C19.8509 5.89476 20.032 6.45841 20.032 7.12177V13.4949H17.2239V12.1885H17.1506C16.6297 13.1653 15.7222 13.6536 14.428 13.6536ZM15.3498 11.7002C15.8259 11.7002 16.2309 11.5577 16.5646 11.2729C16.9024 10.988 17.0713 10.6176 17.0713 10.1618V9.27057C16.9044 9.3601 16.6684 9.43539 16.3631 9.49644C16.062 9.55748 15.773 9.60835 15.4963 9.64905C14.6132 9.78335 14.1716 10.1496 14.1716 10.7479C14.1716 11.0572 14.2815 11.2932 14.5012 11.456C14.721 11.6188 15.0039 11.7002 15.3498 11.7002Z" fill="#F3F3F4"></path><path d="M21.7403 13.4949V0.992813H24.7254V5.72383H24.7865C24.9656 5.29245 25.2667 4.89768 25.69 4.53955C26.1173 4.17735 26.7013 3.99625 27.442 3.99625C28.0972 3.99625 28.7076 4.16921 29.2733 4.51513C29.839 4.85699 30.2969 5.38401 30.6469 6.09621C30.9968 6.80434 31.1718 7.70984 31.1718 8.81273C31.1718 9.87899 31.0029 10.7682 30.6652 11.4804C30.3315 12.1926 29.8797 12.7298 29.31 13.092C28.7443 13.4501 28.1155 13.6292 27.4237 13.6292C26.7155 13.6292 26.1458 13.4624 25.7144 13.1286C25.2871 12.7909 24.9778 12.4063 24.7865 11.9749H24.6949V13.4949H21.7403ZM24.6644 8.80663C24.6644 9.56766 24.815 10.174 25.1161 10.6258C25.4214 11.0775 25.8466 11.3034 26.392 11.3034C26.9455 11.3034 27.3687 11.0775 27.6617 10.6258C27.9588 10.17 28.1074 9.56359 28.1074 8.80663C28.1074 8.05373 27.9588 7.45345 27.6617 7.00579C27.3687 6.55405 26.9455 6.32818 26.392 6.32818C25.8466 6.32818 25.4214 6.54998 25.1161 6.99358C24.815 7.43717 24.6644 8.04152 24.6644 8.80663Z" fill="#F3F3F4"></path><path d="M32.6192 13.4949V4.11834H35.5189V5.82761H35.6166C35.7875 5.20902 36.0663 4.74914 36.4529 4.44798C36.8395 4.14276 37.2892 3.99014 37.802 3.99014C38.0869 3.99014 38.3656 4.02677 38.6383 4.10003V6.69445C38.4959 6.64562 38.3087 6.60696 38.0767 6.57847C37.8488 6.54998 37.6453 6.53574 37.4662 6.53574C36.9331 6.53574 36.4895 6.7087 36.1355 7.05462C35.7814 7.39648 35.6044 7.84618 35.6044 8.40373V13.4949H32.6192Z" fill="#F3F3F4"></path><path d="M39.7377 13.4949V4.11834H42.7229V13.4949H39.7377ZM41.2334 3.02563C40.8142 3.02563 40.454 2.88726 40.1529 2.61052C39.8517 2.32971 39.7011 1.99192 39.7011 1.59716C39.7011 1.2024 39.8517 0.866653 40.1529 0.589914C40.454 0.313174 40.8142 0.174805 41.2334 0.174805C41.6566 0.174805 42.0168 0.313174 42.3139 0.589914C42.615 0.866653 42.7656 1.2024 42.7656 1.59716C42.7656 1.99192 42.615 2.32971 42.3139 2.61052C42.0168 2.88726 41.6566 3.02563 41.2334 3.02563Z" fill="#F3F3F4"></path><path d="M48.0824 13.4949V0.992813H51.1041V6.01075H56.0305V0.992813H59.0461V13.4949H56.0305V8.47088H51.1041V13.4949H48.0824Z" fill="#F3F3F4"></path><path d="M63.468 13.6536C62.5726 13.6536 61.834 13.4257 61.252 12.9699C60.6741 12.5141 60.3852 11.8223 60.3852 10.8944C60.3852 10.2025 60.5439 9.65312 60.8613 9.24615C61.1787 8.83511 61.602 8.53192 62.1311 8.33658C62.6601 8.13716 63.2401 8.011 63.8709 7.95809C64.6726 7.88891 65.2423 7.80345 65.5801 7.7017C65.922 7.59996 66.0929 7.40665 66.0929 7.12177V7.09125C66.0929 6.77788 65.9851 6.53574 65.7694 6.36481C65.5537 6.19388 65.2627 6.10842 64.8964 6.10842C64.5017 6.10842 64.1842 6.19388 63.9441 6.36481C63.704 6.53574 63.5514 6.77178 63.4863 7.07294L60.7331 6.97526C60.8511 6.12063 61.2622 5.41047 61.9662 4.84478C62.6744 4.27909 63.6592 3.99625 64.9208 3.99625C65.7185 3.99625 66.4287 4.12037 67.0513 4.36863C67.6781 4.61281 68.1705 4.96687 68.5286 5.43081C68.8908 5.89476 69.0719 6.45841 69.0719 7.12177V13.4949H66.2638V12.1885H66.1906C65.6697 13.1653 64.7621 13.6536 63.468 13.6536ZM64.3897 11.7002C64.8659 11.7002 65.2708 11.5577 65.6045 11.2729C65.9423 10.988 66.1112 10.6176 66.1112 10.1618V9.27057C65.9444 9.3601 65.7083 9.43539 65.4031 9.49644C65.1019 9.55748 64.813 9.60835 64.5362 9.64905C63.6531 9.78335 63.2116 10.1496 63.2116 10.7479C63.2116 11.0572 63.3214 11.2932 63.5412 11.456C63.761 11.6188 64.0438 11.7002 64.3897 11.7002Z" fill="#F3F3F4"></path><path d="M70.7803 13.4949V0.992813H73.7654V7.47584H73.8997L76.5369 4.11834H79.9188L76.5918 8.20228L80.0531 13.4949H76.604L74.3697 9.94817L73.7654 10.6807V13.4949H70.7803Z" fill="#F3F3F4"></path><path d="M86.9198 9.4476V4.11834H89.8988V13.4949H87.0541V11.749H86.9564C86.7489 12.3228 86.3948 12.7786 85.8942 13.1164C85.3977 13.4501 84.7974 13.617 84.0934 13.617C83.4504 13.617 82.8867 13.4705 82.4024 13.1775C81.9222 12.8845 81.5478 12.4734 81.2792 11.9444C81.0106 11.4153 80.8743 10.7987 80.8702 10.0947V4.11834H83.8553V9.50865C83.8594 10.0174 83.9937 10.4182 84.2582 10.7112C84.5227 11.0043 84.8829 11.1508 85.3387 11.1508C85.7823 11.1508 86.1567 11.0043 86.4619 10.7112C86.7672 10.4142 86.9198 9.99294 86.9198 9.4476Z" fill="#F3F3F4"></path><path d="M94.6671 0.992813V13.4949H91.6819V0.992813H94.6671Z" fill="#F3F3F4"></path><path d="M96.4502 13.4949V4.11834H99.4353V13.4949H96.4502ZM97.9458 3.02563C97.5266 3.02563 97.1665 2.88726 96.8653 2.61052C96.5642 2.32971 96.4136 1.99192 96.4136 1.59716C96.4136 1.2024 96.5642 0.866653 96.8653 0.589914C97.1665 0.313174 97.5266 0.174805 97.9458 0.174805C98.3691 0.174805 98.7292 0.313174 99.0263 0.589914C99.3275 0.866653 99.4781 1.2024 99.4781 1.59716C99.4781 1.99192 99.3275 2.32971 99.0263 2.61052C98.7292 2.88726 98.3691 3.02563 97.9458 3.02563Z" fill="#F3F3F4"></path><path d="M4.98619 20.1029H6.06757V24.8017C6.06757 25.3017 5.95013 25.7447 5.71525 26.1307C5.48037 26.5168 5.15014 26.8191 4.72457 27.0377C4.299 27.2563 3.80017 27.3656 3.22809 27.3656C2.65833 27.3656 2.16066 27.2563 1.73509 27.0377C1.30952 26.8191 0.979289 26.5168 0.744409 26.1307C0.50953 25.7447 0.39209 25.3017 0.39209 24.8017V20.1029H1.46998V24.7145C1.46998 25.1982 1.62695 25.597 1.9409 25.911C2.25717 26.2249 2.68623 26.3819 3.22809 26.3819C3.77226 26.3819 4.20132 26.2249 4.51527 25.911C4.82922 25.597 4.98619 25.1982 4.98619 24.7145V20.1029Z" fill="#515579"></path><path d="M10.1045 20.1029V27.247H9.02662V20.1029H10.1045Z" fill="#515579"></path><path d="M19.0531 27.3482C18.574 27.3482 18.1612 27.2621 17.8147 27.09C17.4706 26.9156 17.2054 26.6772 17.0194 26.3749C16.8334 26.0726 16.7403 25.7307 16.7403 25.3494C16.7403 24.9238 16.8671 24.5645 17.1206 24.2715C17.374 23.9761 17.7043 23.6878 18.1112 23.4064C17.8857 23.132 17.6985 22.861 17.5496 22.5936C17.4008 22.3262 17.3264 22.0331 17.3264 21.7145C17.3264 21.3843 17.4008 21.0925 17.5496 20.839C17.7008 20.5855 17.9112 20.3867 18.181 20.2425C18.4508 20.0983 18.767 20.0262 19.1298 20.0262C19.4973 20.0262 19.8124 20.0983 20.0752 20.2425C20.3403 20.3843 20.5438 20.5739 20.6856 20.8111C20.8298 21.0459 20.9019 21.3029 20.9019 21.582C20.9019 21.9215 20.8182 22.2215 20.6507 22.482C20.4833 22.7401 20.2507 22.9773 19.9531 23.1936L19.4647 23.5529L20.8949 25.2621C20.9879 25.0831 21.06 24.8889 21.1112 24.6796C21.1647 24.468 21.1914 24.2424 21.1914 24.0029H22.1333C22.1333 24.4982 22.0716 24.9098 21.9484 25.2377C21.8275 25.5656 21.6914 25.8307 21.5402 26.0331L22.5553 27.247H21.3763L20.8949 26.6819C20.6531 26.9075 20.3658 27.0749 20.0333 27.1842C19.7007 27.2935 19.374 27.3482 19.0531 27.3482ZM20.3089 25.9912L18.7077 24.111L18.5194 24.2505C18.2403 24.4552 18.0461 24.6575 17.9368 24.8575C17.8298 25.0575 17.7764 25.2121 17.7764 25.3214C17.7764 25.6307 17.8926 25.8993 18.1252 26.1272C18.3601 26.3528 18.6705 26.4656 19.0566 26.4656C19.5101 26.4656 19.9275 26.3075 20.3089 25.9912ZM18.8891 22.8587L19.3287 22.5482C19.5217 22.4203 19.6728 22.2855 19.7821 22.1436C19.8938 21.9994 19.9496 21.8215 19.9496 21.6099C19.9496 21.4424 19.8775 21.282 19.7333 21.1285C19.5891 20.975 19.3961 20.8983 19.1542 20.8983C18.9031 20.8983 18.6996 20.9855 18.5438 21.1599C18.388 21.3343 18.3101 21.525 18.3101 21.732C18.3101 21.9134 18.3659 22.0971 18.4775 22.2831C18.5891 22.4668 18.7263 22.6587 18.8891 22.8587Z" fill="#515579"></path><path d="M33.4338 20.1029H34.5152V24.8017C34.5152 25.3017 34.3978 25.7447 34.1629 26.1307C33.928 26.5168 33.5978 26.8191 33.1722 27.0377C32.7466 27.2563 32.2478 27.3656 31.6757 27.3656C31.106 27.3656 30.6083 27.2563 30.1827 27.0377C29.7571 26.8191 29.4269 26.5168 29.192 26.1307C28.9572 25.7447 28.8397 25.3017 28.8397 24.8017V20.1029H29.9176V24.7145C29.9176 25.1982 30.0746 25.597 30.3885 25.911C30.7048 26.2249 31.1339 26.3819 31.6757 26.3819C32.2199 26.3819 32.649 26.2249 32.9629 25.911C33.2769 25.597 33.4338 25.1982 33.4338 24.7145V20.1029Z" fill="#515579"></path><path d="M38.2242 20.1029L39.9335 22.8971H39.9893L41.6986 20.1029H42.9474L40.7219 23.675L42.9614 27.247H41.7056L39.9893 24.4912H39.9335L38.2173 27.247H36.9615L39.2393 23.675L36.9754 20.1029H38.2242Z" fill="#515579"></path><path d="M51.7128 27.247H49.4001V20.1029H51.7861C52.4884 20.1029 53.0896 20.246 53.5896 20.532C54.0919 20.8157 54.4767 21.2238 54.7442 21.7564C55.0139 22.2866 55.1488 22.9227 55.1488 23.6645C55.1488 24.4087 55.0139 25.0482 54.7442 25.5831C54.4744 26.1179 54.0826 26.5296 53.5686 26.8179C53.057 27.104 52.4384 27.247 51.7128 27.247ZM50.478 26.3051H51.6535C52.4675 26.3051 53.0768 26.0772 53.4814 25.6214C53.8861 25.1633 54.0884 24.511 54.0884 23.6645C54.0884 22.8227 53.8884 22.1762 53.4884 21.725C53.0907 21.2715 52.5012 21.0448 51.7198 21.0448H50.478V26.3051Z" fill="#515579"></path><path d="M60.1067 27.3551C59.5811 27.3551 59.1276 27.2412 58.7462 27.0133C58.3649 26.7854 58.0707 26.4656 57.8637 26.054C57.6591 25.64 57.5567 25.1563 57.5567 24.6029C57.5567 24.054 57.6591 23.5703 57.8637 23.1517C58.0707 22.7331 58.359 22.4064 58.7288 22.1715C59.1009 21.9366 59.5358 21.8192 60.0334 21.8192C60.4381 21.8192 60.8206 21.9099 61.1811 22.0913C61.5439 22.2703 61.8381 22.5575 62.0636 22.9529C62.2915 23.3459 62.4055 23.8657 62.4055 24.5122V24.8819H58.5963C58.6102 25.3982 58.7556 25.7959 59.0323 26.0749C59.309 26.354 59.6706 26.4935 60.1172 26.4935C60.4148 26.4935 60.6718 26.4296 60.8881 26.3017C61.1043 26.1738 61.259 25.9831 61.352 25.7296L62.3392 25.9075C62.2206 26.3424 61.9648 26.6924 61.5718 26.9575C61.1788 27.2226 60.6904 27.3551 60.1067 27.3551ZM58.5997 24.1005H61.3834C61.3811 23.6912 61.2578 23.3529 61.0136 23.0854C60.7695 22.8157 60.4451 22.6808 60.0404 22.6808C59.759 22.6808 59.5125 22.7471 59.3009 22.8796C59.0916 23.0099 58.9253 23.1831 58.8021 23.3994C58.6811 23.6133 58.6137 23.8471 58.5997 24.1005Z" fill="#515579"></path><path d="M68.9697 23.1971L68.0244 23.3645C67.9639 23.1854 67.8511 23.0215 67.686 22.8727C67.5232 22.7215 67.279 22.6459 66.9535 22.6459C66.6581 22.6459 66.4104 22.7122 66.2105 22.8447C66.0128 22.975 65.9151 23.1436 65.9174 23.3506C65.9151 23.5319 65.9802 23.6773 66.1128 23.7866C66.2477 23.8936 66.4628 23.9819 66.7581 24.0517L67.6093 24.247C68.586 24.4726 69.0744 24.9563 69.0744 25.6982C69.0744 26.0214 68.9813 26.3075 68.7953 26.5563C68.6116 26.8051 68.3546 27.0005 68.0244 27.1423C67.6965 27.2842 67.3162 27.3551 66.8837 27.3551C66.2814 27.3551 65.7919 27.2272 65.4151 26.9714C65.0384 26.7133 64.8058 26.347 64.7175 25.8726L65.7256 25.7191C65.8512 26.2493 66.2349 26.5144 66.8767 26.5144C67.2186 26.5144 67.4918 26.4435 67.6965 26.3017C67.9011 26.1575 68.0034 25.9819 68.0034 25.7749C68.0034 25.4331 67.7511 25.2063 67.2465 25.0947L66.3395 24.8959C65.8372 24.7842 65.4674 24.6029 65.2302 24.3517C64.993 24.1005 64.8744 23.7854 64.8744 23.4064C64.8744 23.0901 64.9628 22.8134 65.1395 22.5761C65.3163 22.3366 65.5605 22.1506 65.8721 22.018C66.1837 21.8855 66.5407 21.8192 66.943 21.8192C67.5221 21.8192 67.9779 21.9448 68.3104 22.1959C68.643 22.4471 68.8627 22.7808 68.9697 23.1971Z" fill="#515579"></path><path d="M71.6131 27.247V21.889H72.6561V27.247H71.6131ZM72.1398 21.0622C71.9584 21.0622 71.8026 21.0018 71.6724 20.8808C71.5445 20.7576 71.4805 20.6111 71.4805 20.4413C71.4805 20.2692 71.5445 20.1227 71.6724 20.0018C71.8026 19.8785 71.9584 19.8169 72.1398 19.8169C72.3189 19.8169 72.4735 19.8785 72.6037 20.0018C72.734 20.1227 72.7991 20.2692 72.7991 20.4413C72.7991 20.6111 72.734 20.7576 72.6037 20.8808C72.4735 21.0018 72.3189 21.0622 72.1398 21.0622Z" fill="#515579"></path><path d="M77.6976 29.3574C77.0581 29.3574 76.5535 29.2377 76.1837 28.9981C75.8163 28.7586 75.5616 28.4772 75.4198 28.154L76.3163 27.7842C76.3791 27.8819 76.4628 27.9877 76.5674 28.1016C76.6744 28.2156 76.8186 28.3133 77 28.3946C77.1837 28.476 77.4197 28.5167 77.7081 28.5167C78.1034 28.5167 78.4302 28.4214 78.6883 28.2307C78.9465 28.04 79.0755 27.7377 79.0755 27.3237V26.2703H79.0092C78.9465 26.3842 78.8569 26.511 78.7406 26.6505C78.6244 26.79 78.4627 26.911 78.2558 27.0133C78.0511 27.1156 77.7849 27.1668 77.457 27.1668C77.036 27.1668 76.6558 27.0679 76.3163 26.8703C75.9791 26.6703 75.7116 26.3761 75.514 25.9877C75.3163 25.597 75.2175 25.1168 75.2175 24.547C75.2175 23.9773 75.314 23.4889 75.507 23.082C75.7023 22.675 75.9698 22.3634 76.3093 22.1471C76.6488 21.9285 77.0337 21.8192 77.4639 21.8192C77.7965 21.8192 78.0651 21.875 78.2697 21.9866C78.4767 22.0959 78.6372 22.2238 78.7511 22.3703C78.8674 22.5168 78.9558 22.6459 79.0162 22.7575H79.093V21.889H80.115V27.3656C80.115 27.8214 80.0081 28.1958 79.7941 28.4888C79.5802 28.7842 79.2906 29.0028 78.9255 29.1446C78.5627 29.2865 78.1534 29.3574 77.6976 29.3574ZM77.6872 26.3017C78.1383 26.3017 78.4837 26.1458 78.7232 25.8342C78.9651 25.5203 79.086 25.0866 79.086 24.5331C79.086 23.9912 78.9662 23.5517 78.7267 23.2145C78.4895 22.875 78.143 22.7052 77.6872 22.7052C77.3732 22.7052 77.1116 22.7866 76.9023 22.9494C76.693 23.1099 76.5349 23.3285 76.4279 23.6052C76.3233 23.8796 76.2709 24.1889 76.2709 24.5331C76.2709 25.0587 76.3907 25.4854 76.6302 25.8133C76.8698 26.1389 77.2221 26.3017 77.6872 26.3017Z" fill="#515579"></path><path d="M83.9488 24.0657V27.247H82.9058V21.889H83.9069V22.761H83.9732C84.0965 22.4773 84.2895 22.2494 84.5523 22.0773C84.8174 21.9052 85.1511 21.8192 85.5534 21.8192C86.1022 21.8192 86.5429 21.9901 86.8755 22.332C87.2104 22.6738 87.3778 23.1761 87.3778 23.8389V27.247H86.3348V23.9645C86.3348 23.5761 86.2336 23.2726 86.0313 23.054C85.829 22.8331 85.5511 22.7227 85.1976 22.7227C84.8348 22.7227 84.536 22.8401 84.3011 23.075C84.0662 23.3075 83.9488 23.6378 83.9488 24.0657Z" fill="#515579"></path><path d="M92.4778 27.3551C91.9522 27.3551 91.4987 27.2412 91.1174 27.0133C90.736 26.7854 90.4418 26.4656 90.2348 26.054C90.0302 25.64 89.9278 25.1563 89.9278 24.6029C89.9278 24.054 90.0302 23.5703 90.2348 23.1517C90.4418 22.7331 90.7302 22.4064 91.0999 22.1715C91.472 21.9366 91.9069 21.8192 92.4045 21.8192C92.8092 21.8192 93.1917 21.9099 93.5522 22.0913C93.915 22.2703 94.2092 22.5575 94.4347 22.9529C94.6626 23.3459 94.7766 23.8657 94.7766 24.5122V24.8819H90.9674C90.9813 25.3982 91.1267 25.7959 91.4034 26.0749C91.6801 26.354 92.0418 26.4935 92.4883 26.4935C92.7859 26.4935 93.0429 26.4296 93.2592 26.3017C93.4755 26.1738 93.6301 25.9831 93.7231 25.7296L94.7103 25.9075C94.5917 26.3424 94.3359 26.6924 93.9429 26.9575C93.5499 27.2226 93.0615 27.3551 92.4778 27.3551ZM90.9708 24.1005H93.7545C93.7522 23.6912 93.6289 23.3529 93.3848 23.0854C93.1406 22.8157 92.8162 22.6808 92.4115 22.6808C92.1301 22.6808 91.8836 22.7471 91.672 22.8796C91.4627 23.0099 91.2964 23.1831 91.1732 23.3994C91.0522 23.6133 90.9848 23.8471 90.9708 24.1005Z" fill="#515579"></path><path d="M97.3258 27.247V21.889H98.3339V22.7401H98.3897C98.4874 22.4517 98.6595 22.225 98.906 22.0599C99.1548 21.8924 99.4362 21.8087 99.7501 21.8087C99.8176 21.8087 99.8955 21.811 99.9839 21.8157C100.072 21.8203 100.142 21.8262 100.193 21.8331V22.8308C100.151 22.8192 100.077 22.8064 99.9699 22.7924C99.8653 22.7761 99.7583 22.768 99.649 22.768C99.2792 22.768 98.9734 22.882 98.7316 23.1099C98.4897 23.3354 98.3688 23.6238 98.3688 23.975V27.247H97.3258Z" fill="#515579"></path></svg>