<svg xmlns="http://www.w3.org/2000/svg" width="1185" height="42" viewBox="0 0 1185 42" fill="none"><rect x="973" y="1" width="208" height="40" rx="10" fill="#0B0B0C" stroke="black"></rect><path d="M988.039 26V16.5455H989.465V24.772H993.749V26H988.039ZM997.546 26.157C997.097 26.157 996.69 26.0739 996.327 25.9077C995.967 25.7415 995.681 25.4983 995.469 25.1783C995.256 24.8551 995.15 24.4612 995.15 23.9964C995.15 23.5933 995.227 23.2624 995.381 23.0039C995.538 22.7454 995.746 22.5407 996.004 22.3899C996.266 22.2391 996.558 22.1268 996.881 22.0529C997.204 21.976 997.534 21.9175 997.869 21.8775C998.294 21.8282 998.637 21.7882 998.899 21.7575C999.163 21.7236 999.356 21.6697 999.476 21.5959C999.599 21.522 999.66 21.402 999.66 21.2358V21.2035C999.66 20.8003 999.547 20.4879 999.319 20.2663C999.094 20.0447 998.759 19.9339 998.312 19.9339C997.848 19.9339 997.481 20.0355 997.214 20.2386C996.949 20.4418 996.766 20.6695 996.664 20.9219L995.367 20.6264C995.598 19.9801 995.983 19.5169 996.521 19.2369C997.063 18.9568 997.654 18.8168 998.294 18.8168C998.577 18.8168 998.877 18.8506 999.194 18.9183C999.511 18.983 999.81 19.1045 1000.09 19.283C1000.37 19.4585 1000.6 19.7077 1000.78 20.0309C1000.96 20.354 1001.05 20.7741 1001.05 21.2912V26H999.697V25.0305H999.642C999.51 25.2952 999.274 25.5491 998.936 25.7923C998.597 26.0354 998.134 26.157 997.546 26.157ZM997.846 25.049C998.231 25.049 998.559 24.9736 998.829 24.8228C999.1 24.672 999.306 24.475 999.448 24.2319C999.593 23.9857 999.665 23.7225 999.665 23.4425V22.5284C999.6 22.593 999.459 22.65 999.24 22.6992C999.022 22.7485 998.791 22.79 998.548 22.8239C998.305 22.8577 998.108 22.8854 997.957 22.907C997.557 22.9593 997.214 23.0655 996.927 23.2255C996.644 23.3825 996.503 23.6456 996.503 24.0149C996.503 24.3565 996.629 24.6151 996.881 24.7905C997.134 24.9628 997.455 25.049 997.846 25.049ZM1007.59 23.0593V18.9091H1008.98V26H1007.62V24.772H1007.55C1007.38 25.1506 1007.12 25.466 1006.76 25.7184C1006.4 25.9677 1005.96 26.0923 1005.43 26.0923C1004.75 26.0923 1004.19 25.8677 1003.75 25.4183C1003.32 24.9659 1003.1 24.2996 1003.1 23.4194V18.9091H1004.48V23.2532C1004.48 23.7364 1004.61 24.1211 1004.88 24.4073C1005.15 24.6935 1005.5 24.8366 1005.93 24.8366C1006.18 24.8366 1006.44 24.772 1006.7 24.6428C1006.96 24.5135 1007.17 24.3181 1007.34 24.0565C1007.51 23.7918 1007.6 23.4594 1007.59 23.0593ZM1012.43 21.7898V26H1011.05V18.9091H1012.37V20.0632H1012.46C1012.62 19.6877 1012.88 19.3861 1013.23 19.1584C1013.58 18.9306 1014.02 18.8168 1014.55 18.8168C1015.28 18.8168 1015.86 19.043 1016.3 19.4954C1016.75 19.9478 1016.97 20.6126 1016.97 21.4897V26H1015.59V21.6559C1015.59 21.1419 1015.45 20.7403 1015.18 20.451C1014.92 20.1586 1014.55 20.0124 1014.08 20.0124C1013.6 20.0124 1013.21 20.1679 1012.9 20.4787C1012.58 20.7865 1012.43 21.2235 1012.43 21.7898ZM1022.02 26.1431C1021.34 26.1431 1020.74 25.9877 1020.25 25.6768C1019.76 25.3629 1019.38 24.9305 1019.11 24.3796C1018.85 23.8287 1018.72 23.1978 1018.72 22.4869C1018.72 21.7636 1018.85 21.1265 1019.12 20.5756C1019.39 20.0247 1019.77 19.5939 1020.27 19.283C1020.76 18.9722 1021.34 18.8168 1022.01 18.8168C1022.55 18.8168 1023.03 18.9168 1023.45 19.1168C1023.87 19.3138 1024.21 19.5908 1024.47 19.9478C1024.73 20.3048 1024.89 20.7218 1024.93 21.1989H1023.59C1023.52 20.8665 1023.35 20.5803 1023.08 20.3402C1022.82 20.1001 1022.47 19.9801 1022.03 19.9801C1021.46 19.9801 1020.99 20.2032 1020.64 20.6495C1020.29 21.0927 1020.11 21.6944 1020.11 22.4545C1020.11 23.227 1020.28 23.841 1020.63 24.2965C1020.98 24.7489 1021.45 24.9751 1022.03 24.9751C1022.42 24.9751 1022.76 24.8674 1023.04 24.652C1023.32 24.4366 1023.51 24.138 1023.59 23.7564H1024.93C1024.89 24.215 1024.74 24.6243 1024.49 24.9844C1024.24 25.3445 1023.9 25.6276 1023.49 25.8338C1023.07 26.04 1022.58 26.1431 1022.02 26.1431ZM1028.01 21.7898V26H1026.63V16.5455H1027.99V20.0632H1028.08C1028.24 19.6785 1028.5 19.3754 1028.84 19.1538C1029.18 18.9291 1029.63 18.8168 1030.18 18.8168C1030.91 18.8168 1031.49 19.0414 1031.94 19.4908C1032.38 19.9401 1032.61 20.6064 1032.61 21.4897V26H1031.23V21.6559C1031.23 21.1358 1031.09 20.7326 1030.82 20.4464C1030.56 20.1571 1030.18 20.0124 1029.71 20.0124C1029.21 20.0124 1028.81 20.1679 1028.49 20.4787C1028.17 20.7865 1028.01 21.2235 1028.01 21.7898ZM1041.92 16.1023L1038.88 27.4219H1037.64L1040.69 16.1023H1041.92ZM1047.08 26V16.5455H1048.51V20.6541H1053.22V16.5455H1054.65V26H1053.22V21.8775H1048.51V26H1047.08ZM1058.9 26.157C1058.45 26.157 1058.04 26.0739 1057.68 25.9077C1057.32 25.7415 1057.03 25.4983 1056.82 25.1783C1056.61 24.8551 1056.5 24.4612 1056.5 23.9964C1056.5 23.5933 1056.58 23.2624 1056.73 23.0039C1056.89 22.7454 1057.1 22.5407 1057.36 22.3899C1057.62 22.2391 1057.91 22.1268 1058.23 22.0529C1058.56 21.976 1058.89 21.9175 1059.22 21.8775C1059.65 21.8282 1059.99 21.7882 1060.25 21.7575C1060.51 21.7236 1060.71 21.6697 1060.83 21.5959C1060.95 21.522 1061.01 21.402 1061.01 21.2358V21.2035C1061.01 20.8003 1060.9 20.4879 1060.67 20.2663C1060.45 20.0447 1060.11 19.9339 1059.66 19.9339C1059.2 19.9339 1058.83 20.0355 1058.57 20.2386C1058.3 20.4418 1058.12 20.6695 1058.02 20.9219L1056.72 20.6264C1056.95 19.9801 1057.33 19.5169 1057.87 19.2369C1058.41 18.9568 1059.01 18.8168 1059.65 18.8168C1059.93 18.8168 1060.23 18.8506 1060.55 18.9183C1060.86 18.983 1061.16 19.1045 1061.44 19.283C1061.72 19.4585 1061.95 19.7077 1062.13 20.0309C1062.31 20.354 1062.4 20.7741 1062.4 21.2912V26H1061.05V25.0305H1060.99C1060.86 25.2952 1060.63 25.5491 1060.29 25.7923C1059.95 26.0354 1059.49 26.157 1058.9 26.157ZM1059.2 25.049C1059.58 25.049 1059.91 24.9736 1060.18 24.8228C1060.45 24.672 1060.66 24.475 1060.8 24.2319C1060.94 23.9857 1061.02 23.7225 1061.02 23.4425V22.5284C1060.95 22.593 1060.81 22.65 1060.59 22.6992C1060.37 22.7485 1060.14 22.79 1059.9 22.8239C1059.66 22.8577 1059.46 22.8854 1059.31 22.907C1058.91 22.9593 1058.57 23.0655 1058.28 23.2255C1058 23.3825 1057.85 23.6456 1057.85 24.0149C1057.85 24.3565 1057.98 24.6151 1058.23 24.7905C1058.48 24.9628 1058.81 25.049 1059.2 25.049ZM1065.83 21.7898V26H1064.45V18.9091H1065.78V20.0632H1065.86C1066.03 19.6877 1066.28 19.3861 1066.63 19.1584C1066.98 18.9306 1067.42 18.8168 1067.96 18.8168C1068.68 18.8168 1069.27 19.043 1069.71 19.4954C1070.15 19.9478 1070.37 20.6126 1070.37 21.4897V26H1068.99V21.6559C1068.99 21.1419 1068.86 20.7403 1068.59 20.451C1068.32 20.1586 1067.95 20.0124 1067.48 20.0124C1067 20.0124 1066.61 20.1679 1066.3 20.4787C1065.99 20.7865 1065.83 21.2235 1065.83 21.7898ZM1075.09 26.1385C1074.52 26.1385 1074.01 25.9923 1073.56 25.6999C1073.12 25.4076 1072.77 24.9875 1072.51 24.4396C1072.26 23.8887 1072.13 23.2317 1072.13 22.4684C1072.13 21.7021 1072.26 21.0465 1072.51 20.5018C1072.77 19.957 1073.12 19.54 1073.57 19.2507C1074.02 18.9614 1074.53 18.8168 1075.1 18.8168C1075.54 18.8168 1075.9 18.8906 1076.16 19.0384C1076.43 19.183 1076.64 19.3523 1076.79 19.5462C1076.94 19.7401 1077.06 19.9109 1077.14 20.0586H1077.23V16.5455H1078.61V26H1077.26V24.8967H1077.14C1077.06 25.0475 1076.94 25.2198 1076.78 25.4137C1076.63 25.6076 1076.42 25.7769 1076.15 25.9215C1075.87 26.0662 1075.52 26.1385 1075.09 26.1385ZM1075.4 24.9613C1075.99 24.9613 1076.45 24.7305 1076.77 24.2688C1077.09 23.8041 1077.25 23.1993 1077.25 22.4545C1077.25 21.7128 1077.09 21.1173 1076.77 20.668C1076.46 20.2156 1076 19.9893 1075.4 19.9893C1074.98 19.9893 1074.64 20.0971 1074.36 20.3125C1074.08 20.5279 1073.87 20.8219 1073.73 21.1942C1073.59 21.5636 1073.52 21.9837 1073.52 22.4545C1073.52 22.9285 1073.59 23.3548 1073.74 23.7333C1073.88 24.1119 1074.09 24.4119 1074.36 24.6335C1074.64 24.852 1074.99 24.9613 1075.4 24.9613ZM1083.78 26.1431C1083.11 26.1431 1082.53 25.9908 1082.04 25.6861C1081.54 25.3814 1081.16 24.9551 1080.88 24.4073C1080.61 23.8564 1080.47 23.2163 1080.47 22.4869C1080.47 21.7513 1080.61 21.1081 1080.88 20.5572C1081.16 20.0063 1081.54 19.5785 1082.04 19.2738C1082.53 18.9691 1083.11 18.8168 1083.78 18.8168C1084.45 18.8168 1085.03 18.9691 1085.52 19.2738C1086.02 19.5785 1086.4 20.0063 1086.67 20.5572C1086.95 21.1081 1087.08 21.7513 1087.08 22.4869C1087.08 23.2163 1086.95 23.8564 1086.67 24.4073C1086.4 24.9551 1086.02 25.3814 1085.52 25.6861C1085.03 25.9908 1084.45 26.1431 1083.78 26.1431ZM1083.78 24.9844C1084.22 24.9844 1084.57 24.8705 1084.85 24.6428C1085.14 24.415 1085.35 24.1119 1085.48 23.7333C1085.62 23.3517 1085.69 22.9347 1085.69 22.4822C1085.69 22.0298 1085.62 21.6128 1085.48 21.2312C1085.35 20.8495 1085.14 20.5449 1084.85 20.3171C1084.57 20.0863 1084.22 19.9709 1083.78 19.9709C1083.35 19.9709 1082.99 20.0863 1082.71 20.3171C1082.43 20.5449 1082.21 20.8495 1082.08 21.2312C1081.94 21.6128 1081.87 22.0298 1081.87 22.4822C1081.87 22.9347 1081.94 23.3517 1082.08 23.7333C1082.21 24.1119 1082.43 24.415 1082.71 24.6428C1082.99 24.8705 1083.35 24.9844 1083.78 24.9844ZM1092.22 18.9091V20.017H1090.69V26H1089.3V20.017H1088.21V18.9091H1089.3V18.0874C1089.3 17.6442 1089.4 17.2764 1089.59 16.984C1089.79 16.6886 1090.05 16.4685 1090.37 16.3239C1090.69 16.1761 1091.04 16.1023 1091.41 16.1023C1091.69 16.1023 1091.93 16.1254 1092.12 16.1715C1092.32 16.2146 1092.47 16.2546 1092.56 16.2915L1092.24 17.4087C1092.18 17.3872 1092.09 17.3641 1091.99 17.3395C1091.89 17.3149 1091.77 17.3026 1091.62 17.3026C1091.29 17.3026 1091.05 17.3857 1090.9 17.5518C1090.76 17.718 1090.69 17.9581 1090.69 18.272V18.9091H1092.22ZM1097.23 18.9091V20.017H1095.7V26H1094.32V20.017H1093.23V18.9091H1094.32V18.0874C1094.32 17.6442 1094.42 17.2764 1094.61 16.984C1094.81 16.6886 1095.07 16.4685 1095.39 16.3239C1095.71 16.1761 1096.05 16.1023 1096.42 16.1023C1096.7 16.1023 1096.94 16.1254 1097.14 16.1715C1097.34 16.2146 1097.48 16.2546 1097.58 16.2915L1097.26 17.4087C1097.19 17.3872 1097.11 17.3641 1097.01 17.3395C1096.9 17.3149 1096.78 17.3026 1096.64 17.3026C1096.3 17.3026 1096.06 17.3857 1095.92 17.5518C1095.77 17.718 1095.7 17.9581 1095.7 18.272V18.9091H1097.23Z" fill="white"></path><rect x="649" y="1" width="208" height="40" rx="10" fill="#0B0B0C" stroke="black"></rect><path d="M667.099 26H664.039V16.5455H667.196C668.126 16.5455 668.921 16.7347 669.583 17.1133C670.248 17.4888 670.757 18.0289 671.111 18.7337C671.468 19.4354 671.647 20.2771 671.647 21.2589C671.647 22.2437 671.468 23.0901 671.111 23.7979C670.754 24.5058 670.236 25.0505 669.555 25.4322C668.878 25.8107 668.06 26 667.099 26ZM665.465 24.7536H667.021C668.098 24.7536 668.904 24.4519 669.44 23.8487C669.975 23.2424 670.243 22.3791 670.243 21.2589C670.243 20.1448 669.979 19.2892 669.449 18.6921C668.923 18.092 668.143 17.7919 667.109 17.7919H665.465V24.7536ZM676.583 26.1431C675.887 26.1431 675.287 25.9923 674.782 25.6907C674.277 25.3891 673.888 24.9659 673.614 24.4212C673.343 23.8733 673.208 23.2332 673.208 22.5007C673.208 21.7744 673.343 21.1342 673.614 20.5803C673.888 20.0263 674.27 19.5939 674.759 19.283C675.251 18.9722 675.827 18.8168 676.486 18.8168C677.021 18.8168 677.527 18.9368 678.004 19.1768C678.485 19.4138 678.874 19.7939 679.172 20.3171C679.474 20.8372 679.625 21.5251 679.625 22.3807V22.87H674.584C674.602 23.5533 674.794 24.0795 675.161 24.4489C675.527 24.8182 676.005 25.0028 676.596 25.0028C676.99 25.0028 677.33 24.9182 677.617 24.7489C677.903 24.5797 678.107 24.3273 678.231 23.9918L679.537 24.2273C679.38 24.8028 679.042 25.266 678.521 25.6168C678.001 25.9677 677.355 26.1431 676.583 26.1431ZM674.588 21.8359H678.272C678.269 21.2943 678.106 20.8465 677.783 20.4925C677.46 20.1355 677.03 19.957 676.495 19.957C676.122 19.957 675.796 20.0447 675.516 20.2202C675.239 20.3925 675.019 20.6218 674.856 20.908C674.696 21.1912 674.607 21.5005 674.588 21.8359ZM686.687 20.6403L685.435 20.8619C685.355 20.6249 685.206 20.4079 684.988 20.2109C684.772 20.0109 684.449 19.9109 684.018 19.9109C683.627 19.9109 683.3 19.9986 683.035 20.174C682.773 20.3464 682.644 20.5695 682.647 20.8434C682.644 21.0835 682.73 21.2758 682.906 21.4205C683.084 21.562 683.369 21.679 683.76 21.7713L684.886 22.0298C686.179 22.3284 686.825 22.9685 686.825 23.9503C686.825 24.3781 686.702 24.7566 686.456 25.0859C686.213 25.4152 685.872 25.6738 685.435 25.8615C685.002 26.0492 684.498 26.1431 683.926 26.1431C683.129 26.1431 682.481 25.9738 681.982 25.6353C681.484 25.2937 681.176 24.8089 681.059 24.1811L682.393 23.978C682.559 24.6797 683.067 25.0305 683.917 25.0305C684.369 25.0305 684.731 24.9367 685.002 24.7489C685.272 24.5581 685.408 24.3258 685.408 24.0518C685.408 23.5994 685.074 23.2994 684.406 23.1516L683.206 22.8885C682.541 22.7408 682.052 22.5007 681.738 22.1683C681.424 21.8359 681.267 21.4189 681.267 20.9173C681.267 20.4987 681.384 20.1325 681.618 19.8185C681.852 19.5015 682.175 19.2553 682.587 19.0799C683 18.9045 683.472 18.8168 684.004 18.8168C684.771 18.8168 685.374 18.983 685.814 19.3153C686.254 19.6477 686.545 20.0894 686.687 20.6403ZM688.559 26V18.9091H689.94V26H688.559ZM689.256 17.815C689.016 17.815 688.81 17.735 688.638 17.5749C688.469 17.4118 688.384 17.2179 688.384 16.9933C688.384 16.7655 688.469 16.5716 688.638 16.4116C688.81 16.2485 689.016 16.1669 689.256 16.1669C689.493 16.1669 689.698 16.2485 689.87 16.4116C690.043 16.5716 690.129 16.7655 690.129 16.9933C690.129 17.2179 690.043 17.4118 689.87 17.5749C689.698 17.735 689.493 17.815 689.256 17.815ZM694.986 28.793C694.14 28.793 693.472 28.6345 692.983 28.3175C692.497 28.0005 692.16 27.6281 691.972 27.2003L693.158 26.7109C693.241 26.8402 693.352 26.9802 693.491 27.131C693.632 27.2818 693.823 27.4111 694.063 27.5188C694.306 27.6265 694.619 27.6804 695 27.6804C695.523 27.6804 695.956 27.5542 696.297 27.3018C696.639 27.0495 696.81 26.6494 696.81 26.1016V24.7074H696.722C696.639 24.8582 696.521 25.0259 696.367 25.2106C696.213 25.3952 695.999 25.5553 695.725 25.6907C695.454 25.8261 695.102 25.8938 694.668 25.8938C694.111 25.8938 693.608 25.763 693.158 25.5014C692.712 25.2367 692.358 24.8474 692.096 24.3335C691.835 23.8164 691.704 23.1809 691.704 22.4268C691.704 21.6728 691.832 21.0265 692.087 20.4879C692.346 19.9493 692.7 19.5369 693.149 19.2507C693.598 18.9614 694.108 18.8168 694.677 18.8168C695.117 18.8168 695.473 18.8906 695.743 19.0384C696.017 19.183 696.23 19.3523 696.381 19.5462C696.534 19.7401 696.651 19.9109 696.731 20.0586H696.833V18.9091H698.186V26.157C698.186 26.7602 698.044 27.2557 697.761 27.6435C697.478 28.0343 697.095 28.3236 696.611 28.5114C696.131 28.6991 695.59 28.793 694.986 28.793ZM694.972 24.7489C695.57 24.7489 696.027 24.5427 696.344 24.1303C696.664 23.7148 696.824 23.1409 696.824 22.4084C696.824 21.6913 696.665 21.1096 696.348 20.6634C696.034 20.214 695.576 19.9893 694.972 19.9893C694.557 19.9893 694.211 20.0971 693.934 20.3125C693.657 20.5249 693.448 20.8142 693.306 21.1804C693.167 21.5436 693.098 21.9529 693.098 22.4084C693.098 23.1039 693.257 23.6687 693.574 24.1026C693.891 24.5335 694.357 24.7489 694.972 24.7489ZM701.634 21.7898V26H700.253V18.9091H701.578V20.0632H701.666C701.829 19.6877 702.085 19.3861 702.432 19.1584C702.783 18.9306 703.225 18.8168 703.757 18.8168C704.484 18.8168 705.067 19.043 705.507 19.4954C705.95 19.9478 706.172 20.6126 706.172 21.4897V26H704.791V21.6559C704.791 21.1419 704.658 20.7403 704.39 20.451C704.122 20.1586 703.754 20.0124 703.286 20.0124C702.806 20.0124 702.411 20.1679 702.1 20.4787C701.789 20.7865 701.634 21.2235 701.634 21.7898Z" fill="white"></path><path d="M856.492 21.5H972.525" stroke="black" stroke-linecap="square"></path><path fill-rule="evenodd" clip-rule="evenodd" d="M857.5 24C858.881 24 860 22.8807 860 21.5C860 20.1193 858.881 19 857.5 19C856.119 19 855 20.1193 855 21.5C855 22.8807 856.119 24 857.5 24Z" fill="#FED45D" stroke="black" stroke-width="3"></path><path fill-rule="evenodd" clip-rule="evenodd" d="M972.5 24C973.881 24 975 22.8807 975 21.5C975 20.1193 973.881 19 972.5 19C971.119 19 970 20.1193 970 21.5C970 22.8807 971.119 24 972.5 24Z" fill="#FED45D" stroke="black" stroke-width="3"></path><rect x="326" y="1" width="208" height="40" rx="10" fill="#0B0B0C" stroke="black"></rect><path d="M341.039 26V16.5455H344.409C345.141 16.5455 345.749 16.6716 346.232 16.924C346.715 17.1764 347.077 17.5257 347.317 17.9719C347.56 18.4151 347.682 18.9276 347.682 19.5092C347.682 20.1432 347.537 20.6926 347.248 21.1573C346.962 21.619 346.528 21.9575 345.946 22.1729L348.042 26H346.417L344.496 22.4222C344.466 22.4222 344.435 22.4222 344.404 22.4222H342.465V26H341.039ZM342.465 21.1942H344.275C344.97 21.1942 345.472 21.0465 345.78 20.7511C346.091 20.4556 346.246 20.0417 346.246 19.5092C346.246 18.9737 346.091 18.5505 345.78 18.2397C345.469 17.9258 344.961 17.7688 344.256 17.7688H342.465V21.1942ZM352.491 26.1431C351.795 26.1431 351.195 25.9923 350.69 25.6907C350.186 25.3891 349.796 24.9659 349.522 24.4212C349.251 23.8733 349.116 23.2332 349.116 22.5007C349.116 21.7744 349.251 21.1342 349.522 20.5803C349.796 20.0263 350.178 19.5939 350.667 19.283C351.16 18.9722 351.735 18.8168 352.394 18.8168C352.929 18.8168 353.436 18.9368 353.913 19.1768C354.393 19.4138 354.782 19.7939 355.081 20.3171C355.382 20.8372 355.533 21.5251 355.533 22.3807V22.87H350.492C350.51 23.5533 350.703 24.0795 351.069 24.4489C351.435 24.8182 351.914 25.0028 352.505 25.0028C352.899 25.0028 353.239 24.9182 353.525 24.7489C353.811 24.5797 354.016 24.3273 354.139 23.9918L355.445 24.2273C355.288 24.8028 354.95 25.266 354.43 25.6168C353.91 25.9677 353.263 26.1431 352.491 26.1431ZM350.496 21.8359H354.18C354.177 21.2943 354.014 20.8465 353.691 20.4925C353.368 20.1355 352.939 19.957 352.403 19.957C352.031 19.957 351.704 20.0447 351.424 20.2202C351.147 20.3925 350.927 20.6218 350.764 20.908C350.604 21.1912 350.515 21.5005 350.496 21.8359ZM362.595 20.6403L361.344 20.8619C361.264 20.6249 361.114 20.4079 360.896 20.2109C360.68 20.0109 360.357 19.9109 359.926 19.9109C359.536 19.9109 359.208 19.9986 358.943 20.174C358.681 20.3464 358.552 20.5695 358.555 20.8434C358.552 21.0835 358.638 21.2758 358.814 21.4205C358.992 21.562 359.277 21.679 359.668 21.7713L360.794 22.0298C362.087 22.3284 362.733 22.9685 362.733 23.9503C362.733 24.3781 362.61 24.7566 362.364 25.0859C362.121 25.4152 361.781 25.6738 361.344 25.8615C360.91 26.0492 360.407 26.1431 359.834 26.1431C359.037 26.1431 358.389 25.9738 357.891 25.6353C357.392 25.2937 357.084 24.8089 356.967 24.1811L358.301 23.978C358.468 24.6797 358.975 25.0305 359.825 25.0305C360.277 25.0305 360.639 24.9367 360.91 24.7489C361.181 24.5581 361.316 24.3258 361.316 24.0518C361.316 23.5994 360.982 23.2994 360.314 23.1516L359.114 22.8885C358.449 22.7408 357.96 22.5007 357.646 22.1683C357.332 21.8359 357.175 21.4189 357.175 20.9173C357.175 20.4987 357.292 20.1325 357.526 19.8185C357.76 19.5015 358.083 19.2553 358.495 19.0799C358.908 18.9045 359.38 18.8168 359.913 18.8168C360.679 18.8168 361.282 18.983 361.722 19.3153C362.162 19.6477 362.453 20.0894 362.595 20.6403ZM367.524 26.1431C366.828 26.1431 366.228 25.9923 365.723 25.6907C365.219 25.3891 364.829 24.9659 364.555 24.4212C364.284 23.8733 364.149 23.2332 364.149 22.5007C364.149 21.7744 364.284 21.1342 364.555 20.5803C364.829 20.0263 365.211 19.5939 365.7 19.283C366.193 18.9722 366.768 18.8168 367.427 18.8168C367.962 18.8168 368.469 18.9368 368.946 19.1768C369.426 19.4138 369.815 19.7939 370.114 20.3171C370.415 20.8372 370.566 21.5251 370.566 22.3807V22.87H365.525C365.543 23.5533 365.736 24.0795 366.102 24.4489C366.468 24.8182 366.947 25.0028 367.538 25.0028C367.931 25.0028 368.272 24.9182 368.558 24.7489C368.844 24.5797 369.049 24.3273 369.172 23.9918L370.478 24.2273C370.321 24.8028 369.983 25.266 369.463 25.6168C368.942 25.9677 368.296 26.1431 367.524 26.1431ZM365.529 21.8359H369.213C369.21 21.2943 369.047 20.8465 368.724 20.4925C368.401 20.1355 367.971 19.957 367.436 19.957C367.064 19.957 366.737 20.0447 366.457 20.2202C366.18 20.3925 365.96 20.6218 365.797 20.908C365.637 21.1912 365.548 21.5005 365.529 21.8359ZM374.378 26.157C373.928 26.157 373.522 26.0739 373.159 25.9077C372.799 25.7415 372.513 25.4983 372.3 25.1783C372.088 24.8551 371.982 24.4612 371.982 23.9964C371.982 23.5933 372.059 23.2624 372.213 23.0039C372.37 22.7454 372.577 22.5407 372.836 22.3899C373.097 22.2391 373.39 22.1268 373.713 22.0529C374.036 21.976 374.365 21.9175 374.701 21.8775C375.126 21.8282 375.469 21.7882 375.73 21.7575C375.995 21.7236 376.187 21.6697 376.307 21.5959C376.43 21.522 376.492 21.402 376.492 21.2358V21.2035C376.492 20.8003 376.378 20.4879 376.15 20.2663C375.926 20.0447 375.59 19.9339 375.144 19.9339C374.679 19.9339 374.313 20.0355 374.045 20.2386C373.781 20.4418 373.597 20.6695 373.496 20.9219L372.199 20.6264C372.43 19.9801 372.814 19.5169 373.353 19.2369C373.894 18.9568 374.485 18.8168 375.126 18.8168C375.409 18.8168 375.709 18.8506 376.026 18.9183C376.343 18.983 376.641 19.1045 376.921 19.283C377.204 19.4585 377.434 19.7077 377.609 20.0309C377.788 20.354 377.877 20.7741 377.877 21.2912V26H376.529V25.0305H376.474C376.341 25.2952 376.106 25.5491 375.767 25.7923C375.429 26.0354 374.966 26.157 374.378 26.157ZM374.678 25.049C375.062 25.049 375.39 24.9736 375.661 24.8228C375.932 24.672 376.138 24.475 376.28 24.2319C376.424 23.9857 376.497 23.7225 376.497 23.4425V22.5284C376.432 22.593 376.29 22.65 376.072 22.6992C375.853 22.7485 375.623 22.79 375.379 22.8239C375.136 22.8577 374.939 22.8854 374.789 22.907C374.388 22.9593 374.045 23.0655 373.759 23.2255C373.476 23.3825 373.334 23.6456 373.334 24.0149C373.334 24.3565 373.461 24.6151 373.713 24.7905C373.965 24.9628 374.287 25.049 374.678 25.049ZM379.932 26V18.9091H381.266V20.0355H381.34C381.469 19.6539 381.697 19.3538 382.023 19.1353C382.353 18.9137 382.725 18.8029 383.141 18.8029C383.23 18.8029 383.333 18.806 383.45 18.8121C383.567 18.8183 383.659 18.826 383.727 18.8352V20.1555C383.671 20.1402 383.573 20.1232 383.431 20.1048C383.293 20.0832 383.151 20.0724 383.007 20.0724C382.517 20.0724 382.113 20.2232 381.793 20.5249C381.473 20.8234 381.312 21.205 381.312 21.6697V26H379.932ZM387.871 26.1431C387.185 26.1431 386.594 25.9877 386.098 25.6768C385.606 25.3629 385.227 24.9305 384.963 24.3796C384.698 23.8287 384.566 23.1978 384.566 22.4869C384.566 21.7636 384.701 21.1265 384.972 20.5756C385.243 20.0247 385.624 19.5939 386.117 19.283C386.612 18.9722 387.192 18.8168 387.857 18.8168C388.396 18.8168 388.876 18.9168 389.298 19.1168C389.719 19.3138 390.059 19.5908 390.318 19.9478C390.579 20.3048 390.735 20.7218 390.784 21.1989H389.441C389.367 20.8665 389.197 20.5803 388.933 20.3402C388.671 20.1001 388.32 19.9801 387.88 19.9801C387.305 19.9801 386.84 20.2032 386.486 20.6495C386.135 21.0927 385.96 21.6944 385.96 22.4545C385.96 23.227 386.134 23.841 386.481 24.2965C386.829 24.7489 387.296 24.9751 387.88 24.9751C388.274 24.9751 388.611 24.8674 388.891 24.652C389.171 24.4366 389.354 24.138 389.441 23.7564H390.784C390.735 24.215 390.586 24.6243 390.336 24.9844C390.087 25.3445 389.753 25.6276 389.334 25.8338C388.919 26.04 388.431 26.1431 387.871 26.1431ZM393.857 21.7898V26H392.477V16.5455H393.839V20.0632H393.926C394.093 19.6785 394.346 19.3754 394.688 19.1538C395.03 18.9291 395.476 18.8168 396.027 18.8168C396.756 18.8168 397.343 19.0414 397.786 19.4908C398.232 19.9401 398.455 20.6064 398.455 21.4897V26H397.075V21.6559C397.075 21.1358 396.941 20.7326 396.673 20.4464C396.405 20.1571 396.033 20.0124 395.556 20.0124C395.064 20.0124 394.657 20.1679 394.337 20.4787C394.017 20.7865 393.857 21.2235 393.857 21.7898Z" fill="white"></path><path d="M533.492 21.5H649.525" stroke="black" stroke-linecap="square"></path><path fill-rule="evenodd" clip-rule="evenodd" d="M534.5 24C535.881 24 537 22.8807 537 21.5C537 20.1193 535.881 19 534.5 19C533.119 19 532 20.1193 532 21.5C532 22.8807 533.119 24 534.5 24Z" fill="#FED45D" stroke="black" stroke-width="3"></path><path fill-rule="evenodd" clip-rule="evenodd" d="M649.5 24C650.881 24 652 22.8807 652 21.5C652 20.1193 650.881 19 649.5 19C648.119 19 647 20.1193 647 21.5C647 22.8807 648.119 24 649.5 24Z" fill="#FED45D" stroke="black" stroke-width="3"></path><rect x="1" y="1" width="210" height="40" rx="10" fill="#0B0B0C" stroke="black"></rect><path d="M22.1186 16.5455H23.5497V22.7638C23.5497 23.4255 23.3943 24.0118 23.0835 24.5227C22.7726 25.0336 22.3356 25.4337 21.7724 25.723C21.2092 26.0123 20.549 26.157 19.7919 26.157C19.0379 26.157 18.3793 26.0123 17.8161 25.723C17.2528 25.4337 16.8158 25.0336 16.505 24.5227C16.1941 24.0118 16.0387 23.4255 16.0387 22.7638V16.5455H17.4652V22.6484C17.4652 23.2886 17.6729 23.8164 18.0884 24.2319C18.507 24.6474 19.0748 24.8551 19.7919 24.8551C20.5121 24.8551 21.0799 24.6474 21.4954 24.2319C21.9109 23.8164 22.1186 23.2886 22.1186 22.6484V16.5455ZM27.1099 21.7898V26H25.7295V18.9091H27.0545V20.0632H27.1422C27.3053 19.6877 27.5607 19.3861 27.9085 19.1584C28.2594 18.9306 28.701 18.8168 29.2334 18.8168C29.9598 18.8168 30.543 19.043 30.9831 19.4954C31.4263 19.9478 31.6479 20.6126 31.6479 21.4897V26H30.2675V21.6559C30.2675 21.1419 30.1337 20.7403 29.8659 20.451C29.5981 20.1586 29.2304 20.0124 28.7626 20.0124C28.2825 20.0124 27.887 20.1679 27.5761 20.4787C27.2653 20.7865 27.1099 21.2235 27.1099 21.7898ZM36.3702 26.1385C35.7978 26.1385 35.2884 25.9923 34.8422 25.6999C34.3959 25.4076 34.045 24.9875 33.7896 24.4396C33.5342 23.8887 33.4064 23.2317 33.4064 22.4684C33.4064 21.7021 33.5342 21.0465 33.7896 20.5018C34.0481 19.957 34.4021 19.54 34.8514 19.2507C35.3007 18.9614 35.8101 18.8168 36.3794 18.8168C36.8195 18.8168 37.1735 18.8906 37.4412 19.0384C37.7121 19.183 37.9213 19.3523 38.0691 19.5462C38.2199 19.7401 38.3368 19.9109 38.4199 20.0586H38.503V16.5455H39.8834V26H38.5353V24.8967H38.4199C38.3368 25.0475 38.2168 25.2198 38.0598 25.4137C37.906 25.6076 37.6936 25.7769 37.4228 25.9215C37.1519 26.0662 36.8011 26.1385 36.3702 26.1385ZM36.6749 24.9613C37.272 24.9613 37.729 24.7305 38.046 24.2688C38.3661 23.8041 38.5261 23.1993 38.5261 22.4545C38.5261 21.7128 38.3676 21.1173 38.0506 20.668C37.7367 20.2156 37.2781 19.9893 36.6749 19.9893C36.2594 19.9893 35.9132 20.0971 35.6362 20.3125C35.3592 20.5279 35.1499 20.8219 35.0084 21.1942C34.8699 21.5636 34.8006 21.9837 34.8006 22.4545C34.8006 22.9285 34.8714 23.3548 35.013 23.7333C35.1545 24.1119 35.3638 24.4119 35.6408 24.6335C35.9209 24.852 36.2656 24.9613 36.6749 24.9613ZM45.1262 26.1431C44.4307 26.1431 43.8305 25.9923 43.3258 25.6907C42.821 25.3891 42.4317 24.9659 42.1578 24.4212C41.887 23.8733 41.7516 23.2332 41.7516 22.5007C41.7516 21.7744 41.887 21.1342 42.1578 20.5803C42.4317 20.0263 42.8134 19.5939 43.3027 19.283C43.7951 18.9722 44.3706 18.8168 45.0293 18.8168C45.5648 18.8168 46.071 18.9368 46.5481 19.1768C47.0282 19.4138 47.4175 19.7939 47.7161 20.3171C48.0177 20.8372 48.1685 21.5251 48.1685 22.3807V22.87H43.1273C43.1457 23.5533 43.3381 24.0795 43.7043 24.4489C44.0706 24.8182 44.5491 25.0028 45.1401 25.0028C45.534 25.0028 45.8741 24.9182 46.1603 24.7489C46.4465 24.5797 46.6512 24.3273 46.7743 23.9918L48.0808 24.2273C47.9238 24.8028 47.5853 25.266 47.0651 25.6168C46.545 25.9677 45.8987 26.1431 45.1262 26.1431ZM43.1319 21.8359H46.8158C46.8128 21.2943 46.6496 20.8465 46.3265 20.4925C46.0033 20.1355 45.574 19.957 45.0385 19.957C44.6661 19.957 44.3399 20.0447 44.0598 20.2202C43.7828 20.3925 43.5628 20.6218 43.3996 20.908C43.2396 21.1912 43.1504 21.5005 43.1319 21.8359ZM49.9167 26V18.9091H51.2508V20.0355H51.3247C51.4539 19.6539 51.6817 19.3538 52.0079 19.1353C52.3372 18.9137 52.7096 18.8029 53.1251 18.8029C53.2144 18.8029 53.3175 18.806 53.4344 18.8121C53.5514 18.8183 53.6437 18.826 53.7114 18.8352V20.1555C53.656 20.1402 53.5575 20.1232 53.4159 20.1048C53.2774 20.0832 53.1359 20.0724 52.9912 20.0724C52.5019 20.0724 52.0972 20.2232 51.7771 20.5249C51.457 20.8234 51.297 21.205 51.297 21.6697V26H49.9167ZM60.4361 20.6403L59.1851 20.8619C59.1051 20.6249 58.9558 20.4079 58.7373 20.2109C58.5218 20.0109 58.1987 19.9109 57.7678 19.9109C57.377 19.9109 57.0492 19.9986 56.7845 20.174C56.5229 20.3464 56.3936 20.5695 56.3967 20.8434C56.3936 21.0835 56.4798 21.2758 56.6552 21.4205C56.8337 21.562 57.1184 21.679 57.5093 21.7713L58.6357 22.0298C59.9283 22.3284 60.5746 22.9685 60.5746 23.9503C60.5746 24.3781 60.4515 24.7566 60.2053 25.0859C59.9622 25.4152 59.6221 25.6738 59.1851 25.8615C58.7511 26.0492 58.2479 26.1431 57.6755 26.1431C56.8784 26.1431 56.2305 25.9738 55.7319 25.6353C55.2334 25.2937 54.9256 24.8089 54.8087 24.1811L56.1428 23.978C56.309 24.6797 56.8168 25.0305 57.6663 25.0305C58.1187 25.0305 58.4803 24.9367 58.7511 24.7489C59.022 24.5581 59.1574 24.3258 59.1574 24.0518C59.1574 23.5994 58.8234 23.2994 58.1556 23.1516L56.9553 22.8885C56.2905 22.7408 55.8012 22.5007 55.4873 22.1683C55.1734 21.8359 55.0164 21.4189 55.0164 20.9173C55.0164 20.4987 55.1333 20.1325 55.3672 19.8185C55.6011 19.5015 55.9243 19.2553 56.3367 19.0799C56.7491 18.9045 57.2215 18.8168 57.754 18.8168C58.5203 18.8168 59.1235 18.983 59.5636 19.3153C60.0037 19.6477 60.2946 20.0894 60.4361 20.6403ZM65.619 18.9091V20.017H64.1648V23.918C64.1648 24.3181 64.2494 24.5766 64.4187 24.6935C64.591 24.8074 64.7896 24.8643 65.0142 24.8643C65.125 24.8643 65.222 24.8567 65.3051 24.8413C65.3882 24.8259 65.4528 24.8136 65.499 24.8043L65.7482 25.9446C65.6682 25.9754 65.5528 26.0062 65.402 26.0369C65.2543 26.0708 65.0712 26.0893 64.8526 26.0923C64.4895 26.0985 64.1494 26.0339 63.8324 25.8984C63.5185 25.763 63.2646 25.5537 63.0707 25.2706C62.8799 24.9875 62.7845 24.632 62.7845 24.2042V20.017H61.7458V18.9091H62.7845V17.2102H64.1648V18.9091H65.619ZM69.4261 26.157C68.9768 26.157 68.5705 26.0739 68.2074 25.9077C67.8473 25.7415 67.5611 25.4983 67.3487 25.1783C67.1363 24.8551 67.0302 24.4612 67.0302 23.9964C67.0302 23.5933 67.1071 23.2624 67.261 23.0039C67.4179 22.7454 67.6257 22.5407 67.8842 22.3899C68.1458 22.2391 68.4382 22.1268 68.7613 22.0529C69.0845 21.976 69.4138 21.9175 69.7493 21.8775C70.174 21.8282 70.5171 21.7882 70.7787 21.7575C71.0434 21.7236 71.2358 21.6697 71.3558 21.5959C71.4789 21.522 71.5405 21.402 71.5405 21.2358V21.2035C71.5405 20.8003 71.4266 20.4879 71.1988 20.2663C70.9742 20.0447 70.6387 19.9339 70.1924 19.9339C69.7277 19.9339 69.3615 20.0355 69.0937 20.2386C68.829 20.4418 68.6459 20.6695 68.5444 20.9219L67.2471 20.6264C67.478 19.9801 67.8627 19.5169 68.4013 19.2369C68.9429 18.9568 69.5338 18.8168 70.174 18.8168C70.4571 18.8168 70.7572 18.8506 71.0742 18.9183C71.3912 18.983 71.6897 19.1045 71.9698 19.283C72.2529 19.4585 72.4822 19.7077 72.6576 20.0309C72.8362 20.354 72.9254 20.7741 72.9254 21.2912V26H71.5774V25.0305H71.522C71.3897 25.2952 71.1542 25.5491 70.8157 25.7923C70.4771 26.0354 70.0139 26.157 69.4261 26.157ZM69.7262 25.049C70.1109 25.049 70.4387 24.9736 70.7095 24.8228C70.9803 24.672 71.1865 24.475 71.3281 24.2319C71.4728 23.9857 71.5451 23.7225 71.5451 23.4425V22.5284C71.4804 22.593 71.3389 22.65 71.1204 22.6992C70.9018 22.7485 70.671 22.79 70.4279 22.8239C70.1848 22.8577 69.9878 22.8854 69.837 22.907C69.4369 22.9593 69.0937 23.0655 68.8075 23.2255C68.5244 23.3825 68.3828 23.6456 68.3828 24.0149C68.3828 24.3565 68.509 24.6151 68.7613 24.7905C69.0137 24.9628 69.3353 25.049 69.7262 25.049ZM76.3609 21.7898V26H74.9806V18.9091H76.3055V20.0632H76.3932C76.5563 19.6877 76.8118 19.3861 77.1596 19.1584C77.5104 18.9306 77.9521 18.8168 78.4845 18.8168C79.2108 18.8168 79.794 19.043 80.2341 19.4954C80.6773 19.9478 80.8989 20.6126 80.8989 21.4897V26H79.5186V21.6559C79.5186 21.1419 79.3847 20.7403 79.1169 20.451C78.8492 20.1586 78.4814 20.0124 78.0136 20.0124C77.5335 20.0124 77.138 20.1679 76.8272 20.4787C76.5163 20.7865 76.3609 21.2235 76.3609 21.7898ZM85.6213 26.1385C85.0488 26.1385 84.5395 25.9923 84.0932 25.6999C83.6469 25.4076 83.2961 24.9875 83.0406 24.4396C82.7852 23.8887 82.6575 23.2317 82.6575 22.4684C82.6575 21.7021 82.7852 21.0465 83.0406 20.5018C83.2992 19.957 83.6531 19.54 84.1024 19.2507C84.5518 18.9614 85.0611 18.8168 85.6305 18.8168C86.0706 18.8168 86.4245 18.8906 86.6923 19.0384C86.9631 19.183 87.1724 19.3523 87.3201 19.5462C87.4709 19.7401 87.5879 19.9109 87.671 20.0586H87.7541V16.5455H89.1344V26H87.7864V24.8967H87.671C87.5879 25.0475 87.4678 25.2198 87.3109 25.4137C87.157 25.6076 86.9446 25.7769 86.6738 25.9215C86.403 26.0662 86.0521 26.1385 85.6213 26.1385ZM85.9259 24.9613C86.523 24.9613 86.98 24.7305 87.297 24.2688C87.6171 23.8041 87.7771 23.1993 87.7771 22.4545C87.7771 21.7128 87.6186 21.1173 87.3016 20.668C86.9877 20.2156 86.5292 19.9893 85.9259 19.9893C85.5105 19.9893 85.1642 20.0971 84.8872 20.3125C84.6102 20.5279 84.401 20.8219 84.2594 21.1942C84.1209 21.5636 84.0516 21.9837 84.0516 22.4545C84.0516 22.9285 84.1224 23.3548 84.264 23.7333C84.4056 24.1119 84.6149 24.4119 84.8918 24.6335C85.1719 24.852 85.5166 24.9613 85.9259 24.9613Z" fill="white"></path><path d="M208.5 21.5H326.517" stroke="black" stroke-linecap="square"></path><path fill-rule="evenodd" clip-rule="evenodd" d="M209.5 24C210.881 24 212 22.8807 212 21.5C212 20.1193 210.881 19 209.5 19C208.119 19 207 20.1193 207 21.5C207 22.8807 208.119 24 209.5 24Z" fill="#FED45D" stroke="black" stroke-width="3"></path><path fill-rule="evenodd" clip-rule="evenodd" d="M326.5 24C327.881 24 329 22.8807 329 21.5C329 20.1193 327.881 19 326.5 19C325.119 19 324 20.1193 324 21.5C324 22.8807 325.119 24 326.5 24Z" fill="#FED45D" stroke="black" stroke-width="3"></path></svg>