<svg xmlns="http://www.w3.org/2000/svg" width="215" height="510" viewBox="0 0 215 510" fill="none"><rect x="1" y="1" width="210" height="40" rx="10" fill="#0B0B0C" stroke="black"></rect><path d="M75.422 16.5455H76.8531V22.7638C76.8531 23.4255 76.6977 24.0118 76.3868 24.5227C76.076 25.0336 75.639 25.4337 75.0758 25.723C74.5126 26.0123 73.8524 26.157 73.0953 26.157C72.3413 26.157 71.6827 26.0123 71.1194 25.723C70.5562 25.4337 70.1192 25.0336 69.8084 24.5227C69.4975 24.0118 69.3421 23.4255 69.3421 22.7638V16.5455H70.7686V22.6484C70.7686 23.2886 70.9763 23.8164 71.3918 24.2319C71.8104 24.6474 72.3782 24.8551 73.0953 24.8551C73.8155 24.8551 74.3833 24.6474 74.7988 24.2319C75.2143 23.8164 75.422 23.2886 75.422 22.6484V16.5455ZM80.4133 21.7898V26H79.0329V18.9091H80.3579V20.0632H80.4456C80.6087 19.6877 80.8641 19.3861 81.2119 19.1584C81.5628 18.9306 82.0044 18.8168 82.5368 18.8168C83.2632 18.8168 83.8464 19.043 84.2865 19.4954C84.7297 19.9478 84.9513 20.6126 84.9513 21.4897V26H83.5709V21.6559C83.5709 21.1419 83.437 20.7403 83.1693 20.451C82.9015 20.1586 82.5338 20.0124 82.066 20.0124C81.5858 20.0124 81.1904 20.1679 80.8795 20.4787C80.5687 20.7865 80.4133 21.2235 80.4133 21.7898ZM89.6736 26.1385C89.1012 26.1385 88.5918 25.9923 88.1455 25.6999C87.6993 25.4076 87.3484 24.9875 87.093 24.4396C86.8375 23.8887 86.7098 23.2317 86.7098 22.4684C86.7098 21.7021 86.8375 21.0465 87.093 20.5018C87.3515 19.957 87.7054 19.54 88.1548 19.2507C88.6041 18.9614 89.1135 18.8168 89.6828 18.8168C90.1229 18.8168 90.4769 18.8906 90.7446 19.0384C91.0155 19.183 91.2247 19.3523 91.3725 19.5462C91.5233 19.7401 91.6402 19.9109 91.7233 20.0586H91.8064V16.5455H93.1867V26H91.8387V24.8967H91.7233C91.6402 25.0475 91.5202 25.2198 91.3632 25.4137C91.2094 25.6076 90.997 25.7769 90.7262 25.9215C90.4553 26.0662 90.1045 26.1385 89.6736 26.1385ZM89.9783 24.9613C90.5754 24.9613 91.0324 24.7305 91.3494 24.2688C91.6695 23.8041 91.8295 23.1993 91.8295 22.4545C91.8295 21.7128 91.671 21.1173 91.354 20.668C91.0401 20.2156 90.5815 19.9893 89.9783 19.9893C89.5628 19.9893 89.2166 20.0971 88.9396 20.3125C88.6626 20.5279 88.4533 20.8219 88.3117 21.1942C88.1732 21.5636 88.104 21.9837 88.104 22.4545C88.104 22.9285 88.1748 23.3548 88.3164 23.7333C88.4579 24.1119 88.6672 24.4119 88.9442 24.6335C89.2243 24.852 89.569 24.9613 89.9783 24.9613ZM98.4296 26.1431C97.7341 26.1431 97.1339 25.9923 96.6292 25.6907C96.1244 25.3891 95.7351 24.9659 95.4612 24.4212C95.1904 23.8733 95.055 23.2332 95.055 22.5007C95.055 21.7744 95.1904 21.1342 95.4612 20.5803C95.7351 20.0263 96.1167 19.5939 96.6061 19.283C97.0985 18.9722 97.674 18.8168 98.3327 18.8168C98.8682 18.8168 99.3744 18.9368 99.8515 19.1768C100.332 19.4138 100.721 19.7939 101.019 20.3171C101.321 20.8372 101.472 21.5251 101.472 22.3807V22.87H96.4307C96.4491 23.5533 96.6415 24.0795 97.0077 24.4489C97.374 24.8182 97.8525 25.0028 98.4434 25.0028C98.8374 25.0028 99.1775 24.9182 99.4637 24.7489C99.7499 24.5797 99.9546 24.3273 100.078 23.9918L101.384 24.2273C101.227 24.8028 100.889 25.266 100.369 25.6168C99.8484 25.9677 99.2021 26.1431 98.4296 26.1431ZM96.4353 21.8359H100.119C100.116 21.2943 99.953 20.8465 99.6299 20.4925C99.3067 20.1355 98.8774 19.957 98.3419 19.957C97.9695 19.957 97.6433 20.0447 97.3632 20.2202C97.0862 20.3925 96.8662 20.6218 96.703 20.908C96.543 21.1912 96.4537 21.5005 96.4353 21.8359ZM103.22 26V18.9091H104.554V20.0355H104.628C104.757 19.6539 104.985 19.3538 105.311 19.1353C105.641 18.9137 106.013 18.8029 106.428 18.8029C106.518 18.8029 106.621 18.806 106.738 18.8121C106.855 18.8183 106.947 18.826 107.015 18.8352V20.1555C106.959 20.1402 106.861 20.1232 106.719 20.1048C106.581 20.0832 106.439 20.0724 106.295 20.0724C105.805 20.0724 105.401 20.2232 105.08 20.5249C104.76 20.8234 104.6 21.205 104.6 21.6697V26H103.22ZM113.74 20.6403L112.488 20.8619C112.408 20.6249 112.259 20.4079 112.041 20.2109C111.825 20.0109 111.502 19.9109 111.071 19.9109C110.68 19.9109 110.353 19.9986 110.088 20.174C109.826 20.3464 109.697 20.5695 109.7 20.8434C109.697 21.0835 109.783 21.2758 109.959 21.4205C110.137 21.562 110.422 21.679 110.813 21.7713L111.939 22.0298C113.232 22.3284 113.878 22.9685 113.878 23.9503C113.878 24.3781 113.755 24.7566 113.509 25.0859C113.266 25.4152 112.925 25.6738 112.488 25.8615C112.055 26.0492 111.551 26.1431 110.979 26.1431C110.182 26.1431 109.534 25.9738 109.035 25.6353C108.537 25.2937 108.229 24.8089 108.112 24.1811L109.446 23.978C109.612 24.6797 110.12 25.0305 110.97 25.0305C111.422 25.0305 111.784 24.9367 112.055 24.7489C112.325 24.5581 112.461 24.3258 112.461 24.0518C112.461 23.5994 112.127 23.2994 111.459 23.1516L110.259 22.8885C109.594 22.7408 109.105 22.5007 108.791 22.1683C108.477 21.8359 108.32 21.4189 108.32 20.9173C108.32 20.4987 108.437 20.1325 108.671 19.8185C108.905 19.5015 109.228 19.2553 109.64 19.0799C110.052 18.9045 110.525 18.8168 111.057 18.8168C111.824 18.8168 112.427 18.983 112.867 19.3153C113.307 19.6477 113.598 20.0894 113.74 20.6403ZM118.922 18.9091V20.017H117.468V23.918C117.468 24.3181 117.553 24.5766 117.722 24.6935C117.894 24.8074 118.093 24.8643 118.318 24.8643C118.428 24.8643 118.525 24.8567 118.608 24.8413C118.692 24.8259 118.756 24.8136 118.802 24.8043L119.052 25.9446C118.972 25.9754 118.856 26.0062 118.705 26.0369C118.558 26.0708 118.375 26.0893 118.156 26.0923C117.793 26.0985 117.453 26.0339 117.136 25.8984C116.822 25.763 116.568 25.5537 116.374 25.2706C116.183 24.9875 116.088 24.632 116.088 24.2042V20.017H115.049V18.9091H116.088V17.2102H117.468V18.9091H118.922ZM122.729 26.157C122.28 26.157 121.874 26.0739 121.511 25.9077C121.151 25.7415 120.864 25.4983 120.652 25.1783C120.44 24.8551 120.334 24.4612 120.334 23.9964C120.334 23.5933 120.41 23.2624 120.564 23.0039C120.721 22.7454 120.929 22.5407 121.188 22.3899C121.449 22.2391 121.742 22.1268 122.065 22.0529C122.388 21.976 122.717 21.9175 123.053 21.8775C123.477 21.8282 123.821 21.7882 124.082 21.7575C124.347 21.7236 124.539 21.6697 124.659 21.5959C124.782 21.522 124.844 21.402 124.844 21.2358V21.2035C124.844 20.8003 124.73 20.4879 124.502 20.2663C124.278 20.0447 123.942 19.9339 123.496 19.9339C123.031 19.9339 122.665 20.0355 122.397 20.2386C122.132 20.4418 121.949 20.6695 121.848 20.9219L120.551 20.6264C120.781 19.9801 121.166 19.5169 121.705 19.2369C122.246 18.9568 122.837 18.8168 123.477 18.8168C123.761 18.8168 124.061 18.8506 124.378 18.9183C124.695 18.983 124.993 19.1045 125.273 19.283C125.556 19.4585 125.786 19.7077 125.961 20.0309C126.14 20.354 126.229 20.7741 126.229 21.2912V26H124.881V25.0305H124.825C124.693 25.2952 124.458 25.5491 124.119 25.7923C123.781 26.0354 123.317 26.157 122.729 26.157ZM123.03 25.049C123.414 25.049 123.742 24.9736 124.013 24.8228C124.284 24.672 124.49 24.475 124.631 24.2319C124.776 23.9857 124.848 23.7225 124.848 23.4425V22.5284C124.784 22.593 124.642 22.65 124.424 22.6992C124.205 22.7485 123.974 22.79 123.731 22.8239C123.488 22.8577 123.291 22.8854 123.14 22.907C122.74 22.9593 122.397 23.0655 122.111 23.2255C121.828 23.3825 121.686 23.6456 121.686 24.0149C121.686 24.3565 121.812 24.6151 122.065 24.7905C122.317 24.9628 122.639 25.049 123.03 25.049ZM129.664 21.7898V26H128.284V18.9091H129.609V20.0632H129.697C129.86 19.6877 130.115 19.3861 130.463 19.1584C130.814 18.9306 131.255 18.8168 131.788 18.8168C132.514 18.8168 133.097 19.043 133.538 19.4954C133.981 19.9478 134.202 20.6126 134.202 21.4897V26H132.822V21.6559C132.822 21.1419 132.688 20.7403 132.42 20.451C132.153 20.1586 131.785 20.0124 131.317 20.0124C130.837 20.0124 130.441 20.1679 130.131 20.4787C129.82 20.7865 129.664 21.2235 129.664 21.7898ZM138.925 26.1385C138.352 26.1385 137.843 25.9923 137.397 25.6999C136.95 25.4076 136.599 24.9875 136.344 24.4396C136.089 23.8887 135.961 23.2317 135.961 22.4684C135.961 21.7021 136.089 21.0465 136.344 20.5018C136.603 19.957 136.956 19.54 137.406 19.2507C137.855 18.9614 138.365 18.8168 138.934 18.8168C139.374 18.8168 139.728 18.8906 139.996 19.0384C140.266 19.183 140.476 19.3523 140.624 19.5462C140.774 19.7401 140.891 19.9109 140.974 20.0586H141.057V16.5455H142.438V26H141.09V24.8967H140.974C140.891 25.0475 140.771 25.2198 140.614 25.4137C140.46 25.6076 140.248 25.7769 139.977 25.9215C139.706 26.0662 139.356 26.1385 138.925 26.1385ZM139.229 24.9613C139.826 24.9613 140.283 24.7305 140.6 24.2688C140.92 23.8041 141.081 23.1993 141.081 22.4545C141.081 21.7128 140.922 21.1173 140.605 20.668C140.291 20.2156 139.833 19.9893 139.229 19.9893C138.814 19.9893 138.468 20.0971 138.191 20.3125C137.914 20.5279 137.704 20.8219 137.563 21.1942C137.424 21.5636 137.355 21.9837 137.355 22.4545C137.355 22.9285 137.426 23.3548 137.567 23.7333C137.709 24.1119 137.918 24.4119 138.195 24.6335C138.475 24.852 138.82 24.9613 139.229 24.9613Z" fill="white"></path><rect x="2" y="159" width="208" height="40" rx="10" fill="#0B0B0C" stroke="black"></rect><path d="M77.2458 184V174.545H80.6158C81.3483 174.545 81.9561 174.672 82.4393 174.924C82.9225 175.176 83.2841 175.526 83.5242 175.972C83.7673 176.415 83.8889 176.928 83.8889 177.509C83.8889 178.143 83.7442 178.693 83.4549 179.157C83.1687 179.619 82.7348 179.958 82.1531 180.173L84.249 184H82.624L80.7035 180.422C80.6727 180.422 80.642 180.422 80.6112 180.422H78.6723V184H77.2458ZM78.6723 179.194H80.4819C81.1775 179.194 81.6791 179.047 81.9869 178.751C82.2977 178.456 82.4532 178.042 82.4532 177.509C82.4532 176.974 82.2977 176.551 81.9869 176.24C81.676 175.926 81.1682 175.769 80.4635 175.769H78.6723V179.194ZM88.6978 184.143C88.0022 184.143 87.4021 183.992 86.8974 183.691C86.3926 183.389 86.0033 182.966 85.7294 182.421C85.4586 181.873 85.3231 181.233 85.3231 180.501C85.3231 179.774 85.4586 179.134 85.7294 178.58C86.0033 178.026 86.3849 177.594 86.8743 177.283C87.3667 176.972 87.9422 176.817 88.6008 176.817C89.1364 176.817 89.6426 176.937 90.1197 177.177C90.5998 177.414 90.9891 177.794 91.2876 178.317C91.5892 178.837 91.74 179.525 91.74 180.381V180.87H86.6989C86.7173 181.553 86.9097 182.08 87.2759 182.449C87.6422 182.818 88.1207 183.003 88.7116 183.003C89.1056 183.003 89.4457 182.918 89.7319 182.749C90.0181 182.58 90.2228 182.327 90.3459 181.992L91.6523 182.227C91.4954 182.803 91.1568 183.266 90.6367 183.617C90.1166 183.968 89.4703 184.143 88.6978 184.143ZM86.7035 179.836H90.3874C90.3843 179.294 90.2212 178.846 89.8981 178.493C89.5749 178.136 89.1456 177.957 88.6101 177.957C88.2377 177.957 87.9114 178.045 87.6314 178.22C87.3544 178.393 87.1343 178.622 86.9712 178.908C86.8112 179.191 86.7219 179.5 86.7035 179.836ZM98.8018 178.64L97.5507 178.862C97.4707 178.625 97.3214 178.408 97.1029 178.211C96.8875 178.011 96.5643 177.911 96.1335 177.911C95.7426 177.911 95.4148 177.999 95.1502 178.174C94.8886 178.346 94.7593 178.569 94.7624 178.843C94.7593 179.083 94.8455 179.276 95.0209 179.42C95.1994 179.562 95.4841 179.679 95.8749 179.771L97.0014 180.03C98.294 180.328 98.9403 180.969 98.9403 181.95C98.9403 182.378 98.8172 182.757 98.571 183.086C98.3278 183.415 97.9878 183.674 97.5507 183.862C97.1168 184.049 96.6136 184.143 96.0411 184.143C95.244 184.143 94.5962 183.974 94.0976 183.635C93.599 183.294 93.2913 182.809 93.1743 182.181L94.5085 181.978C94.6747 182.68 95.1825 183.031 96.0319 183.031C96.4843 183.031 96.8459 182.937 97.1168 182.749C97.3876 182.558 97.523 182.326 97.523 182.052C97.523 181.599 97.1891 181.299 96.5213 181.152L95.321 180.888C94.6562 180.741 94.1669 180.501 93.8529 180.168C93.539 179.836 93.3821 179.419 93.3821 178.917C93.3821 178.499 93.499 178.132 93.7329 177.819C93.9668 177.502 94.29 177.255 94.7024 177.08C95.1148 176.904 95.5872 176.817 96.1196 176.817C96.886 176.817 97.4892 176.983 97.9293 177.315C98.3694 177.648 98.6602 178.089 98.8018 178.64ZM103.731 184.143C103.035 184.143 102.435 183.992 101.93 183.691C101.426 183.389 101.036 182.966 100.762 182.421C100.492 181.873 100.356 181.233 100.356 180.501C100.356 179.774 100.492 179.134 100.762 178.58C101.036 178.026 101.418 177.594 101.907 177.283C102.4 176.972 102.975 176.817 103.634 176.817C104.169 176.817 104.676 176.937 105.153 177.177C105.633 177.414 106.022 177.794 106.321 178.317C106.622 178.837 106.773 179.525 106.773 180.381V180.87H101.732C101.75 181.553 101.943 182.08 102.309 182.449C102.675 182.818 103.154 183.003 103.745 183.003C104.139 183.003 104.479 182.918 104.765 182.749C105.051 182.58 105.256 182.327 105.379 181.992L106.685 182.227C106.528 182.803 106.19 183.266 105.67 183.617C105.15 183.968 104.503 184.143 103.731 184.143ZM101.736 179.836H105.42C105.417 179.294 105.254 178.846 104.931 178.493C104.608 178.136 104.179 177.957 103.643 177.957C103.271 177.957 102.944 178.045 102.664 178.22C102.387 178.393 102.167 178.622 102.004 178.908C101.844 179.191 101.755 179.5 101.736 179.836ZM110.585 184.157C110.135 184.157 109.729 184.074 109.366 183.908C109.006 183.741 108.72 183.498 108.507 183.178C108.295 182.855 108.189 182.461 108.189 181.996C108.189 181.593 108.266 181.262 108.42 181.004C108.577 180.745 108.784 180.541 109.043 180.39C109.304 180.239 109.597 180.127 109.92 180.053C110.243 179.976 110.572 179.917 110.908 179.877C111.333 179.828 111.676 179.788 111.937 179.757C112.202 179.724 112.394 179.67 112.514 179.596C112.638 179.522 112.699 179.402 112.699 179.236V179.203C112.699 178.8 112.585 178.488 112.357 178.266C112.133 178.045 111.797 177.934 111.351 177.934C110.886 177.934 110.52 178.036 110.252 178.239C109.988 178.442 109.805 178.67 109.703 178.922L108.406 178.626C108.637 177.98 109.021 177.517 109.56 177.237C110.102 176.957 110.692 176.817 111.333 176.817C111.616 176.817 111.916 176.851 112.233 176.918C112.55 176.983 112.848 177.105 113.128 177.283C113.412 177.458 113.641 177.708 113.816 178.031C113.995 178.354 114.084 178.774 114.084 179.291V184H112.736V183.031H112.681C112.548 183.295 112.313 183.549 111.974 183.792C111.636 184.035 111.173 184.157 110.585 184.157ZM110.885 183.049C111.27 183.049 111.597 182.974 111.868 182.823C112.139 182.672 112.345 182.475 112.487 182.232C112.631 181.986 112.704 181.723 112.704 181.442V180.528C112.639 180.593 112.497 180.65 112.279 180.699C112.06 180.748 111.83 180.79 111.587 180.824C111.343 180.858 111.146 180.885 110.996 180.907C110.596 180.959 110.252 181.065 109.966 181.225C109.683 181.382 109.541 181.646 109.541 182.015C109.541 182.357 109.668 182.615 109.92 182.79C110.172 182.963 110.494 183.049 110.885 183.049ZM116.139 184V176.909H117.473V178.036H117.547C117.676 177.654 117.904 177.354 118.23 177.135C118.56 176.914 118.932 176.803 119.348 176.803C119.437 176.803 119.54 176.806 119.657 176.812C119.774 176.818 119.866 176.826 119.934 176.835V178.156C119.879 178.14 119.78 178.123 119.638 178.105C119.5 178.083 119.358 178.072 119.214 178.072C118.724 178.072 118.32 178.223 118 178.525C117.68 178.823 117.52 179.205 117.52 179.67V184H116.139ZM124.078 184.143C123.392 184.143 122.801 183.988 122.305 183.677C121.813 183.363 121.434 182.931 121.17 182.38C120.905 181.829 120.773 181.198 120.773 180.487C120.773 179.764 120.908 179.127 121.179 178.576C121.45 178.025 121.831 177.594 122.324 177.283C122.819 176.972 123.399 176.817 124.064 176.817C124.603 176.817 125.083 176.917 125.505 177.117C125.926 177.314 126.266 177.591 126.525 177.948C126.786 178.305 126.942 178.722 126.991 179.199H125.648C125.574 178.866 125.405 178.58 125.14 178.34C124.878 178.1 124.527 177.98 124.087 177.98C123.512 177.98 123.047 178.203 122.693 178.65C122.342 179.093 122.167 179.694 122.167 180.455C122.167 181.227 122.341 181.841 122.689 182.297C123.036 182.749 123.503 182.975 124.087 182.975C124.481 182.975 124.818 182.867 125.098 182.652C125.378 182.437 125.562 182.138 125.648 181.756H126.991C126.942 182.215 126.793 182.624 126.543 182.984C126.294 183.344 125.96 183.628 125.542 183.834C125.126 184.04 124.638 184.143 124.078 184.143ZM130.064 179.79V184H128.684V174.545H130.046V178.063H130.133C130.3 177.679 130.554 177.375 130.895 177.154C131.237 176.929 131.683 176.817 132.234 176.817C132.963 176.817 133.55 177.041 133.993 177.491C134.439 177.94 134.662 178.606 134.662 179.49V184H133.282V179.656C133.282 179.136 133.148 178.733 132.88 178.446C132.612 178.157 132.24 178.012 131.763 178.012C131.271 178.012 130.864 178.168 130.544 178.479C130.224 178.786 130.064 179.223 130.064 179.79Z" fill="white"></path><path d="M108.5 159.508V43.4749" stroke="black" stroke-linecap="square"></path><path fill-rule="evenodd" clip-rule="evenodd" d="M111 158.5C111 157.119 109.881 156 108.5 156C107.119 156 106 157.119 106 158.5C106 159.881 107.119 161 108.5 161C109.881 161 111 159.881 111 158.5Z" fill="#FED45D" stroke="black" stroke-width="3"></path><path fill-rule="evenodd" clip-rule="evenodd" d="M111 43.5C111 42.1193 109.881 41 108.5 41C107.119 41 106 42.1193 106 43.5C106 44.8807 107.119 46 108.5 46C109.881 46 111 44.8807 111 43.5Z" fill="#FED45D" stroke="black" stroke-width="3"></path><rect x="2" y="314" width="208" height="40" rx="10" fill="#0B0B0C" stroke="black"></rect><path d="M87.9436 339H84.8828V329.545H88.0405C88.97 329.545 89.7655 329.735 90.4272 330.113C91.092 330.489 91.6014 331.029 91.9553 331.734C92.3123 332.435 92.4908 333.277 92.4908 334.259C92.4908 335.244 92.3123 336.09 91.9553 336.798C91.5983 337.506 91.0797 338.051 90.3995 338.432C89.7225 338.811 88.9038 339 87.9436 339ZM86.3093 337.754H87.8651C88.9423 337.754 89.7486 337.452 90.2841 336.849C90.8196 336.242 91.0874 335.379 91.0874 334.259C91.0874 333.145 90.8227 332.289 90.2934 331.692C89.7671 331.092 88.9869 330.792 87.9528 330.792H86.3093V337.754ZM97.4267 339.143C96.7311 339.143 96.131 338.992 95.6262 338.691C95.1215 338.389 94.7322 337.966 94.4583 337.421C94.1874 336.873 94.052 336.233 94.052 335.501C94.052 334.774 94.1874 334.134 94.4583 333.58C94.7322 333.026 95.1138 332.594 95.6032 332.283C96.0956 331.972 96.6711 331.817 97.3297 331.817C97.8652 331.817 98.3715 331.937 98.8485 332.177C99.3287 332.414 99.718 332.794 100.017 333.317C100.318 333.837 100.469 334.525 100.469 335.381V335.87H95.4277C95.4462 336.553 95.6385 337.08 96.0048 337.449C96.371 337.818 96.8496 338.003 97.4405 338.003C97.8345 338.003 98.1745 337.918 98.4608 337.749C98.747 337.58 98.9516 337.327 99.0747 336.992L100.381 337.227C100.224 337.803 99.8857 338.266 99.3656 338.617C98.8455 338.968 98.1992 339.143 97.4267 339.143ZM95.4323 334.836H99.1163C99.1132 334.294 98.9501 333.846 98.6269 333.493C98.3038 333.136 97.8745 332.957 97.3389 332.957C96.9666 332.957 96.6403 333.045 96.3603 333.22C96.0833 333.393 95.8632 333.622 95.7001 333.908C95.5401 334.191 95.4508 334.5 95.4323 334.836ZM107.531 333.64L106.28 333.862C106.2 333.625 106.05 333.408 105.832 333.211C105.616 333.011 105.293 332.911 104.862 332.911C104.471 332.911 104.144 332.999 103.879 333.174C103.617 333.346 103.488 333.569 103.491 333.843C103.488 334.083 103.574 334.276 103.75 334.42C103.928 334.562 104.213 334.679 104.604 334.771L105.73 335.03C107.023 335.328 107.669 335.969 107.669 336.95C107.669 337.378 107.546 337.757 107.3 338.086C107.057 338.415 106.717 338.674 106.28 338.862C105.846 339.049 105.342 339.143 104.77 339.143C103.973 339.143 103.325 338.974 102.826 338.635C102.328 338.294 102.02 337.809 101.903 337.181L103.237 336.978C103.404 337.68 103.911 338.031 104.761 338.031C105.213 338.031 105.575 337.937 105.846 337.749C106.116 337.558 106.252 337.326 106.252 337.052C106.252 336.599 105.918 336.299 105.25 336.152L104.05 335.888C103.385 335.741 102.896 335.501 102.582 335.168C102.268 334.836 102.111 334.419 102.111 333.917C102.111 333.499 102.228 333.132 102.462 332.819C102.696 332.502 103.019 332.255 103.431 332.08C103.844 331.904 104.316 331.817 104.848 331.817C105.615 331.817 106.218 331.983 106.658 332.315C107.098 332.648 107.389 333.089 107.531 333.64ZM109.403 339V331.909H110.784V339H109.403ZM110.101 330.815C109.861 330.815 109.654 330.735 109.482 330.575C109.313 330.412 109.228 330.218 109.228 329.993C109.228 329.766 109.313 329.572 109.482 329.412C109.654 329.248 109.861 329.167 110.101 329.167C110.338 329.167 110.542 329.248 110.715 329.412C110.887 329.572 110.973 329.766 110.973 329.993C110.973 330.218 110.887 330.412 110.715 330.575C110.542 330.735 110.338 330.815 110.101 330.815ZM115.83 341.793C114.984 341.793 114.316 341.634 113.827 341.317C113.341 341 113.004 340.628 112.816 340.2L114.002 339.711C114.085 339.84 114.196 339.98 114.335 340.131C114.476 340.282 114.667 340.411 114.907 340.519C115.15 340.627 115.463 340.68 115.844 340.68C116.368 340.68 116.8 340.554 117.142 340.302C117.483 340.049 117.654 339.649 117.654 339.102V337.707H117.566C117.483 337.858 117.365 338.026 117.211 338.211C117.057 338.395 116.843 338.555 116.569 338.691C116.298 338.826 115.946 338.894 115.512 338.894C114.955 338.894 114.452 338.763 114.002 338.501C113.556 338.237 113.202 337.847 112.941 337.333C112.679 336.816 112.548 336.181 112.548 335.427C112.548 334.673 112.676 334.027 112.931 333.488C113.19 332.949 113.544 332.537 113.993 332.251C114.442 331.961 114.952 331.817 115.521 331.817C115.961 331.817 116.317 331.891 116.588 332.038C116.861 332.183 117.074 332.352 117.225 332.546C117.379 332.74 117.495 332.911 117.576 333.059H117.677V331.909H119.03V339.157C119.03 339.76 118.888 340.256 118.605 340.643C118.322 341.034 117.939 341.324 117.455 341.511C116.975 341.699 116.434 341.793 115.83 341.793ZM115.817 337.749C116.414 337.749 116.871 337.543 117.188 337.13C117.508 336.715 117.668 336.141 117.668 335.408C117.668 334.691 117.509 334.11 117.192 333.663C116.878 333.214 116.42 332.989 115.817 332.989C115.401 332.989 115.055 333.097 114.778 333.312C114.501 333.525 114.292 333.814 114.15 334.18C114.012 334.544 113.942 334.953 113.942 335.408C113.942 336.104 114.101 336.669 114.418 337.103C114.735 337.533 115.201 337.749 115.817 337.749ZM122.478 334.79V339H121.098V331.909H122.423V333.063H122.51C122.673 332.688 122.929 332.386 123.277 332.158C123.627 331.931 124.069 331.817 124.601 331.817C125.328 331.817 125.911 332.043 126.351 332.495C126.794 332.948 127.016 333.613 127.016 334.49V339H125.636V334.656C125.636 334.142 125.502 333.74 125.234 333.451C124.966 333.159 124.598 333.012 124.131 333.012C123.65 333.012 123.255 333.168 122.944 333.479C122.633 333.786 122.478 334.223 122.478 334.79Z" fill="white"></path><path d="M108.5 314.508V198.475" stroke="black" stroke-linecap="square"></path><path fill-rule="evenodd" clip-rule="evenodd" d="M111 313.5C111 312.119 109.881 311 108.5 311C107.119 311 106 312.119 106 313.5C106 314.881 107.119 316 108.5 316C109.881 316 111 314.881 111 313.5Z" fill="#FED45D" stroke="black" stroke-width="3"></path><path fill-rule="evenodd" clip-rule="evenodd" d="M111 198.5C111 197.119 109.881 196 108.5 196C107.119 196 106 197.119 106 198.5C106 199.881 107.119 201 108.5 201C109.881 201 111 199.881 111 198.5Z" fill="#FED45D" stroke="black" stroke-width="3"></path><rect x="2" y="469.5" width="208" height="40" rx="10" fill="#0B0B0C" stroke="black"></rect><path d="M51.5661 494.5V485.045H52.9926V493.272H57.2767V494.5H51.5661ZM61.0734 494.657C60.6241 494.657 60.2179 494.574 59.8547 494.408C59.4946 494.241 59.2084 493.998 58.996 493.678C58.7837 493.355 58.6775 492.961 58.6775 492.496C58.6775 492.093 58.7544 491.762 58.9083 491.504C59.0653 491.245 59.273 491.041 59.5315 490.89C59.7931 490.739 60.0855 490.627 60.4087 490.553C60.7318 490.476 61.0611 490.417 61.3966 490.377C61.8213 490.328 62.1645 490.288 62.4261 490.257C62.6907 490.224 62.8831 490.17 63.0031 490.096C63.1262 490.022 63.1878 489.902 63.1878 489.736V489.703C63.1878 489.3 63.0739 488.988 62.8462 488.766C62.6215 488.545 62.286 488.434 61.8398 488.434C61.3751 488.434 61.0088 488.536 60.7411 488.739C60.4764 488.942 60.2933 489.17 60.1917 489.422L58.8945 489.126C59.1253 488.48 59.51 488.017 60.0486 487.737C60.5903 487.457 61.1812 487.317 61.8213 487.317C62.1045 487.317 62.4045 487.351 62.7215 487.418C63.0385 487.483 63.3371 487.605 63.6171 487.783C63.9003 487.958 64.1296 488.208 64.305 488.531C64.4835 488.854 64.5727 489.274 64.5727 489.791V494.5H63.2247V493.531H63.1693C63.037 493.795 62.8015 494.049 62.463 494.292C62.1245 494.535 61.6613 494.657 61.0734 494.657ZM61.3735 493.549C61.7582 493.549 62.086 493.474 62.3568 493.323C62.6277 493.172 62.8339 492.975 62.9754 492.732C63.1201 492.486 63.1924 492.223 63.1924 491.942V491.028C63.1278 491.093 62.9862 491.15 62.7677 491.199C62.5492 491.248 62.3184 491.29 62.0752 491.324C61.8321 491.358 61.6351 491.385 61.4843 491.407C61.0842 491.459 60.7411 491.565 60.4548 491.725C60.1717 491.882 60.0301 492.146 60.0301 492.515C60.0301 492.857 60.1563 493.115 60.4087 493.29C60.661 493.463 60.9827 493.549 61.3735 493.549ZM71.1197 491.559V487.409H72.5047V494.5H71.1474V493.272H71.0736C70.9105 493.651 70.6489 493.966 70.2888 494.218C69.9318 494.468 69.4871 494.592 68.9546 494.592C68.2745 494.592 67.7159 494.368 67.2788 493.918C66.8449 493.466 66.6279 492.8 66.6279 491.919V487.409H68.0082V491.753C68.0082 492.236 68.1421 492.621 68.4099 492.907C68.6776 493.194 69.0254 493.337 69.4532 493.337C69.7117 493.337 69.9687 493.272 70.2241 493.143C70.4827 493.013 70.6966 492.818 70.8658 492.556C71.0382 492.292 71.1228 491.959 71.1197 491.559ZM75.9563 490.29V494.5H74.576V487.409H75.901V488.563H75.9887C76.1518 488.188 76.4072 487.886 76.755 487.658C77.1059 487.431 77.5475 487.317 78.0799 487.317C78.8063 487.317 79.3895 487.543 79.8296 487.995C80.2728 488.448 80.4943 489.113 80.4943 489.99V494.5H79.114V490.156C79.114 489.642 78.9801 489.24 78.7124 488.951C78.4446 488.659 78.0769 488.512 77.609 488.512C77.1289 488.512 76.7335 488.668 76.4226 488.979C76.1118 489.286 75.9563 489.723 75.9563 490.29ZM85.5491 494.643C84.8628 494.643 84.2719 494.488 83.7764 494.177C83.2839 493.863 82.9054 493.431 82.6407 492.88C82.376 492.329 82.2437 491.698 82.2437 490.987C82.2437 490.264 82.3791 489.627 82.6499 489.076C82.9208 488.525 83.3024 488.094 83.7948 487.783C84.2903 487.472 84.8705 487.317 85.5352 487.317C86.0738 487.317 86.5539 487.417 86.9756 487.617C87.3972 487.814 87.7373 488.091 87.9958 488.448C88.2574 488.805 88.4128 489.222 88.4621 489.699H87.1187C87.0448 489.366 86.8755 489.08 86.6109 488.84C86.3493 488.6 85.9984 488.48 85.5583 488.48C84.9828 488.48 84.5181 488.703 84.1641 489.15C83.8133 489.593 83.6379 490.194 83.6379 490.955C83.6379 491.727 83.8117 492.341 84.1595 492.797C84.5073 493.249 84.9736 493.475 85.5583 493.475C85.9523 493.475 86.2893 493.367 86.5693 493.152C86.8494 492.937 87.0325 492.638 87.1187 492.256H88.4621C88.4128 492.715 88.2636 493.124 88.0143 493.484C87.765 493.844 87.4311 494.128 87.0125 494.334C86.597 494.54 86.1092 494.643 85.5491 494.643ZM91.5352 490.29V494.5H90.1549V485.045H91.5167V488.563H91.6044C91.7706 488.179 92.0245 487.875 92.3662 487.654C92.7078 487.429 93.154 487.317 93.7049 487.317C94.4343 487.317 95.0206 487.541 95.4638 487.991C95.9101 488.44 96.1332 489.106 96.1332 489.99V494.5H94.7529V490.156C94.7529 489.636 94.619 489.233 94.3512 488.946C94.0835 488.657 93.7111 488.512 93.2341 488.512C92.7416 488.512 92.3354 488.668 92.0153 488.979C91.6952 489.286 91.5352 489.723 91.5352 490.29ZM105.45 484.602L102.403 495.922H101.17L104.217 484.602H105.45ZM110.607 494.5V485.045H112.033V489.154H116.747V485.045H118.178V494.5H116.747V490.377H112.033V494.5H110.607ZM122.425 494.657C121.975 494.657 121.569 494.574 121.206 494.408C120.846 494.241 120.56 493.998 120.347 493.678C120.135 493.355 120.029 492.961 120.029 492.496C120.029 492.093 120.106 491.762 120.26 491.504C120.417 491.245 120.624 491.041 120.883 490.89C121.145 490.739 121.437 490.627 121.76 490.553C122.083 490.476 122.413 490.417 122.748 490.377C123.173 490.328 123.516 490.288 123.777 490.257C124.042 490.224 124.234 490.17 124.354 490.096C124.478 490.022 124.539 489.902 124.539 489.736V489.703C124.539 489.3 124.425 488.988 124.198 488.766C123.973 488.545 123.637 488.434 123.191 488.434C122.726 488.434 122.36 488.536 122.092 488.739C121.828 488.942 121.645 489.17 121.543 489.422L120.246 489.126C120.477 488.48 120.861 488.017 121.4 487.737C121.942 487.457 122.533 487.317 123.173 487.317C123.456 487.317 123.756 487.351 124.073 487.418C124.39 487.483 124.688 487.605 124.968 487.783C125.252 487.958 125.481 488.208 125.656 488.531C125.835 488.854 125.924 489.274 125.924 489.791V494.5H124.576V493.531H124.521C124.388 493.795 124.153 494.049 123.814 494.292C123.476 494.535 123.013 494.657 122.425 494.657ZM122.725 493.549C123.11 493.549 123.437 493.474 123.708 493.323C123.979 493.172 124.185 492.975 124.327 492.732C124.471 492.486 124.544 492.223 124.544 491.942V491.028C124.479 491.093 124.338 491.15 124.119 491.199C123.901 491.248 123.67 491.29 123.427 491.324C123.183 491.358 122.986 491.385 122.836 491.407C122.436 491.459 122.092 491.565 121.806 491.725C121.523 491.882 121.381 492.146 121.381 492.515C121.381 492.857 121.508 493.115 121.76 493.29C122.012 493.463 122.334 493.549 122.725 493.549ZM129.36 490.29V494.5H127.979V487.409H129.304V488.563H129.392C129.555 488.188 129.81 487.886 130.158 487.658C130.509 487.431 130.951 487.317 131.483 487.317C132.21 487.317 132.793 487.543 133.233 487.995C133.676 488.448 133.898 489.113 133.898 489.99V494.5H132.517V490.156C132.517 489.642 132.383 489.24 132.116 488.951C131.848 488.659 131.48 488.512 131.012 488.512C130.532 488.512 130.137 488.668 129.826 488.979C129.515 489.286 129.36 489.723 129.36 490.29ZM138.62 494.638C138.048 494.638 137.538 494.492 137.092 494.2C136.646 493.908 136.295 493.487 136.039 492.94C135.784 492.389 135.656 491.732 135.656 490.968C135.656 490.202 135.784 489.547 136.039 489.002C136.298 488.457 136.652 488.04 137.101 487.751C137.55 487.461 138.06 487.317 138.629 487.317C139.069 487.317 139.423 487.391 139.691 487.538C139.962 487.683 140.171 487.852 140.319 488.046C140.47 488.24 140.587 488.411 140.67 488.559H140.753V485.045H142.133V494.5H140.785V493.397H140.67C140.587 493.547 140.467 493.72 140.31 493.914C140.156 494.108 139.943 494.277 139.673 494.422C139.402 494.566 139.051 494.638 138.62 494.638ZM138.925 493.461C139.522 493.461 139.979 493.23 140.296 492.769C140.616 492.304 140.776 491.699 140.776 490.955C140.776 490.213 140.617 489.617 140.3 489.168C139.986 488.716 139.528 488.489 138.925 488.489C138.509 488.489 138.163 488.597 137.886 488.812C137.609 489.028 137.4 489.322 137.258 489.694C137.12 490.064 137.05 490.484 137.05 490.955C137.05 491.429 137.121 491.855 137.263 492.233C137.404 492.612 137.614 492.912 137.891 493.134C138.171 493.352 138.515 493.461 138.925 493.461ZM147.307 494.643C146.642 494.643 146.062 494.491 145.566 494.186C145.071 493.881 144.686 493.455 144.412 492.907C144.138 492.356 144.001 491.716 144.001 490.987C144.001 490.251 144.138 489.608 144.412 489.057C144.686 488.506 145.071 488.078 145.566 487.774C146.062 487.469 146.642 487.317 147.307 487.317C147.975 487.317 148.555 487.469 149.047 487.774C149.543 488.078 149.927 488.506 150.201 489.057C150.475 489.608 150.612 490.251 150.612 490.987C150.612 491.716 150.475 492.356 150.201 492.907C149.927 493.455 149.543 493.881 149.047 494.186C148.555 494.491 147.975 494.643 147.307 494.643ZM147.311 493.484C147.745 493.484 148.102 493.371 148.382 493.143C148.665 492.915 148.875 492.612 149.01 492.233C149.149 491.852 149.218 491.435 149.218 490.982C149.218 490.53 149.149 490.113 149.01 489.731C148.875 489.35 148.665 489.045 148.382 488.817C148.102 488.586 147.745 488.471 147.311 488.471C146.877 488.471 146.519 488.586 146.236 488.817C145.953 489.045 145.742 489.35 145.603 489.731C145.465 490.113 145.395 490.53 145.395 490.982C145.395 491.435 145.465 491.852 145.603 492.233C145.742 492.612 145.953 492.915 146.236 493.143C146.519 493.371 146.877 493.484 147.311 493.484ZM155.744 487.409V488.517H154.216V494.5H152.831V488.517H151.737V487.409H152.831V486.587C152.831 486.144 152.928 485.776 153.122 485.484C153.319 485.189 153.577 484.969 153.898 484.824C154.218 484.676 154.564 484.602 154.936 484.602C155.216 484.602 155.455 484.625 155.652 484.672C155.849 484.715 155.995 484.755 156.09 484.792L155.767 485.909C155.703 485.887 155.62 485.864 155.518 485.839C155.416 485.815 155.293 485.803 155.149 485.803C154.813 485.803 154.573 485.886 154.428 486.052C154.287 486.218 154.216 486.458 154.216 486.772V487.409H155.744ZM160.76 487.409V488.517H159.232V494.5H157.847V488.517H156.753V487.409H157.847V486.587C157.847 486.144 157.944 485.776 158.137 485.484C158.334 485.189 158.593 484.969 158.913 484.824C159.233 484.676 159.579 484.602 159.952 484.602C160.232 484.602 160.47 484.625 160.667 484.672C160.864 484.715 161.01 484.755 161.106 484.792L160.783 485.909C160.718 485.887 160.635 485.864 160.533 485.839C160.432 485.815 160.309 485.803 160.164 485.803C159.829 485.803 159.589 485.886 159.444 486.052C159.302 486.218 159.232 486.458 159.232 486.772V487.409H160.76Z" fill="white"></path><path d="M108.5 471.5L108.5 353.483" stroke="black" stroke-linecap="square"></path><path fill-rule="evenodd" clip-rule="evenodd" d="M111 470.5C111 469.119 109.881 468 108.5 468C107.119 468 106 469.119 106 470.5C106 471.881 107.119 473 108.5 473C109.881 473 111 471.881 111 470.5Z" fill="#FED45D" stroke="black" stroke-width="3"></path><path fill-rule="evenodd" clip-rule="evenodd" d="M111 353.5C111 352.119 109.881 351 108.5 351C107.119 351 106 352.119 106 353.5C106 354.881 107.119 356 108.5 356C109.881 356 111 354.881 111 353.5Z" fill="#FED45D" stroke="black" stroke-width="3"></path></svg>